<svg width="64" height="24" viewBox="0 0 64 24" fill="none" xmlns="http://www.w3.org/2000/svg">
<g clip-path="url(#clip0_1194_19240)">
<path d="M13.0061 0.577332V8.98448H5.79536V0.577332H3.56431H0.175781V22.9541H3.56431V22.9584H5.79536V14.0057H13.0061V22.9584H18.6385V0.577332H13.0061Z" fill="#202B46"/>
<path d="M30.8859 14.7793H37.535C36.8425 17.1001 34.8574 18.4135 32.2097 18.4135C28.4487 18.4135 26.1024 15.3898 26.1024 11.6343C26.1024 7.8789 28.5994 5.06882 32.1799 5.06882C34.3157 5.06882 36.0305 6.13686 37.0828 8.00014H43.4603C42.1961 3.4509 37.353 0 32.3292 0C25.8621 0 20.416 4.7946 20.416 11.6343C20.416 18.4741 25.6502 23.4823 32.2382 23.4823C39.729 23.4823 44.1215 17.5287 44.1215 11.451V10.168H30.8845V14.7793H30.8859Z" fill="#202B46"/>
<path d="M57.7082 0.577332L53.2546 16.2153H53.1963L48.7726 0.577332H43.0137L50.3453 22.8761H56.1355L63.4984 0.577332H57.7082Z" fill="#202B46"/>
</g>
<defs>
<clipPath id="clip0_1194_19240">
<rect width="64" height="24" fill="white"/>
</clipPath>
</defs>
</svg>
