<svg width="24" height="24" viewBox="0 0 24 24" fill="none" xmlns="http://www.w3.org/2000/svg">
<path fill-rule="evenodd" clip-rule="evenodd" d="M11.5958 6.01003L9 3.41421L10.4142 2L15.8284 7.41421L10.4142 12.8284L9 11.4142L12.401 8.01319C12.2685 8.00444 12.1348 8 12 8C8.68629 8 6 10.6863 6 14C6 17.1889 8.4878 19.7968 11.6285 19.9887V21.9915C7.38266 21.7974 4 18.2937 4 14C4 9.71726 7.36534 6.22054 11.5958 6.01003ZM17.917 15C17.767 15.8945 17.419 16.7219 16.9197 17.4356L18.3503 18.8662C19.1936 17.7674 19.7581 16.4434 19.9381 15H17.917ZM13.6285 19.7764C14.316 19.5829 14.9535 19.2701 15.5172 18.8615L16.9449 20.2892C15.9907 21.0404 14.8615 21.5792 13.6285 21.8341V19.7764Z" fill="black"/>
</svg>
