<svg width="29" height="24" viewBox="0 0 29 24" fill="none" xmlns="http://www.w3.org/2000/svg">
<path d="M28 6.09791C28 4.09146 26.4897 0 14.2641 0C2.03847 0 1 4.09146 1 6.09791V7H28V6.09791Z" fill="black"/>
<path d="M1.6057 12H27.3943C28.2809 12 29 11.3287 29 10.4999C29 9.67132 28.2809 9 27.3943 9H1.6057C0.718846 9 0 9.67159 0 10.4999C0 11.329 0.719139 12 1.6057 12Z" fill="black"/>
<path d="M27.3946 14H1.6057C0.718846 14 0 14.6715 0 15.5003C0 16.3285 0.719139 17 1.6057 17H27.3943C28.2809 17 29 16.3285 29 15.5003C29.0003 14.6715 28.2812 14 27.3946 14Z" fill="black"/>
<path d="M1 19.9946C1 22.2069 2.55756 24 4.47887 24H24.5211C26.4424 24 28 22.2069 28 19.9946V19H1V19.9946Z" fill="black"/>
</svg>
