<svg width="24" height="24" viewBox="0 0 24 24" fill="none" xmlns="http://www.w3.org/2000/svg">
<path fill-rule="evenodd" clip-rule="evenodd" d="M12 21C7.02944 21 3 16.9706 3 12C3 7.02944 7.02944 3 12 3C16.9706 3 21 7.02944 21 12C21 16.9706 16.9706 21 12 21ZM7.65416 17.4879C8.84803 18.4346 10.358 19 12 19C15.866 19 19 15.866 19 12C19 10.358 18.4346 8.84803 17.4879 7.65416L7.65416 17.4879ZM6.27902 16.0347C5.47334 14.8943 5 13.5024 5 12C5 8.13401 8.13401 5 12 5C13.5024 5 14.8943 5.47334 16.0347 6.27902L6.27902 16.0347Z" fill="black"/>
</svg>
