<svg width="24" height="24" viewBox="0 0 24 24" fill="none" xmlns="http://www.w3.org/2000/svg">
<mask id="path-1-inside-1" fill="white">
<path d="M14.0488 5.16281C12.0877 4.76098 10.0472 5.10899 8.3302 6.13815C6.61315 7.1673 5.34434 8.8028 4.77426 10.7218C4.20418 12.6407 4.37425 14.7037 5.25091 16.5034C6.12757 18.3031 7.6471 19.7087 9.50951 20.4427L10.2442 18.5788C8.84819 18.0286 7.70921 16.975 7.0521 15.626C6.395 14.277 6.26751 12.7307 6.69483 11.2923C7.12214 9.85395 8.07318 8.62804 9.36021 7.85663C10.6472 7.08522 12.1767 6.82436 13.6467 7.12556L14.0488 5.16281Z"/>
</mask>
<path d="M14.0488 5.16281C12.0877 4.76098 10.0472 5.10899 8.3302 6.13815C6.61315 7.1673 5.34434 8.8028 4.77426 10.7218C4.20418 12.6407 4.37425 14.7037 5.25091 16.5034C6.12757 18.3031 7.6471 19.7087 9.50951 20.4427L10.2442 18.5788C8.84819 18.0286 7.70921 16.975 7.0521 15.626C6.395 14.277 6.26751 12.7307 6.69483 11.2923C7.12214 9.85395 8.07318 8.62804 9.36021 7.85663C10.6472 7.08522 12.1767 6.82436 13.6467 7.12556L14.0488 5.16281Z" stroke="black" stroke-width="4" mask="url(#path-1-inside-1)"/>
<path d="M10.6856 10.4853L14.9282 6.24268L10.6856 2.00004" stroke="black" stroke-width="2"/>
<path fill-rule="evenodd" clip-rule="evenodd" d="M18.1868 17.0044L19.0076 17.5757C19.3982 17.0144 19.7228 16.3935 19.9664 15.7198C20.2099 15.0462 20.3574 14.3612 20.416 13.6799L19.4196 13.5943L18.4233 13.5087C18.3796 14.0178 18.2692 14.5317 18.0855 15.0399C17.9018 15.5481 17.658 16.0137 17.3661 16.4331L18.1868 17.0044ZM19.3354 11.7702L20.3197 11.5935C20.0718 10.213 19.464 8.91683 18.5611 7.84351L17.7959 8.48724L17.0306 9.13098C17.7083 9.9366 18.1651 10.9107 18.3511 11.9469L19.3354 11.7702ZM8.43849 18.7439L7.86719 19.5646C8.42844 19.9553 9.04941 20.2799 9.72306 20.5234C10.3967 20.767 11.0817 20.9145 11.763 20.973L11.8486 19.9767L11.9342 18.9804C11.4251 18.9366 10.9112 18.8263 10.403 18.6426C9.89483 18.4588 9.42922 18.2151 9.0098 17.9231L8.43849 18.7439ZM17.5994 19.1182C16.5261 20.021 15.2299 20.6289 13.8494 20.8767L13.6727 19.8924L13.496 18.9082C14.5322 18.7222 15.5063 18.2654 16.3119 17.5877L16.9556 18.3529L17.5994 19.1182Z" fill="black"/>
</svg>
