<svg width="624" height="624" viewBox="0 0 624 624" fill="none" xmlns="http://www.w3.org/2000/svg">
<path d="M488.217 72.2007L484.988 69.8548L331.799 253.461C330.645 254.844 328.395 254.113 328.274 252.316L312.262 13.7327H308.271L292.259 252.316C292.139 254.113 289.888 254.844 288.735 253.461L135.545 69.8548L132.316 72.2007L259.598 274.63C260.557 276.155 259.166 278.069 257.42 277.628L25.5658 219.13L24.3325 222.926L246.291 311.88C247.962 312.55 247.962 314.916 246.291 315.586L24.3325 404.541L25.5658 408.336L257.42 349.838C259.166 349.398 260.557 351.312 259.598 352.837L132.316 555.266L135.545 557.612L288.735 374.005C289.888 372.623 292.139 373.354 292.259 375.151L308.271 613.734H312.262L328.274 375.151C328.395 373.354 330.645 372.623 331.799 374.005L484.988 557.612L488.217 555.266L360.935 352.837C359.977 351.312 361.367 349.398 363.113 349.838L594.968 408.336L596.201 404.541L374.243 315.586C372.571 314.916 372.571 312.55 374.243 311.88L596.201 222.926L594.968 219.13L363.113 277.628C361.367 278.069 359.977 276.155 360.935 274.63L488.217 72.2007ZM296.25 252.584L310.267 43.7347L324.283 252.584C324.645 257.981 331.405 260.177 334.87 256.024L468.968 95.2997L357.549 272.501C354.67 277.08 358.847 282.83 364.092 281.507L567.051 230.299L372.755 308.167C367.734 310.18 367.734 317.287 372.755 319.299L567.051 397.168L364.092 345.96C358.847 344.637 354.67 350.387 357.549 354.966L468.968 532.167L334.87 371.443C331.405 367.29 324.645 369.486 324.283 374.883L310.267 583.732L296.25 374.883C295.888 369.486 289.129 367.29 285.663 371.443L151.565 532.167L262.984 354.966C265.864 350.387 261.686 344.637 256.441 345.96L53.4826 397.168L247.779 319.299C252.8 317.287 252.8 310.18 247.779 308.167L53.4826 230.299L256.441 281.507C261.686 282.83 265.864 277.08 262.984 272.501L151.565 95.2998L285.663 256.024C289.129 260.177 295.888 257.981 296.25 252.584ZM622 312C622 483.208 483.208 622 312 622C140.792 622 2 483.208 2 312C2 140.792 140.792 2 312 2C483.208 2 622 140.792 622 312Z" stroke="black" stroke-width="4"/>
</svg>
