<svg width="180" height="180" viewBox="0 0 180 180" fill="none" xmlns="http://www.w3.org/2000/svg">
<path d="M152.033 28.6736L151.326 27.9671L99.8065 75.3183C97.6162 77.3313 94.0726 75.8635 93.9473 72.8913L90.9996 2.97894H90.0004L87.0527 72.8913C86.9274 75.8635 83.3837 77.3313 81.1935 75.3183L29.6736 27.9671L28.9671 28.6736L76.3183 80.1935C78.3313 82.3838 76.8635 85.9274 73.8913 86.0527L3.97894 89.0004V89.9996L73.8913 92.9473C76.8635 93.0726 78.3313 96.6163 76.3183 98.8065L28.9671 150.326L29.6736 151.033L81.1935 103.682C83.3838 101.669 86.9274 103.137 87.0527 106.109L90.0004 176.021H90.9996L93.9473 106.109C94.0726 103.137 97.6163 101.669 99.8065 103.682L151.326 151.033L152.033 150.326L104.682 98.8065C102.669 96.6162 104.137 93.0726 107.109 92.9473L177.021 89.9996V89.0004L107.109 86.0527C104.137 85.9274 102.669 82.3838 104.682 80.1935L152.033 28.6736ZM88.0518 72.9335L90.5 14.8691L92.9482 72.9335C93.1094 76.7557 97.6665 78.6433 100.483 76.0545L143.272 36.728L103.945 79.5168C101.357 82.3335 103.244 86.8906 107.067 87.0518L165.131 89.5L107.067 91.9482C103.244 92.1094 101.357 96.6665 103.945 99.4832L143.272 142.272L100.483 102.945C97.6665 100.357 93.1094 102.244 92.9482 106.067L90.5 164.131L88.0518 106.067C87.8906 102.244 83.3335 100.357 80.5168 102.945L37.728 142.272L77.0545 99.4832C79.6433 96.6665 77.7557 92.1094 73.9335 91.9482L15.8691 89.5L73.9335 87.0518C77.7557 86.8906 79.6433 82.3335 77.0545 79.5168L37.728 36.728L80.5168 76.0545C83.3335 78.6433 87.8906 76.7557 88.0518 72.9335ZM179.5 90C179.5 139.429 139.429 179.5 90 179.5C40.5705 179.5 0.5 139.429 0.5 90C0.5 40.5705 40.5705 0.5 90 0.5C139.429 0.5 179.5 40.5705 179.5 90Z" stroke="black"/>
</svg>
