<svg width="182" height="182" viewBox="0 0 182 182" fill="none" xmlns="http://www.w3.org/2000/svg">
<path d="M38 163C47.6715 142.883 68.2171 129 92 129C115.783 129 136.328 142.883 146 163M58.8657 7.5017C66.9259 25.1195 65.6345 44.1318 53.8831 55.8832C42.1317 67.6346 23.1194 68.926 5.5016 60.8658M121.956 7.00012C114.737 23.777 116.609 42.209 128.36 53.9604C140.112 65.7118 158.544 67.5835 175.321 60.3642M93 1L93 181M181 91C181 140.706 140.706 181 91 181C41.2944 181 1 140.706 1 91C1 41.2944 41.2944 1 91 1C140.706 1 181 41.2944 181 91ZM10 130C24.5313 99.8248 55.4007 79 91.134 79C126.867 79 157.737 99.8248 172.268 130C157.737 160.175 126.867 181 91.134 181C55.4007 181 24.5313 160.175 10 130Z" stroke="black" stroke-width="2"/>
</svg>
