<svg width="202" height="155" viewBox="0 0 202 155" fill="none" xmlns="http://www.w3.org/2000/svg">
<path fill-rule="evenodd" clip-rule="evenodd" d="M101.664 17.8223V32.4358C131.523 34.9597 154.973 60.0878 154.973 90.7138C154.973 122.749 129.315 148.769 97.5024 149.195V149.2H3.96351V132.092H55.533C44.9765 121.506 38.4461 106.876 38.4461 90.7138C38.4461 77.669 42.7005 65.6217 49.8924 55.8937C33.2292 53.6847 21.138 45.8027 15.2595 38.1136L71.5675 37.938C73.9816 36.777 76.4879 35.778 79.0721 34.9551V34.9306C61.1084 35.3678 31.975 35.2195 19.0632 35.1538L19.0571 35.1538C16.3034 35.1398 14.2882 35.1296 13.2778 35.1296C11.296 35.1296 5.35074 23.8566 4.16169 19.6127L79.0721 20.2095V16.6287C56.6878 16.2857 19.5703 16.5342 8.37041 16.6092C6.58083 16.6212 5.45293 16.6287 5.15257 16.6287C2.0313 16.6287 0.530081 4.57249 0.000870889 0.322699L0 0.316124C7.90177 0.386007 18.7086 0.288307 30.2908 0.183595C49.2345 0.0123322 70.2523 -0.177683 84.0265 0.31613C94.728 1.9076 101.664 11.2575 101.664 17.8223ZM96.7097 132.092C119.475 132.092 137.93 113.566 137.93 90.7138C137.93 69.5444 122.094 52.088 101.664 49.6314V80.8698C105.09 82.7661 107.411 86.427 107.411 90.6321C107.411 96.7847 102.442 101.772 96.3134 101.772C90.1842 101.772 85.2155 96.7847 85.2155 90.6321C85.2155 86.7101 87.2345 83.2614 90.2861 81.2764C90.1078 81.0616 89.9987 80.801 89.9717 80.4865C89.9304 80.0052 89.8918 79.5251 89.8534 79.0468C89.1409 70.1778 88.4769 61.9126 71.182 58.2232C61.6237 65.801 55.4892 77.5383 55.4892 90.7138C55.4892 113.566 73.9443 132.092 96.7097 132.092Z" fill="black"/>
<path d="M201.009 134.746C202.33 135.512 202.33 137.426 201.009 138.191L172.472 154.731C171.151 155.496 169.499 154.539 169.499 153.008V147.379H124.851C134.697 143.141 142.993 136.488 148.773 128.282H169.499V119.93C169.499 118.398 171.151 117.441 172.472 118.207L201.009 134.746Z" fill="black"/>
</svg>
