<svg width="274" height="260" viewBox="0 0 274 260" fill="none" xmlns="http://www.w3.org/2000/svg">
<path d="M205.216 33H62.0881L43.674 62.2424H230.326L205.216 33Z" fill="black"/>
<path fill-rule="evenodd" clip-rule="evenodd" d="M42 66.4199H232V114.879C232 116.263 230.876 117.385 229.489 117.385H223.63V226H50.37V117.385H44.511C43.1243 117.385 42 116.263 42 114.879V66.4199ZM145.119 154.523V160.121H156.335V185.311H117.079V160.121H128.295V154.523H111.471V190.909H161.943V154.523H145.119ZM133.903 174.116V145.567L129.417 150.045L125.491 146.126L136.707 134.931L147.923 146.126L143.997 150.045L139.511 145.567V174.116H133.903Z" fill="black"/>
</svg>
