<svg width="24" height="24" viewBox="0 0 24 24" fill="none" xmlns="http://www.w3.org/2000/svg">
<g clip-path="url(#clip0_2_31)">
<path d="M7.41 13L11.71 17.29C11.8983 17.4783 12.0041 17.7337 12.0041 18C12.0041 18.2663 11.8983 18.5217 11.71 18.71C11.5217 18.8983 11.2663 19.0041 11 19.0041C10.7337 19.0041 10.4783 18.8983 10.29 18.71L4.29 12.71C4.19627 12.617 4.12188 12.5064 4.07111 12.3846C4.02034 12.2627 3.9942 12.132 3.9942 12C3.9942 11.868 4.02034 11.7373 4.07111 11.6154C4.12188 11.4936 4.19627 11.383 4.29 11.29L10.29 5.29C10.3832 5.19676 10.4939 5.1228 10.6158 5.07234C10.7376 5.02188 10.8681 4.99591 11 4.99591C11.1319 4.99591 11.2624 5.02188 11.3842 5.07234C11.5061 5.1228 11.6168 5.19676 11.71 5.29C11.8032 5.38324 11.8772 5.49393 11.9277 5.61575C11.9781 5.73758 12.0041 5.86814 12.0041 6C12.0041 6.13186 11.9781 6.26243 11.9277 6.38425C11.8772 6.50607 11.8032 6.61676 11.71 6.71L7.41 11H19C19.2652 11 19.5196 11.1054 19.7071 11.2929C19.8946 11.4804 20 11.7348 20 12C20 12.2652 19.8946 12.5196 19.7071 12.7071C19.5196 12.8946 19.2652 13 19 13H7.41Z" fill="#4E6891"/>
</g>
<defs>
<clipPath id="clip0_2_31">
<rect width="24" height="24" fill="white"/>
</clipPath>
</defs>
</svg>
