<svg width="24" height="24" viewBox="0 0 24 24" fill="none" xmlns="http://www.w3.org/2000/svg">
<g clip-path="url(#clip0_2_36)">
<path d="M16.6 11L12.3 6.70001C12.1556 6.50744 12.0855 6.26923 12.1025 6.02912C12.1196 5.78901 12.2227 5.56311 12.3929 5.3929C12.5631 5.22269 12.789 5.11959 13.0291 5.10252C13.2692 5.08546 13.5074 5.15558 13.7 5.30001L19.7 11.3C19.8832 11.4869 19.9859 11.7383 19.9859 12C19.9859 12.2618 19.8832 12.5131 19.7 12.7L13.7 18.7C13.5074 18.8444 13.2692 18.9146 13.0291 18.8975C12.789 18.8804 12.5631 18.7773 12.3929 18.6071C12.2227 18.4369 12.1196 18.211 12.1025 17.9709C12.0855 17.7308 12.1556 17.4926 12.3 17.3L16.6 13H5C4.73478 13 4.48043 12.8947 4.29289 12.7071C4.10536 12.5196 4 12.2652 4 12C4 11.7348 4.10536 11.4804 4.29289 11.2929C4.48043 11.1054 4.73478 11 5 11H16.6Z" fill="#4E6891"/>
</g>
<defs>
<clipPath id="clip0_2_36">
<rect width="24" height="24" fill="white"/>
</clipPath>
</defs>
</svg>
