<?xml version="1.0" encoding="UTF-8"?><svg id="Layer_2_copy_3" xmlns="http://www.w3.org/2000/svg" viewBox="0 0 228.25 228.49"><defs><style>.cls-1{fill:none;stroke:#fff;}.cls-1,.cls-2{stroke-miterlimit:10;stroke-width:8px;}.cls-2{stroke:#000;}</style></defs><circle class="cls-2" cx="114.77" cy="113.76" r="106.06"/><polyline class="cls-1" points="97.61 44.73 82.92 46.3 90.26 105.6 42.25 114.26"/><polyline class="cls-1" points="84.7 60.71 99.45 57.85 106.05 106.43"/><polyline class="cls-1" points="143.79 36.6 110.51 41.84 118.38 88.29 148.77 82.78"/><line class="cls-1" x1="112.57" y1="62.44" x2="143.97" y2="58.26"/><polyline class="cls-1" points="172.65 32.92 157.17 35.28 160.04 52.1 167.14 93.8 117.81 103.24"/><polyline class="cls-1" points="180 93.27 173.57 49.19 160.04 52.1"/><ellipse class="cls-1" cx="54.58" cy="75.24" rx="17.58" ry="24.01" transform="translate(-10.48 8.86) rotate(-8.47)"/><polyline class="cls-1" points="112.63 125.72 94.79 128.35 96.46 143.29 101.61 189.22 67.52 194.09"/><polyline class="cls-1" points="117.35 187.64 112.63 140.94 96.46 143.29"/><polyline class="cls-1" points="156.75 119.38 125.22 124.15 127.85 150.65 159.07 148.02"/><line class="cls-1" x1="158.02" y1="133.59" x2="126.54" y2="137.48"/><path class="cls-1" d="m128.44,161.92l4.26,22.32s10.63,2.89,10.89,1.84,13.38-10.77,13.38-10.77l20.73,3.95"/><polyline class="cls-1" points="184 115.23 170.88 116.8 174.02 153.8 151.55 163.2"/><polyline class="cls-1" points="191.34 182.92 187.67 132.19 172.02 130.22"/><polygon class="cls-1" points="46.25 135.43 76.16 131.76 82.98 179.25 54.38 182.92 46.25 135.43"/></svg>