<?xml version="1.0" encoding="UTF-8"?><svg id="Atomasym2_Image_copy_4" xmlns="http://www.w3.org/2000/svg" viewBox="0 0 216.86 216.86"><defs><style>.cls-1{stroke-width:6px;}.cls-1,.cls-2{stroke-linecap:round;}.cls-1,.cls-2,.cls-3{fill:none;stroke:#000;stroke-miterlimit:10;}.cls-2,.cls-3{stroke-width:7px;}</style></defs><circle class="cls-3" cx="108.43" cy="108.43" r="104.93"/><path class="cls-3" d="m63.8,66.42c2.58,13.85,1.68,25.84-12.81,28.34-11.24,1.94-19.59-7.96-22.17-21.81-2.58-13.85,1.46-26.28,12.81-28.34,14.75-2.68,19.59,7.96,22.17,21.81Z"/><path class="cls-2" d="m96.37,36.11c-7.64,2.1-19.32.33-17.93,6,5.36,18.66,4.33,38.08,6.41,57.34.77,7.14-10.53,7.9-16.81,9.5-10.14,2.58-20.07,2.25-29.91,4.1"/><path class="cls-2" d="m81.43,55.81c3.81.2,15.23-3.18,15.5-1,1.75,14.55,3.73,34.19,4.17,48.7"/><path class="cls-2" d="m143.76,30.35c-9.01,1.3-18.19,3.67-27.85,4.64-2.3.23-5.92.51-7.47,2.23-1.61,1.79-.56,7.55-.15,9.93,1.08,6.21,3.62,27.29,5.33,31.63.21.54,2.39,1.52,2.89,1.81.44.25,5.17.25,5.68.25,9.43-.12,18.34-1.93,27.77-2.06"/><path class="cls-2" d="m113.61,55.76c9.7-.71,23.03-1.82,30.68-2.73"/><path class="cls-2" d="m173.27,25.92c-3.13-.1-8.05.92-11.16,1.22-1.6.15-3.41.49-4.25,1.86-.44.72-.64,1.6-.57,2.44,1.58,18.69,6.75,32.02,6.88,50.96.01,2.07.33,7.9-.95,9.54-1.17,1.5-3.12,2.13-4.96,2.62-5.34,1.43-10.81,2.38-16.33,2.85-5.66.48-11.41.46-16.93,1.82-2.74.68-5.42,1.69-8.23,1.89"/><path class="cls-2" d="m158.8,43.34c5.11-.38,17.33-2.44,18.78.17,0,0,1.39,33.51,3.62,46.7-.13-1.45.71,7.58.71,7.58"/><rect class="cls-3" x="40.07" y="124.47" width="31.93" height="50.24" rx="4.57" ry="4.57" transform="translate(-21.12 9.72) rotate(-8.35)"/><path class="cls-2" d="m104.6,117.16c-50.24-2.58,30.09,77.43-40.85,72.74"/><path class="cls-2" d="m87.63,136.99c-.05-.64,5.79-2.58,6.41-2.75,1.95-.54,3.94-1.09,5.97-1.01s4.13.88,5.28,2.54c.93,1.34,1.14,3.05,1.32,4.67,1.51,13.76,4.46,40.87,4.42,40.66"/><path class="cls-2" d="m143.08,113.42c-8.8-1.43-15.53-1.4-23.56,1.78-.8.32-1.19,1.2-.93,2.02,2.44,7.68,3.71,16.64,4.21,24.75.07,1.19,1.17,2.05,2.33,1.81,8.95-1.86,16.39-2.47,25.83-2.76"/><path class="cls-2" d="m153.52,125.85c-10.78,2.18-21.29.77-32.05,3.84"/><path class="cls-2" d="m123.23,154.01c.18,6.61.77,13.21,1.77,19.74.35,2.3,1.08,5,3.29,5.72,1.09.36,9.79-5.36,17.77-7.51,5.2-1.4,10.37-3.11,15.57-1.7,4.58,1.24,11.56,5.12,10.77,4.73"/><path class="cls-1" d="m182.15,107.34c-7.08.12-14.83-.96-13.8,5.95.76,5.08-.11,10.14.67,15.22.87,5.68.64,11.46.41,17.2-.07,1.83-.21,3.82-1.42,5.2-.82.94-2.03,1.44-3.2,1.88-4.73,1.75-13.66,3.47-13.14,3.55"/><path class="cls-1" d="m168.67,122c2.99-1.32,11.5-.71,13.84,1.59,5.86,5.75,5.61,16.36,4.99,24.55s.55,27.84.55,27.84"/></svg>