<svg width="229" height="229" viewBox="0 0 229 229" fill="none" xmlns="http://www.w3.org/2000/svg">
<path d="M114.77 219.82C173.345 219.82 220.83 172.335 220.83 113.76C220.83 55.1847 173.345 7.7 114.77 7.7C56.1947 7.7 8.71 55.1847 8.71 113.76C8.71 172.335 56.1947 219.82 114.77 219.82Z" fill="#4E6891" stroke="white" stroke-width="4" stroke-miterlimit="10"/>
<path d="M102.84 53.12L88.15 55.97L87.39 49.85L98.04 48.71L97.18 40.75L78.45 42.76L85.83 102.34L41.54 110.32L42.96 118.2L94.7 108.87L89.13 63.92L96.05 62.58L102.09 106.97L110.01 105.89L102.84 53.12Z" fill="white"/>
<path d="M148.06 78.84L121.65 83.63L118.61 65.67L144.49 62.22L143.44 54.29L117.27 57.78L115.13 45.16L144.41 40.55L143.17 32.65L105.89 38.52L115.11 92.94L149.49 86.71L148.06 78.84Z" fill="white"/>
<path d="M176.73 96.78L184.64 95.58L176.89 44.39L163.28 47.31L161.8 38.62L173.25 36.88L172.05 28.97L152.54 31.94L162.54 90.6L117.06 99.31L118.57 107.17L171.74 96.99L164.62 55.21L170.25 54L176.73 96.78Z" fill="white"/>
<path d="M58.1234 98.9883C67.7267 97.5582 73.9283 85.7665 71.9752 72.6508C70.022 59.5351 60.6537 50.062 51.0504 51.4921C41.4472 52.9221 35.2455 64.7138 37.1987 77.8296C39.1518 90.9453 48.5201 100.418 58.1234 98.9883Z" stroke="white" stroke-width="8" stroke-miterlimit="10"/>
<path d="M112.63 125.72L94.79 128.35L96.46 143.29L101.61 189.22L67.52 194.09" stroke="white" stroke-width="8" stroke-miterlimit="10"/>
<path d="M117.35 187.64L112.63 140.94L96.46 143.29" stroke="white" stroke-width="8" stroke-miterlimit="10"/>
<path d="M156.75 119.38L125.22 124.15L127.85 150.65L159.07 148.02" stroke="white" stroke-width="8" stroke-miterlimit="10"/>
<path d="M158.02 133.59L126.54 137.48" stroke="white" stroke-width="8" stroke-miterlimit="10"/>
<path d="M128.44 161.92L132.7 184.24C132.7 184.24 143.33 187.13 143.59 186.08C143.85 185.03 156.97 175.31 156.97 175.31L177.7 179.26" stroke="white" stroke-width="8" stroke-miterlimit="10"/>
<path d="M184 115.23L170.88 116.8L174.02 153.8L151.55 163.2" stroke="white" stroke-width="8" stroke-miterlimit="10"/>
<path d="M191.34 182.92L187.67 132.19L172.02 130.22" stroke="white" stroke-width="8" stroke-miterlimit="10"/>
<path d="M51.09 187.38L41.6 131.97L79.56 127.31L87.52 182.7L51.09 187.38ZM50.9 138.89L57.68 178.47L78.45 175.8L72.76 136.21L50.9 138.89Z" fill="white"/>
</svg>
