<?xml version="1.0" encoding="UTF-8"?><svg id="Layer_2_copy_4" xmlns="http://www.w3.org/2000/svg" viewBox="0 0 228.25 228.49"><defs><style>.cls-1{stroke-width:4px;}.cls-1,.cls-2{stroke:#fff;stroke-miterlimit:10;}.cls-2{fill:none;stroke-width:8px;}.cls-3{fill:#fff;stroke-width:0px;}</style></defs><circle class="cls-1" cx="114.77" cy="113.76" r="106.06"/><polygon class="cls-3" points="102.84 53.12 88.15 55.97 87.39 49.85 98.04 48.71 97.18 40.75 78.45 42.76 85.83 102.34 41.54 110.32 42.96 118.2 94.7 108.87 89.13 63.92 96.05 62.58 102.09 106.97 110.01 105.89 102.84 53.12"/><polygon class="cls-3" points="148.06 78.84 121.65 83.63 118.61 65.67 144.49 62.22 143.44 54.29 117.27 57.78 115.13 45.16 144.41 40.55 143.17 32.65 105.89 38.52 115.11 92.94 149.49 86.71 148.06 78.84"/><polygon class="cls-3" points="176.73 96.78 184.64 95.58 176.89 44.39 163.28 47.31 161.8 38.62 173.25 36.88 172.05 28.97 152.54 31.94 162.54 90.6 117.06 99.31 118.57 107.17 171.74 96.99 164.62 55.21 170.25 54 176.73 96.78"/><ellipse class="cls-2" cx="54.58" cy="75.24" rx="17.58" ry="24.01" transform="translate(-10.48 8.86) rotate(-8.47)"/><polyline class="cls-2" points="112.63 125.72 94.79 128.35 96.46 143.29 101.61 189.22 67.52 194.09"/><polyline class="cls-2" points="117.35 187.64 112.63 140.94 96.46 143.29"/><polyline class="cls-2" points="156.75 119.38 125.22 124.15 127.85 150.65 159.07 148.02"/><line class="cls-2" x1="158.02" y1="133.59" x2="126.54" y2="137.48"/><path class="cls-2" d="m128.44,161.92l4.26,22.32s10.63,2.89,10.89,1.84,13.38-10.77,13.38-10.77l20.73,3.95"/><polyline class="cls-2" points="184 115.23 170.88 116.8 174.02 153.8 151.55 163.2"/><polyline class="cls-2" points="191.34 182.92 187.67 132.19 172.02 130.22"/><path class="cls-3" d="m51.09,187.38l-9.49-55.41,37.96-4.66,7.96,55.39-36.43,4.68Zm-.19-48.49l6.78,39.58,20.77-2.67-5.69-39.59-21.86,2.68Z"/></svg>