<?xml version="1.0" encoding="UTF-8" standalone="no"?>
<svg
   xmlns:dc="http://purl.org/dc/elements/1.1/"
   xmlns:cc="http://creativecommons.org/ns#"
   xmlns:rdf="http://www.w3.org/1999/02/22-rdf-syntax-ns#"
   xmlns:svg="http://www.w3.org/2000/svg"
   xmlns="http://www.w3.org/2000/svg"
   xmlns:sodipodi="http://sodipodi.sourceforge.net/DTD/sodipodi-0.dtd"
   xmlns:inkscape="http://www.inkscape.org/namespaces/inkscape"
   width="1000"
   height="1000"
   viewBox="0 0 1000 1000"
   version="1.1"
   id="svg3797"
   sodipodi:docname="Atomasymqrcode.svg"
   inkscape:version="0.92.4 (5da689c313, 2019-01-14)"
   style="fill:none">
  <metadata
     id="metadata3803">
    <rdf:RDF>
      <cc:Work
         rdf:about="">
        <dc:format>image/svg+xml</dc:format>
        <dc:type
           rdf:resource="http://purl.org/dc/dcmitype/StillImage" />
        <dc:title></dc:title>
      </cc:Work>
    </rdf:RDF>
  </metadata>
  <defs
     id="defs3801" />
  <sodipodi:namedview
     pagecolor="#ffffff"
     bordercolor="#666666"
     borderopacity="1"
     objecttolerance="10"
     gridtolerance="10"
     guidetolerance="10"
     inkscape:pageopacity="0"
     inkscape:pageshadow="2"
     inkscape:window-width="1920"
     inkscape:window-height="1009"
     id="namedview3799"
     showgrid="false"
     inkscape:zoom="0.7287214"
     inkscape:cx="-3.6825535"
     inkscape:cy="556.08204"
     inkscape:window-x="1912"
     inkscape:window-y="-8"
     inkscape:window-maximized="1"
     inkscape:current-layer="svg3797" />
  <path
     inkscape:connector-curvature="0"
     style="stroke:#000000;stroke-width:15.73323536"
     d="m 271.86807,279.7347 h 110.13264 m 31.46647,0 h 15.73323 m 31.46647,0 h 31.46647 m 31.46653,0 h 15.73324 m 31.46646,0 h 15.73318 m 31.46653,0 h 110.13264 m -456.26386,15.73324 h 15.73323 m 78.66618,0 h 15.73323 m 15.73323,0 h 15.73324 m 31.46647,0 h 15.73323 m 31.46647,0 h 94.39941 m 31.46653,0 h 15.73323 m 78.66617,0 h 15.73324 m -456.26386,15.73323 h 15.73323 m 15.73324,0 h 47.1997 m 15.73324,0 h 15.73323 m 31.46647,0 h 15.73323 m 15.73324,0 h 15.73323 m 15.7333,0 h 31.46647 m 15.73323,0 h 15.73324 m 47.19964,0 h 15.73329 m 15.73324,0 h 15.73323 m 15.73324,0 h 47.1997 m 15.73323,0 h 15.73324 m -456.26386,15.73324 h 15.73323 m 15.73324,0 h 47.1997 m 15.73324,0 h 15.73323 m 47.1997,0 h 15.73324 m 15.73323,0 h 62.933 m 31.46647,0 h 15.73323 m 47.19971,0 h 15.73323 m 15.73324,0 h 47.1997 m 15.73323,0 h 15.73324 m -456.26386,15.73323 h 15.73323 m 15.73324,0 h 47.1997 m 15.73324,0 h 15.73323 m 15.73323,0 h 31.46647 m 15.73324,0 h 31.46653 m 15.73317,0 h 15.7333 m 47.1997,0 h 31.46641 m 31.46653,0 h 15.73323 m 15.73324,0 h 47.1997 m 15.73323,0 h 15.73324 m -456.26386,15.7333 h 15.73323 m 78.66618,0 h 15.73323 m 31.46647,0 h 31.46647 m 31.46653,0 h 15.73317 m 78.66623,0 h 15.73318 m 31.46653,0 h 15.73323 m 78.66617,0 h 15.73324 m -456.26386,15.73317 h 110.13264 m 15.73323,0 h 15.73324 m 15.73323,0 h 15.73324 m 15.73323,0 h 15.7333 m 15.73317,0 h 15.7333 m 15.73323,0 h 15.73324 m 15.73323,0 h 15.73323 m 15.73318,0 h 15.73329 m 15.73324,0 h 110.13264 m -314.66475,15.7333 h 94.39947 m 15.73323,0 h 31.46647 m 15.73323,0 h 31.46647 m -330.39798,15.7332 h 15.73323 m 15.73324,0 h 15.73323 m 15.73324,0 h 15.73323 m 15.73324,0 h 15.73323 m 31.46647,0 h 31.46647 m 47.1997,0 h 31.46653 m 15.73324,0 h 31.46646 m 78.66618,0 h 15.73323 m 31.46647,0 h 15.73323 m -440.53062,15.73325 h 31.46647 m 15.73323,0 h 15.73324 m 47.1997,0 h 15.73323 m 62.93294,0 h 15.7333 m 15.73317,0 h 31.46653 m 62.93288,0 h 47.19976 m 31.46647,0 h 15.73323 m 31.46647,0 h 15.73324 M 287.6013,437.06708 h 31.46647 m 47.19971,0 h 15.73323 m 31.46647,0 h 47.1997 m 15.7333,0 h 15.73317 m 47.19977,0 h 15.73323 m 47.1997,0 h 15.73324 m 15.73323,0 h 15.73324 m 31.46646,0 h 47.19971 m -424.79739,15.73325 h 15.73323 m 31.46647,0 h 15.73324 m 62.93293,0 h 15.73324 m 15.73323,0 h 15.7333 m 31.46647,0 h 15.73323 m 15.73324,0 h 15.73323 m 15.73323,0 h 15.73318 m 62.933,0 h 15.73323 m 31.46647,0 h 15.73323 M 287.6013,468.53355 h 15.73324 m 62.93294,0 h 47.1997 m 110.1327,0 h 31.46647 m 15.73323,0 h 62.93294 m 31.46647,0 h 15.73323 m 15.73324,0 h 31.46647 m -456.26386,15.73324 h 15.73323 m 15.73324,0 h 62.93294 m 15.73323,0 h 31.46647 m 62.933,0 h 15.73317 m 15.7333,0 h 31.46647 m 47.19964,0 h 47.19976 m 31.46647,0 h 15.73323 m 31.46647,0 h 15.73324 m -456.26386,15.73322 h 31.46647 m 47.1997,0 h 31.46647 m 47.1997,0 h 15.73324 m 15.73323,0 h 15.7333 m 15.73317,0 h 47.19977 m 15.73323,0 h 15.73323 m 47.19971,0 h 15.73323 m 15.73324,0 h 31.46646 m 15.73324,0 h 31.46647 m -456.26386,15.73325 h 15.73323 m 125.86588,0 h 31.46647 m 15.73323,0 h 47.19977 m 15.73323,0 h 47.1997 m 15.73318,0 h 15.73329 m 62.93294,0 h 15.73323 m 15.73324,0 h 15.73323 m -440.53062,15.73323 h 31.46647 m 47.1997,0 h 31.46647 m 110.13264,0 h 31.46653 m 15.73324,0 h 15.73323 m 31.46641,0 h 62.933 m 15.73323,0 h 15.73323 m 15.73324,0 h 31.46647 m -424.79739,15.73324 h 15.73323 m 31.46647,0 h 15.73324 m 47.1997,0 h 62.933 m 15.73317,0 h 31.46653 m 62.93288,0 h 15.73329 m 15.73324,0 h 15.73323 m 31.46647,0 h 31.46647 m 15.73323,0 h 15.73324 m -456.26386,15.73323 h 15.73323 m 62.93294,0 h 62.93294 m 15.73323,0 h 62.93294 m 47.19977,0 h 15.73323 m 31.46641,0 h 78.66623 m 31.46647,0 h 31.46647 M 287.6013,578.6662 h 47.19971 m 78.66617,0 h 15.73323 m 15.73324,0 h 31.46653 m 31.46647,0 h 15.73323 m 15.73324,0 h 31.46646 m 15.73318,0 h 31.46653 m 15.73323,0 h 15.73324 m 15.73323,0 h 15.73323 m 15.73324,0 h 15.73323 m -440.53062,15.73325 h 15.73323 m 31.46647,0 h 31.46647 m 15.73324,0 h 15.73323 m 15.73323,0 h 62.93294 m 62.933,0 h 141.59911 m -267.46505,15.73322 h 15.73324 m 31.46647,0 h 15.73323 m 15.7333,0 h 15.73317 m 15.7333,0 h 31.46647 m 31.46646,0 h 31.46647 m 47.19971,0 h 15.73323 m 15.73323,0 h 47.19971 m -456.26386,15.73322 h 110.13264 m 31.46647,0 h 62.933 m 15.73317,0 h 62.933 m 15.73323,0 h 31.46647 m 15.73324,0 h 15.73323 m 15.73324,0 h 31.46646 m 15.73324,0 h 31.46647 m -456.26386,15.73325 h 15.73323 m 78.66618,0 h 15.73323 m 47.1997,0 h 15.73324 m 15.73323,0 h 47.19977 m 15.73323,0 h 78.66617 m 47.19971,0 h 31.46646 m 15.73324,0 h 15.73323 m -440.53062,15.73321 h 15.73323 m 15.73324,0 h 47.1997 m 15.73324,0 h 15.73323 m 15.73323,0 h 15.73324 m 15.73323,0 h 47.19977 m 15.73317,0 h 31.46653 m 31.46647,0 h 15.73323 m 15.73318,0 h 78.66623 m 31.46647,0 h 15.73323 M 271.86807,673.0656 h 15.73323 m 15.73324,0 h 47.1997 m 15.73324,0 h 15.73323 m 31.46647,0 h 15.73323 m 62.93294,0 h 31.46653 m 47.1997,0 h 31.46647 m 31.46647,0 h 31.46647 m 15.73323,0 h 15.73324 m -424.79739,15.73324 h 15.73323 m 15.73324,0 h 47.1997 m 15.73324,0 h 15.73323 m 15.73323,0 h 15.73324 m 15.73323,0 h 78.66624 m 31.46647,0 h 15.73323 m 15.73323,0 h 15.73318 m 47.19976,0 h 47.1997 m 31.46647,0 h 15.73324 m -456.26386,15.73322 h 15.73323 m 78.66618,0 h 15.73323 m 94.39947,0 h 15.73317 m 15.7333,0 h 15.73323 m 47.1997,0 h 31.46647 m 15.73324,0 h 15.73323 m 62.93294,0 h 15.73323 M 271.86807,720.2653 h 110.13264 m 15.73323,0 h 15.73324 m 15.73323,0 h 15.73324 m 15.73323,0 h 31.46647 m 31.46653,0 h 15.73324 m 31.46646,0 h 47.19971 m 15.73323,0 h 15.73324 m 47.1997,0 h 31.46647"
     id="path3727" />
  <path
     d="m 681.77554,814.08132 c 64.33984,0 116.49822,-52.15838 116.49822,-116.49822 0,-64.34018 -52.15838,-116.49823 -116.49822,-116.49823 -64.34018,0 -116.49823,52.15805 -116.49823,116.49823 0,64.33984 52.15805,116.49822 116.49823,116.49822 z"
     stroke-miterlimit="10"
     id="path3771-8"
     inkscape:connector-curvature="0"
     style="fill:#ffffff;fill-opacity:1;stroke:#ffffff;stroke-width:4.39367247;stroke-miterlimit:10" />
  <path
     d="m 684.88193,806.4953 c 58.575,0 106.06,-47.485 106.06,-106.06 0,-58.5753 -47.485,-106.06 -106.06,-106.06 -58.5753,0 -106.06,47.4847 -106.06,106.06 0,58.575 47.4847,106.06 106.06,106.06 z"
     stroke-miterlimit="10"
     id="path3771"
     inkscape:connector-curvature="0"
     style="fill:#4e6891;stroke:#ffffff;stroke-width:4;stroke-miterlimit:10" />
  <path
     d="m 672.95193,639.7953 -14.69,2.85 -0.76,-6.12 10.65,-1.14 -0.86,-7.96 -18.73,2.01 7.38,59.58 -44.29,7.98 1.42,7.88 51.74,-9.33 -5.57,-44.95 6.92,-1.34 6.04,44.39 7.92,-1.08 z"
     id="path3773"
     inkscape:connector-curvature="0"
     style="fill:#ffffff" />
  <path
     d="m 718.17193,665.5153 -26.41,4.79 -3.04,-17.96 25.88,-3.45 -1.05,-7.93 -26.17,3.49 -2.14,-12.62 29.28,-4.61 -1.24,-7.9 -37.28,5.87 9.22,54.42 34.38,-6.23 z"
     id="path3775"
     inkscape:connector-curvature="0"
     style="fill:#ffffff" />
  <path
     d="m 746.84193,683.4553 7.91,-1.2 -7.75,-51.19 -13.61,2.92 -1.48,-8.69 11.45,-1.74 -1.2,-7.91 -19.51,2.97 10,58.66 -45.48,8.71 1.51,7.86 53.17,-10.18 -7.12,-41.78 5.63,-1.21 z"
     id="path3777"
     inkscape:connector-curvature="0"
     style="fill:#ffffff" />
  <path
     d="m 628.23533,685.6636 c 9.6033,-1.4301 15.8049,-13.2218 13.8518,-26.3375 -1.9532,-13.1157 -11.3215,-22.5888 -20.9248,-21.1587 -9.6032,1.43 -15.8049,13.2217 -13.8517,26.3375 1.9531,13.1157 11.3214,22.5884 20.9247,21.1587 z"
     stroke-miterlimit="10"
     id="path3779"
     inkscape:connector-curvature="0"
     style="stroke:#ffffff;stroke-width:8;stroke-miterlimit:10" />
  <path
     d="m 682.74193,712.3953 -17.84,2.63 1.67,14.94 5.15,45.93 -34.09,4.87"
     stroke-miterlimit="10"
     id="path3781"
     inkscape:connector-curvature="0"
     style="stroke:#ffffff;stroke-width:8;stroke-miterlimit:10" />
  <path
     d="m 687.46193,774.3153 -4.72,-46.7 -16.17,2.35"
     stroke-miterlimit="10"
     id="path3783"
     inkscape:connector-curvature="0"
     style="stroke:#ffffff;stroke-width:8;stroke-miterlimit:10" />
  <path
     d="m 726.86193,706.0553 -31.53,4.77 2.63,26.5 31.22,-2.63"
     stroke-miterlimit="10"
     id="path3785"
     inkscape:connector-curvature="0"
     style="stroke:#ffffff;stroke-width:8;stroke-miterlimit:10" />
  <path
     d="m 728.13193,720.2653 -31.48,3.89"
     stroke-miterlimit="10"
     id="path3787"
     inkscape:connector-curvature="0"
     style="stroke:#ffffff;stroke-width:8;stroke-miterlimit:10" />
  <path
     d="m 698.55193,748.5953 4.26,22.32 c 0,0 10.63,2.89 10.89,1.84 0.26,-1.05 13.38,-10.77 13.38,-10.77 l 20.73,3.95"
     stroke-miterlimit="10"
     id="path3789"
     inkscape:connector-curvature="0"
     style="stroke:#ffffff;stroke-width:8;stroke-miterlimit:10" />
  <path
     d="m 754.11193,701.9053 -13.12,1.57 3.14,37 -22.47,9.4"
     stroke-miterlimit="10"
     id="path3791"
     inkscape:connector-curvature="0"
     style="stroke:#ffffff;stroke-width:8;stroke-miterlimit:10" />
  <path
     d="m 761.45193,769.5953 -3.67,-50.73 -15.65,-1.97"
     stroke-miterlimit="10"
     id="path3793"
     inkscape:connector-curvature="0"
     style="stroke:#ffffff;stroke-width:8;stroke-miterlimit:10" />
  <path
     d="m 621.20193,774.0553 -9.49,-55.41 37.96,-4.66 7.96,55.39 z m -0.19,-48.49 6.78,39.58 20.77,-2.67 -5.69,-39.59 z"
     id="path3795"
     inkscape:connector-curvature="0"
     style="fill:#ffffff" />
  <ellipse
     id="path3922"
     cx="128.64999"
     cy="534.80164"
     rx="36.70813"
     ry="30.875998" />
  <ellipse
     id="path3924"
     cx="-8.5766659"
     cy="548.52429"
     rx="53.861462"
     ry="26.073065" />
  <path
     sodipodi:type="star"
     id="path3926"
     sodipodi:sides="5"
     sodipodi:cx="-74.788528"
     sodipodi:cy="398.26111"
     sodipodi:r1="98.83416"
     sodipodi:r2="49.41708"
     sodipodi:arg1="0.70184927"
     sodipodi:arg2="1.3301678"
     inkscape:flatsided="false"
     inkscape:rounded="0"
     inkscape:randomized="0"
     d="m 0.68613303,462.0715 -63.69792403,-15.8171 -49.141079,43.50587 -4.64078,-65.46808 -56.56197,-33.29188 60.82976,-24.6444 14.183857,-64.08139 42.235644,50.23701 65.3280765,-6.31259 -34.7266995,55.69257 z"
     inkscape:transform-center-x="7.2784237"
     inkscape:transform-center-y="-2.243711" />
</svg>
