<?xml version="1.0" encoding="UTF-8"?>
<svg id="Layer_1" data-name="Layer 1" xmlns="http://www.w3.org/2000/svg" viewBox="0 0 864 864">
  <defs>
    <style>
      .cls-1, .cls-2 {
        stroke-width: 0px;
      }

      .cls-1, .cls-3 {
        fill: #f80207;
      }

      .cls-4 {
        letter-spacing: 0em;
      }

      .cls-5 {
        letter-spacing: -.07em;
      }

      .cls-2 {
        fill: #0384df;
      }

      .cls-3 {
        font-family: Helvetica-BoldOblique, Helvetica;
        font-size: 106.03px;
        font-style: oblique;
        font-weight: 700;
        stroke: #0384df;
        stroke-linejoin: round;
        stroke-width: 3px;
      }
    </style>
  </defs>
  <rect class="cls-2" width="864" height="864"/>
  <g>
    <path class="cls-1" d="M864,0C576,0,288,0,0,0v4.69c287.86-2.28,576.14-2.28,864,0V0Z"/>
    <path class="cls-1" d="M864,18.73c-77.87-1.86-156.1,1.95-234,2.64-66.01.58-132.02-2.79-198.03-2.79-67.53,0-135.07,3.5-202.59,2.69-76.33-.92-153.07-4.38-229.38-2.54v5.01c76.29-2.08,153.06,2.91,229.38,3.87,67.54.86,135.04-4.04,202.59-4.05,66.21,0,132.36,4.7,198.55,4.15,77.72-.65,155.8-6.07,233.48-3.98v-5.01Z"/>
    <path class="cls-1" d="M864,37.47c-77.19-2.29-154.33,8.71-231.62,8.84-66.93.12-133.43-9.05-200.42-9.05-67.7,0-134.93,9.6-202.58,8.96C152.92,45.49,76.39,35.18,0,37.47v5.32c76.5-2.21,152.78,10.58,229.38,11.08,67.73.44,134.78-11.28,202.58-11.29,67.38,0,134.01,11.41,201.3,11.36,77.12-.06,153.75-13.35,230.73-11.15v-5.32Z"/>
    <path class="cls-1" d="M864,56.2c-76.64-1.64-151.25,19.04-228.16,17.87-68.42-1.04-135.28-18.06-203.87-18.06-68.18,0-134.55,17.74-202.59,18.05C152.24,74.42,76.96,54.54,0,56.2v5.63c77.21-1.3,151.94,21.88,229.38,21.06,68.21-.73,134.19-21.23,202.59-21.23,69.19,0,136.12,19.57,205.08,21.19,76.87,1.8,150.43-22.3,226.96-21.02v-5.63Z"/>
    <path class="cls-1" d="M864,74.93c-76.28-.2-147.05,32.47-223.92,28.97-70.31-3.2-137.39-29.08-208.1-29.08-69.01,0-133.92,27.35-202.6,29.22C151.15,106.16,77.87,74.72,0,74.93v5.95c78.18.38,150.77,35.79,229.38,32.99,68.93-2.45,133.26-33.07,202.61-33.07,71.46,0,138.62,28.87,209.57,32.88,76.9,4.35,146.27-32.42,222.45-32.8v-5.95Z"/>
    <path class="cls-1" d="M864,93.66c-75.95,1.75-142.13,47.65-219.17,41.38-72.34-5.89-139.71-41.4-212.84-41.38-70.15.02-133.11,37.88-202.62,41.7C149.97,139.73,78.8,95.47,0,93.66v6.26c79.05,2.55,149.61,51.26,229.38,46.08,69.82-4.54,132.05-46,202.63-46.04,73.94-.04,141.47,38.79,214.48,45.65,77.13,7.25,141.68-43.21,217.52-45.69v-6.26Z"/>
    <path class="cls-1" d="M864,112.4c-75.57,3.96-136.82,63.55-214.2,54.35-74.27-8.83-142.21-54.3-217.78-54.23-71.5.07-132.19,48.75-202.65,54.75C148.98,174.11,79.45,116.47,0,112.4v6.58c79.6,4.88,148.7,67.21,229.38,59.49,70.79-6.77,130.65-59.24,202.65-59.33,76.41-.1,144.61,48.87,219.51,58.73,77.54,10.21,137.02-54.16,212.46-58.9v-6.58Z"/>
    <path class="cls-1" d="M864,131.13c-75.2,6.11-131.4,79.16-209.3,67.14-76-11.73-144.74-67.05-222.65-66.9-72.97.14-131.24,59.45-202.67,67.61C148.26,208.26,79.78,137.42,0,131.13v6.89c79.85,7.02,148.04,82.53,229.38,72.42,71.79-8.92,129.15-71.98,202.68-72.15,78.72-.18,147.8,58.64,224.37,71.37,78.16,12.99,132.49-64.81,207.58-71.64v-6.89Z"/>
    <path class="cls-1" d="M864,149.86c-74.99,7.92-126.06,93.51-204.77,78.98-42.29-7.81-81.68-28.69-120.66-45.93-32.69-14.46-69.92-32.83-106.5-32.72-74.49.22-130.27,69.43-202.69,79.54-37.47,5.23-73.55-13.74-105.68-30.73-39.85-21.08-77.94-44.49-123.7-49.14v7.2c46.12,4.99,84.01,29.65,123.7,51.72,31.8,17.69,68.03,37.91,105.68,32.35,72.8-10.75,127.62-83.46,202.69-83.71,36.86-.12,74.54,19.41,107.17,34.45,39.19,18.06,78.83,40.02,121.58,48.32,79.12,15.37,128.17-74.67,203.18-83.13v-7.2Z"/>
    <path class="cls-1" d="M864,168.59c-75.21,9.1-120.95,105.67-200.88,89.14-43.45-8.99-83.44-32.55-122.92-51.82-32.56-15.89-70.84-37.08-108.13-36.94-76,.29-129.27,78.17-202.7,89.76-37.96,5.99-74.34-15.99-105.68-34.69-39.4-23.51-77.01-50.06-123.7-55.46v7.52c47.04,5.55,84.47,33.26,123.7,57.59,31.09,19.29,67.5,42.22,105.68,36.01,73.84-12.01,126.1-92.92,202.7-93.22,37.56-.15,76.14,21.95,108.67,38.34,39.62,19.97,79.84,44.51,123.69,53.85,80.56,17.15,124.09-83.24,199.57-92.57v-7.52Z"/>
    <path class="cls-1" d="M864,187.33c-76.13,9.36-116.23,114.69-197.93,96.85-44.4-9.69-84.9-35.58-124.68-56.43-32.52-17.05-71.36-40.21-109.32-40.05-77.46.31-128.2,85.15-202.69,97.54-38.55,6.41-74.85-17.57-105.68-37.66-38.96-25.39-76.17-54.66-123.7-60.24v7.83c47.84,5.43,84.91,35.69,123.7,61.68,30.74,20.6,66.84,45,105.68,38.54,74.97-12.46,124.64-99.58,202.69-99.89,38.23-.15,77.1,23.5,109.66,40.95,39.85,21.36,80.53,48.09,125.24,57.89,82.64,18.11,120.25-90.06,197.04-99.18v-7.83Z"/>
    <path class="cls-1" d="M864,206.06c-77.99,8.35-112.05,119.55-196.2,101.37-45.06-9.73-85.95-37.49-125.81-59.38-32.65-17.93-71.35-41.87-109.94-41.73-78.83.28-127.03,89.88-202.67,102.12-39.27,6.36-74.93-18.12-105.68-39.36-38.55-26.62-75.47-58.06-123.7-63.02v8.14c48.47,4.39,85.3,36.55,123.7,63.49,30.89,21.67,66.06,45.77,105.68,39.62,76.15-11.81,123.29-102.67,202.66-102.92,38.85-.12,77.22,23.7,110,41.93,39.81,22.13,80.83,50.54,126.06,60.03,85.41,17.93,116.81-94.73,195.9-102.15v-8.14Z"/>
    <path class="cls-1" d="M864,224.79c-79.82,6.94-109.28,119.89-195.59,102.62-45.37-9.08-86.45-38.41-126.03-60.89-32.92-18.7-70.78-42.32-110-42.12-79.98.4-125.71,92.41-202.46,103.62-39.65,5.79-74.79-18.23-105.8-39.76-38.49-26.72-75.72-59.07-124.12-63.47v8.46c48.44,4.48,86.19,36.86,124.96,63.37,31.18,21.32,66.57,45.44,106.24,39.8,77.11-10.96,121.65-104.35,202.07-104.84,39.48-.24,77.05,23.57,109.97,42.73,39.37,22.91,80.44,53.14,125.95,62.09,86.71,17.05,114.75-96.39,194.83-103.14v-8.46Z"/>
    <path class="cls-1" d="M864,243.52c-80.12,6.62-106.35,121.11-193.31,103.94-45.69-9.02-86.71-40.52-125.81-64.12-32.78-19.78-70.13-44.23-109.89-43.95-80.9.56-123.88,96.14-201.34,107.06-39.74,5.6-75.68-18.72-107.15-39.75-39.29-26.26-77.84-58.63-126.51-63.19v8.77c49,4.59,88.35,36.94,128.25,62.99,31.77,20.75,68.38,45.31,108.22,39.63,77.7-11.09,119.23-108.96,200.52-109.53,39.97-.28,77.23,25.02,109.79,45.38,38.86,24.3,79.78,57.01,125.66,66.29,86.99,17.59,111.61-98.17,191.56-104.75v-8.77Z"/>
    <path class="cls-1" d="M864,262.26c-79.56,6.61-102.27,124.15-189.13,105.79-46.11-9.75-86.89-43.97-125.45-69.19-32.2-21.06-69.46-47.64-109.65-47.37-81.71.54-121.49,101.41-199.41,112.9-40,5.9-77.56-19.02-109.73-39.42C89.91,299.14,49.51,266.87,0,262.26v9.08c50.09,4.62,91.53,36.8,133.13,62.42,32.58,20.07,71.17,45.35,111.35,39.17,78.05-12.01,116.16-115.94,198.24-116.42,40.37-.24,77.71,27.79,109.5,49.5,38.3,26.15,78.91,61.85,125.25,72.18,86.57,19.3,107.52-100.15,186.55-106.85v-9.08Z"/>
    <path class="cls-1" d="M864,280.99c-78.31,6.84-97.35,128.56-183.49,108.06-46.61-11.09-87-48.45-125-75.66-31.28-22.4-68.78-52.21-109.32-52.02-82.44.38-118.72,107.84-196.86,120.55-40.38,6.57-80.21-19.15-113.26-38.85C93.45,317.66,50.81,285.6,0,280.99v9.4c51.59,4.58,95.46,36.51,139.17,61.72,33.53,19.34,74.69,45.52,115.3,38.5,78.16-13.51,112.65-124.64,195.4-124.91,40.69-.13,78.41,31.63,109.13,54.69,37.72,28.31,77.86,67.35,124.75,79.31,85.58,21.82,102.79-102.29,180.25-109.31v-9.4Z"/>
    <path class="cls-1" d="M864,299.72c-76.51,7.22-91.92,133.84-176.84,110.61-47.17-12.9-87.04-53.66-124.48-83.11-30.12-23.69-68.09-57.57-108.92-57.51-83.03.13-115.75,115.08-193.88,129.48-40.83,7.53-83.44-19.15-117.45-38.12C97.58,336.05,52.44,304.27,0,299.72v9.71c53.37,4.5,99.87,36.12,145.95,60.93,34.51,18.58,78.7,45.79,119.78,37.7,39.83-7.85,70.69-47.46,97.6-74.84,24.93-25.37,56.07-59.59,94.63-59.57,40.97.01,79.24,36.25,108.7,60.57,37.15,30.67,76.72,73.25,124.2,87.22,35.89,10.56,63.36-9.92,84.11-37.21,25.09-33,43.6-70.3,89.04-74.79v-9.71Z"/>
    <path class="cls-1" d="M864,318.45c-45.26,4.67-62.73,42.51-86.83,75.82-19.96,27.58-47.08,48.72-82.81,37.5-47.78-15-87.03-59.29-123.93-91.11-28.83-24.86-67.4-63.39-108.49-63.47-38.59-.08-69.68,35.98-93.91,61.7-26.39,28.01-56.83,69.04-96.75,77.41-41.29,8.65-87.02-19.07-121.99-37.29-47.24-24.62-95.02-56.09-149.29-60.54v10.03c55.3,4.4,104.49,35.69,153.03,60.11,35.47,17.84,82.96,46.13,124.48,36.84,40.01-8.95,69.98-51.58,95.79-80.28,23.45-26.06,54.48-64.22,93.11-64.07,41.23.16,80.12,41.3,108.25,66.73,36.62,33.09,75.52,79.27,123.63,95.46,35.56,11.97,62.27-9.92,81.35-37.81,23-33.62,39.31-72.1,84.36-76.97v-10.03Z"/>
    <path class="cls-1" d="M864,337.19c-44.89,5.05-60.18,44.09-82.22,77.97-18.32,28.15-44.67,50.69-80.1,38.09-48.39-17.21-86.98-65.02-123.36-99.21-27.54-25.88-66.7-69.3-108.05-69.53-38.67-.21-69.63,39.78-92.42,66.12-25.33,29.27-54.87,73.3-94.97,82.75-41.7,9.83-90.73-18.94-126.61-36.45C106.6,372.68,56.19,341.54,0,337.19v10.34c57.23,4.3,109.05,35.27,160,59.3,36.35,17.14,87.18,46.47,129.09,36,40.21-10.04,69.26-55.7,94.02-85.62,22.04-26.64,52.88-68.77,91.62-68.49,41.51.3,80.96,46.4,107.82,72.78,36.11,35.46,74.34,85.16,123.06,103.57,35.3,13.34,61.22-9.97,78.65-38.41,20.93-34.14,35.04-73.87,79.75-79.12v-10.34Z"/>
    <path class="cls-1" d="M864,355.92c-44.59,5.4-57.77,45.68-77.82,80.02-16.73,28.66-42.31,52.57-77.52,38.68-48.98-19.33-86.92-70.54-122.82-106.98-26.34-26.74-65.99-74.96-107.63-75.31-38.79-.33-69.52,43.48-90.99,70.34-24.32,30.43-52.98,77.39-93.27,87.87-42.06,10.94-94.32-18.81-131.02-35.66C110.96,391.02,58.05,360.18,0,355.92v10.65c59.03,4.23,113.25,34.9,166.42,58.55,37.1,16.5,91.08,46.75,133.31,35.27,40.42-10.99,68.59-59.56,92.38-90.58,20.8-27.12,51.35-72.93,90.25-72.55,41.82.41,81.68,51.14,107.42,78.32,35.63,37.63,73.22,90.69,122.54,111.1,35.13,14.54,60.3-10.08,76.19-39.01,18.99-34.57,31.02-75.54,75.5-81.1v-10.65Z"/>
    <path class="cls-1" d="M864,374.65c-44.42,5.67-55.63,47.13-73.87,81.86-15.29,29.11-40.18,54.23-75.27,39.26-49.55-21.14-86.9-75.55-122.33-114-25.33-27.49-65.28-79.99-107.27-80.43-39-.41-69.38,46.78-89.73,74.1-23.41,31.42-51.23,81.15-91.74,92.48-42.35,11.84-97.53-18.74-134.91-35-54.02-23.5-109.16-54.05-168.88-58.27v10.97c60.54,4.22,116.82,34.62,171.87,57.92,37.72,15.97,94.35,46.93,136.84,34.71,40.65-11.69,68.04-62.91,90.97-94.82,19.82-27.58,49.92-76.41,89.1-75.98,42.22.47,82.22,55.08,107.09,82.97,35.17,39.45,72.22,95.62,122.08,117.59,35.07,15.45,59.62-10.26,74.17-39.6,17.32-34.94,27.48-77.02,71.88-82.79v-10.97Z"/>
    <path class="cls-1" d="M864,393.38c-44.43,5.8-53.92,48.29-70.66,83.36-14.07,29.49-38.44,55.54-73.51,39.84-50.08-22.42-86.95-79.78-121.93-119.84-24.59-28.16-64.56-84.03-106.98-84.51-39.33-.44-69.21,49.35-88.72,77.13-22.62,32.2-49.74,84.4-90.49,96.27-42.58,12.41-100.08-18.77-138.01-34.55-55.68-23.16-112.66-53.47-173.71-57.71v11.28c61.63,4.29,119.49,34.49,175.91,57.45,38.19,15.54,96.66,46.93,139.36,34.4,40.9-12,67.69-65.49,89.9-98.04,19.17-28.09,48.68-78.92,88.27-78.49,42.74.47,82.56,57.76,106.86,86.32,34.69,40.77,71.37,99.76,121.74,122.59,35.11,15.92,59.28-10.48,72.77-40.18,16.02-35.28,24.63-78.25,69.18-84.05v-11.28Z"/>
    <path class="cls-1" d="M864,412.12c-44.68,5.74-52.8,48.98-68.44,84.4-13.17,29.83-37.28,56.36-72.44,40.41-50.55-22.93-87.14-82.93-121.64-124.05-24.18-28.82-63.82-86.74-106.8-87.19-39.81-.42-69.03,50.84-88.06,79.16-21.97,32.72-48.58,86.96-89.6,98.96-42.79,12.51-101.69-18.95-140.01-34.36-56.8-22.84-115.11-52.97-177.02-57.32v11.59c62.15,4.48,120.96,34.53,178.13,57.2,38.49,15.26,97.68,46.71,140.58,34.42,41.2-11.8,67.61-67.05,89.27-99.93,18.93-28.73,47.67-80.17,87.86-79.8,43.41.4,82.63,58.72,106.76,87.97,34.18,41.43,70.72,102.89,121.52,125.65,35.27,15.8,59.38-10.73,72.19-40.75,15.21-35.66,22.7-79.17,67.68-84.75v-11.59Z"/>
    <path class="cls-1" d="M864,430.85c-45.22,5.44-52.42,49.02-67.48,84.85-12.67,30.14-36.87,56.53-72.22,40.96-50.93-22.43-87.52-84.72-121.49-126.2-24.18-29.53-63.05-87.74-106.76-88.08-40.46-.32-68.88,50.91-87.83,79.93-21.5,32.92-47.86,88.67-89.17,100.23-42.96,12.02-102.08-19.34-140.64-34.53C121.14,465.45,62.16,435.44,0,430.85v11.91c62.15,4.48,121.07,34.6,178.27,57.24,38.55,15.26,97.75,46.74,140.7,34.38,41.19-11.85,67.26-66.65,88.82-99.6,18.89-28.88,47.39-79.89,87.66-79.64,43.4.26,82.76,58.75,106.9,87.94,34.27,41.42,71.04,103.16,121.94,125.83,35.43,15.79,59.42-10.67,72.1-40.9,15.01-35.77,22.27-80.19,67.61-85.24v-11.91Z"/>
    <path class="cls-1" d="M864,449.58c-45.46,4.91-52.77,49.9-67.77,85.7-12.7,30.3-36.56,56.91-72.12,41.03-50.92-22.74-87.88-84.13-122.36-125.48-24.21-29.03-63.84-87.51-107.13-87.74-40.11-.21-68.57,50.44-87.42,79.22-21.54,32.89-47.41,87.05-88.46,98.96-42.95,12.47-102.1-19.05-140.65-34.36C120.97,484.21,62.12,454.01,0,449.58v12.22c62.03,4.39,120.71,34.74,177.66,57.55,38.51,15.42,97.45,46.97,140.42,34.45,40.68-11.85,66.14-64.75,87.56-97.36,18.77-28.58,46.97-78.23,86.75-78.04,43.18.2,83.31,58.4,107.77,87.21,34.96,41.17,72.37,101.9,123.4,124.63,35.88,15.98,59.52-11.05,72.27-41.56,15.02-35.93,22.44-82.07,68.17-86.88v-12.22Z"/>
    <path class="cls-1" d="M864,468.31c-45.9,4.82-53.4,51.63-68.44,87.68-12.78,30.64-36.31,57.98-72.42,41.97-51.13-22.67-88.83-83.02-124.08-124.07-24.66-28.71-65.05-86.64-108.23-86.83-39.57-.18-67.56,48.76-86.28,77.21-21.31,32.39-46.53,84.54-86.96,96.29-42.99,12.49-101.74-19.05-140.23-34.54C120.52,503.14,61.96,472.7,0,468.31v12.53c61.79,4.4,120.1,35.04,176.68,58.06,38.44,15.64,96.73,47.13,139.77,34.82,39.85-11.39,64.55-61.99,85.59-93.86,18.61-28.19,46.08-75.47,85.2-75.28,43.24.21,84.14,57.39,109.29,85.96,35.88,40.75,74.23,100.36,125.61,122.81,36.64,16.01,59.94-12.05,72.8-43,15.1-36.34,22.79-84.56,69.06-89.52v-12.53Z"/>
    <path class="cls-1" d="M864,487.05c-46.49,5.08-54.27,54.03-69.42,90.56-12.9,31.12-36.1,59.59-73.04,43.61-51.53-22.29-90.25-81.52-126.46-122.11-25.44-28.52-66.58-85.24-109.89-85.46-38.87-.2-66.02,46.13-84.58,74.18-20.88,31.55-45.3,81.33-84.83,92.5-43.06,12.16-101.08-19.28-139.49-35C119.85,522.21,61.69,491.46,0,487.05v12.85c61.47,4.48,119.3,35.45,175.41,58.73,38.35,15.91,95.7,47.22,138.83,35.44,38.79-10.6,62.6-58.59,83.09-89.41,18.44-27.73,44.85-71.89,83.17-71.65,43.52.28,85.16,55.9,111.29,84.33,36.96,40.21,76.51,98.62,128.39,120.52,37.62,15.88,60.6-13.53,73.61-45.03,15.26-36.95,23.26-87.5,70.22-92.92v-12.85Z"/>
    <path class="cls-1" d="M864,505.78c-47.19,5.61-55.3,56.92-70.61,94.09-13.06,31.69-35.94,61.57-73.9,45.75-52.06-21.7-92.01-79.73-129.33-119.75-26.48-28.4-68.34-83.46-111.98-83.76-38.04-.27-64.08,42.83-82.47,70.4-20.31,30.45-43.82,77.59-82.24,87.89-43.17,11.58-100.18-19.66-138.5-35.66-55.95-23.37-113.62-54.44-174.97-58.96v13.16c61.09,4.61,118.37,35.93,173.94,59.5,37.83,16.04,94.86,47.67,137.7,36.2,37.67-10.08,60.19-54.45,80.24-84.33,18.25-27.2,43.43-67.77,80.81-67.44,43.97.39,86.29,54.09,113.62,82.43,38.16,39.57,79.05,96.73,131.54,117.93,38.74,15.65,61.42-15.33,74.6-47.46,15.46-37.69,23.82-90.74,71.54-96.83v-13.16Z"/>
    <path class="cls-1" d="M864,524.51c-47.95,6.31-56.43,60.11-71.95,98.03-13.23,32.33-35.82,63.78-74.91,48.22-52.69-20.97-93.99-77.76-132.51-117.13-27.7-28.32-70.21-81.41-114.34-81.85-37.09-.37-61.9,39.11-80.09,66.14-19.86,29.51-42.07,73-79.37,82.77-42.88,11.23-99.55-20.32-137.35-36.45-55.4-23.65-112.52-55.08-173.49-59.73v13.48c60.68,4.76,117.38,36.46,172.38,60.31,37.73,16.37,93.5,47.68,136.48,37.05,70.02-17.31,77.95-142.83,155.51-141.86,44.52.56,87.46,52.14,116.11,80.41,39.42,38.88,81.72,94.76,134.89,115.18,39.92,15.33,62.32-17.28,75.68-50.09,15.69-38.51,24.44-94.12,72.95-101v-13.48Z"/>
    <path class="cls-1" d="M864,543.24c-48.73,7.1-57.59,63.41-73.35,102.16-13.42,33-35.74,66.05-75.98,50.82-53.36-20.2-96.06-75.72-135.82-114.41-29.03-28.24-72.12-79.23-116.81-79.84-76.92-1.05-84.48,122.34-153.96,139.1-43.02,10.38-98.42-20.83-136.13-37.29-54.83-23.93-111.37-55.73-171.94-60.54v13.79c60.28,4.92,116.39,36.99,170.81,61.13,37.66,16.71,92.11,47.64,135.25,37.9,68.04-15.36,74.74-133.19,149.95-131.93,45.11.75,88.59,50.2,118.61,78.38,40.68,38.18,84.39,92.78,138.24,112.42,41.07,14.98,63.21-19.23,76.77-52.72,15.93-39.35,25.07-97.5,74.37-105.17v-13.79Z"/>
    <path class="cls-1" d="M864,561.98c-49.5,7.88-58.73,66.67-74.73,106.23-13.61,33.66-35.68,68.27-77.04,53.38-54.03-19.45-98.09-73.72-139.09-111.72-30.37-28.14-73.97-77.06-119.24-77.86-74.59-1.33-81.03,114.56-148.55,129.43-43.18,9.51-97.29-21.31-134.94-38.12-54.27-24.22-110.23-56.38-170.42-61.34v14.1c59.91,5.05,115.47,37.48,169.34,61.9,37.62,17.06,90.81,47.59,134.11,38.68,66.03-13.59,71.85-124.09,144.71-122.59,45.66.95,89.64,48.45,120.95,76.47,41.9,37.5,86.91,90.85,141.42,109.81,42.13,14.65,64.02-21.04,77.77-55.17,16.16-40.13,25.66-100.71,75.7-109.11v-14.1Z"/>
    <path class="cls-1" d="M864,580.71c-50.21,8.54-59.8,69.7-76.01,110-13.78,34.27-35.62,70.29-77.99,55.71-54.65-18.81-99.96-71.87-142.14-109.21-31.6-27.97-75.7-75.05-121.48-76.04-72.3-1.56-77.98,107.26-143.53,120.47-43.34,8.73-96.25-21.71-133.86-38.85-53.74-24.49-109.17-57-169-62.08v14.42c59.6,5.14,114.66,37.89,168.05,62.57,37.6,17.38,89.72,47.57,133.16,39.31,64.1-12.19,69.48-116.09,140.13-114.41,46.08,1.09,90.57,47.02,122.98,74.81,43.01,36.88,89.16,89.06,144.23,107.5,43.03,14.4,64.69-22.55,78.59-57.23,16.34-40.77,26.19-103.63,76.87-112.55v-14.42Z"/>
    <path class="cls-1" d="M864,599.44c-50.81,8.99-60.73,72.35-77.1,113.23-13.93,34.8-35.54,71.99-78.74,57.63-55.18-18.35-101.56-70.27-144.79-107.03-32.61-27.73-77.23-73.37-123.38-74.49-70.19-1.7-75.53,100.84-139.22,112.79-43.47,8.16-95.39-21.97-132.98-39.42-53.29-24.73-108.25-57.56-167.79-62.71v14.73c59.37,5.15,114.04,38.2,167.04,63.1,37.57,17.65,88.93,47.63,132.48,39.7,62.4-11.36,67.79-109.72,136.54-108.01,46.29,1.15,91.36,46.08,124.53,73.54,43.94,36.37,90.99,87.49,146.48,105.64,96.4,31.54,76.56-159.64,156.92-173.97v-14.73Z"/>
    <path class="cls-1" d="M864,618.17c-80.57,14.33-60.53,206.17-157.15,174.64-55.56-18.13-102.75-69.04-146.87-105.32-33.28-27.37-78.49-72.19-124.78-73.33-68.41-1.68-73.85,95.68-135.94,106.95-43.57,7.91-94.82-22.05-132.39-39.75-52.94-24.94-107.54-58.05-166.87-63.19v15.04c59.26,5.07,113.66,38.35,166.41,63.43,37.54,17.85,88.57,47.83,132.18,39.79,61.08-11.26,66.95-105.53,134.27-103.99,46.18,1.06,91.96,45.76,125.45,72.77,44.66,36.01,92.27,86.2,148,104.39,97.24,31.75,76.47-162.35,157.7-176.39v-15.04Z"/>
    <path class="cls-1" d="M864,636.91c-81.36,13.9-60.42,208.49-157.75,176.62-55.75-18.25-103.43-68.27-148.19-104.24-33.49-26.91-79.42-71.67-125.54-72.69-67.11-1.49-73.13,92.19-134.01,103.53-43.61,8.12-94.64-21.89-132.17-39.76-52.72-25.11-107.09-58.43-166.34-63.47v15.36c59.19,5.45,113.31,38.24,166.09,63.28,37.25,17.68,88.9,48.16,132.15,39.51,59.88-11.98,67.9-103.85,133.93-102.46,45.58.95,92.31,46.15,125.57,72.5,45.11,35.74,92.66,84.45,148.22,103.29,95.57,32.39,78.25-161.47,158.04-176.11v-15.36Z"/>
    <path class="cls-1" d="M864,655.64c-78.89,15.21-63.75,207.77-158.35,175.4-55.42-18.97-102.83-67.14-147.98-102.73-33.21-26.19-80.07-71.32-125.48-72.3-65.67-1.41-74.62,89.94-134.21,102.03-43.06,8.73-94.91-21.83-132.05-39.36-52.81-24.93-106.82-57.35-165.92-63.03v15.67c58.43,6.3,111.78,36.77,164.47,60.86,36.85,16.85,88.82,46.82,131.17,38.04,58.57-12.13,72.46-99.91,136.61-98.42,44.55,1.04,91.44,44.81,124.51,70.1,45.05,34.44,91.76,79.8,146.22,98.7,42.75,14.84,64.88-22.84,80.28-56.92,18.34-40.57,31.11-101.43,80.73-112.37v-15.67Z"/>
    <path class="cls-1" d="M864,674.37c-49.4,11.01-62.56,70.85-81.23,111.24-15.66,33.88-38.01,71.08-80.53,56.36-54.22-18.77-100.78-63.54-145.76-97.66-33.07-25.09-79.85-68.4-124.22-69.44-63.89-1.5-78.85,85.37-137.28,97.43-42.24,8.72-94.08-20.96-130.92-37.67-52.62-23.87-105.82-53.92-164.07-60.26v15.98c57.05,6.18,109.35,33.86,161.41,56.29,36.94,15.92,87.49,43.39,129.27,35.2,57.95-11.36,78.92-92.48,141.6-90.97,43.39,1.04,89.14,41.08,122.27,64.99,44.41,32.05,90.12,73.43,142.86,91.01,41.21,13.74,64.83-19.99,82.15-52.65,20.71-39.04,36.15-93.17,84.45-103.88v-15.98Z"/>
    <path class="cls-1" d="M864,693.1c-48.11,10.55-63.99,63.64-85.1,102.38-17.66,32.41-41.52,65.41-82.48,51.89-52.45-17.3-98-58.05-142.28-89.69-33.15-23.69-78.65-63.03-121.87-64.07-62.5-1.51-84.56,78.47-142.48,89.66-41.71,8.06-91.95-18.93-128.93-34.7-51.93-22.14-104.06-49.38-160.86-55.48v16.3c55.21,5.37,106.21,29.86,157.23,50.06,37.33,14.77,85.27,38.4,126.65,31.31,57.95-9.93,86.72-82.35,148.36-80.9,42.12.99,85.78,35.61,119.13,57.8,43.37,28.84,87.89,65.66,138.45,80.93,39.44,11.91,64.8-16.25,84.7-46.82,23.78-36.53,42.43-83.19,89.47-92.37v-16.3Z"/>
    <path class="cls-1" d="M864,711.84c-46.89,8.93-65.97,54.59-90.19,90.73-20.27,30.24-45.85,57.63-85.06,45.99-50.26-14.92-94.61-51.12-137.83-79.51-33.39-21.94-76.73-55.78-118.68-56.76-61.54-1.44-91.33,69.75-149.32,79.46-41.33,6.92-88.89-16.14-126.28-30.75-50.87-19.87-101.69-43.94-156.63-49.16v16.61c53.05,4.11,102.57,25.12,152.28,42.66,37.79,13.33,82.58,32.33,123.55,26.67,58.46-8.08,95.26-70.27,156.36-68.98,40.71.86,81.71,29.11,115.36,49.14,42.08,25.05,85.25,56.83,133.31,69.17,85.21,21.88,106.67-107.12,183.15-118.66v-16.61Z"/>
    <path class="cls-1" d="M864,730.57c-76.59,11.12-99.18,137.57-184.21,116.23-47.77-11.99-90.78-43.19-132.71-67.79-33.69-19.76-74.37-47.28-114.91-48.11-61.07-1.26-98.75,59.72-157.3,67.58-40.92,5.49-85.35-12.97-123.18-26.12-49.55-17.22-98.89-37.83-151.69-41.79v16.93c50.72,2.65,98.65,19.99,146.87,34.6,38.09,11.54,79.78,25.7,120.15,21.6,59.42-6.03,103.96-57.01,165.07-56.02,39.15.64,77.32,22.24,111.23,39.65,40.69,20.89,82.37,47.31,127.75,56.45,83.31,16.79,115.67-88.73,192.93-96.28v-16.93Z"/>
    <path class="cls-1" d="M864,749.3c-77.28,7.16-110.77,110.39-193.87,94.11-45.13-8.84-86.66-34.74-127.22-55.22-33.92-17.14-71.83-38.12-110.83-38.73-61.14-.96-106.38,48.93-165.91,54.76-40.31,3.95-81.73-9.76-119.82-21.11-48.08-14.32-95.85-31.3-146.35-33.82v17.24c87.54,2.17,170.11,48.55,258.04,42.79,60.75-3.98,112.26-43.34,173.96-42.78,81.73.75,149.39,62.2,229.09,73.43,80.84,11.39,125.79-70.01,202.91-73.44v-17.24Z"/>
    <path class="cls-1" d="M864,768.03c-77.07,3.12-123.05,82.64-203.68,71.67-79.39-10.8-146.97-70.98-228.32-71.67-61.77-.52-113.78,37.93-174.65,41.75C169.65,815.29,87.31,770.01,0,768.03v17.55c84.34-.1,164.79,32.47,249.42,29.92,62.33-1.88,119.73-30.11,182.51-30.06,76.78.06,143.9,45.53,219.57,51.63,34.56,2.79,66.03-3.47,97.63-17.24,38.14-16.62,72.15-34.34,114.87-34.25v-17.55Z"/>
    <path class="cls-1" d="M864,786.77c-42.69-.19-76.95,17.15-115.25,33.39-31.73,13.45-63.28,19.47-97.82,16.8-75.42-5.82-142.53-50.32-219.01-50.34-62.86-.02-120.58,27.53-183.01,29.31C164.5,818.32,84.13,786.55,0,786.77v17.87c81.03-1.71,160.5,18.86,241.7,18.39,63.98-.37,126.03-18.21,190.17-18.64,72.21-.48,139.34,30.04,211.03,32.06,34.44.97,67.21-1.62,100.53-10.61,40.33-10.88,78.25-22.7,120.58-21.2v-17.87Z"/>
    <path class="cls-1" d="M864,805.5c-42.33-1.55-80.4,10.02-120.82,20.66-33.38,8.78-66.21,11.23-100.65,10.33-71.52-1.86-138.65-31.74-210.67-31.24-64.21.44-126.44,17.84-190.49,18.16C160.32,823.81,80.89,803.73,0,805.5v18.18c78.39-2.39,156.95,8.3,235.42,9.02,65.56.59,130.84-8.6,196.44-9.3,68.63-.73,135.59,16.43,204.02,16.03,34.59-.2,68.54-.35,102.88-5.21,41.89-5.92,82.74-12.69,125.24-10.54v-18.18Z"/>
    <path class="cls-1" d="M864,824.23c-42.51-2.15-83.43,4.48-125.35,10.28-34.37,4.75-68.34,4.85-102.94,5.08-68.36.44-135.3-16.37-203.85-15.63-65.64.7-130.99,9.68-196.59,9.06-78.4-.73-156.93-11.18-235.26-8.78v18.49c76.89-1.9,154.22,1.69,231.13,2.62,66.87.8,133.89-2.23,200.76-2.82,66.46-.59,132.73,5.92,199.15,4.9,77.34-1.18,155.69-7.88,232.95-4.69v-18.49Z"/>
    <path class="cls-1" d="M864,842.96c-77.29-3.16-155.64,3.41-233,4.59-66.4,1.02-132.66-5.38-199.11-4.8-66.89.59-133.92,3.56-200.8,2.76-76.9-.92-154.22-4.44-231.09-2.56v18.81h864v-18.81Z"/>
  </g>
  <text class="cls-3" transform="translate(-11 342.09)"><tspan x="0" y="0">TRANS</tspan><tspan class="cls-5" x="365.19" y="0">P</tspan><tspan class="cls-4" x="428.09" y="0">ARENTE</tspan></text>
</svg>