<svg width="710" height="369" viewBox="0 0 710 369" fill="none" xmlns="http://www.w3.org/2000/svg">
<rect x="0.5" y="20.5" width="709" height="289" fill="white" stroke="#D1CFC7"/>
<path d="M32.6992 60.0203C31.8764 59.4782 31.1009 58.9637 31.1009 57.953C31.1009 57.3558 31.4602 56.7219 32.4722 56.7219C33.3423 56.7219 33.8908 57.1629 34.0611 57.9898C34.0611 58.0082 34.08 58.0265 34.0989 58.0265H34.1651C34.1746 58.0265 34.184 58.0265 34.1935 58.0174C34.2029 58.0082 34.2029 57.999 34.2029 57.9898C34.1935 57.8244 34.1935 57.5396 34.1935 57.3742C34.1935 57.0894 34.2029 56.8873 34.2313 56.63C34.2313 56.6208 34.2313 56.6025 34.2219 56.5933C34.2124 56.5841 34.2029 56.5841 34.184 56.5841C34.1178 56.5933 34.0611 56.5933 33.9949 56.5933C33.7963 56.5933 33.5977 56.5565 33.3896 56.5198C33.1248 56.4738 32.8316 56.4187 32.4533 56.4187C31.1671 56.4187 30.2591 57.264 30.2591 58.4767C30.2591 59.7538 31.186 60.3602 32.075 60.9574C32.9356 61.5271 33.7395 62.0599 33.7395 63.1441C33.7395 64.1639 32.964 64.6233 32.1979 64.6233C31.3089 64.6233 30.4199 64.1456 30.4199 63.2452C30.4199 63.1717 30.4294 63.089 30.4388 63.0063V62.9695C30.4388 62.9603 30.4388 62.942 30.4294 62.942C30.4199 62.9328 30.4105 62.9328 30.401 62.9328H30.3632C30.3443 62.9328 30.3348 62.942 30.3253 62.9603C30.1929 63.2452 30.1835 63.5851 30.1835 63.6862C30.1835 63.8332 30.2024 63.971 30.2118 64.0996C30.2308 64.2282 30.2402 64.3385 30.2402 64.4671C30.2402 64.5682 30.2402 64.6968 30.2308 64.7519C30.2308 64.7611 30.2308 64.7795 30.2402 64.7887C30.2497 64.7979 30.2591 64.7979 30.278 64.7979C30.3443 64.7887 30.3726 64.7887 30.4483 64.7887C30.7036 64.7887 30.9117 64.8346 31.1292 64.8806C31.394 64.9357 31.6967 65 32.1223 65C33.5693 65 34.5812 64.0445 34.5812 62.6663C34.5718 61.2606 33.6166 60.6359 32.6992 60.0203Z" fill="#990000"/>
<path d="M48.919 60.7826C48.919 63.1531 47.7084 64.6231 45.7602 64.6231C43.8308 64.6231 42.6865 63.1623 42.6865 60.7091C42.6865 58.8808 43.4904 56.7401 45.7602 56.7401C47.2261 56.7401 48.919 57.7966 48.919 60.7826ZM45.8642 56.4093C43.1404 56.4093 41.5232 58.6143 41.5232 60.7459C41.5232 62.8223 43.1121 64.963 45.7696 64.963C48.1908 64.963 50.0918 63.0979 50.0918 60.7091C50.0823 58.302 48.2286 56.4093 45.8642 56.4093Z" fill="#990000"/>
<path d="M55.1894 58.9361C55.1894 59.7538 54.9624 60.8472 53.033 60.8472H52.494V56.8781C52.8344 56.7862 53.0614 56.7678 53.3262 56.7678C54.4517 56.777 55.1894 57.6223 55.1894 58.9361ZM57.5727 64.8163C56.8728 64.5866 56.0595 63.1717 55.4636 62.1426C55.1232 61.5546 54.8584 61.086 54.6598 60.9023C55.6717 60.5164 56.277 59.7355 56.277 58.7891C56.277 57.3558 55.1421 56.4279 53.383 56.4279C53.26 56.4279 53.0614 56.4371 52.8439 56.4371C52.598 56.4463 52.3237 56.4463 52.1251 56.4463C51.5955 56.4463 51.378 56.4463 50.9713 56.4187C50.9618 56.4187 50.9524 56.4187 50.9429 56.4279C50.9335 56.4371 50.9335 56.4463 50.9335 56.4555V56.5106C50.9335 56.529 50.9524 56.5473 50.9713 56.5473C51.378 56.6116 51.5198 56.7678 51.5198 57.5672V63.8148C51.5198 64.7428 51.3685 64.7703 50.9524 64.8346C50.9335 64.8346 50.9146 64.853 50.9146 64.8714V64.9265C50.9146 64.9357 50.9146 64.9449 50.924 64.9541C50.9335 64.9633 50.9429 64.9633 50.9524 64.9633C51.1983 64.9541 51.5388 64.9357 52.0022 64.9357C52.494 64.9357 52.9006 64.9541 53.052 64.9633C53.0614 64.9633 53.0709 64.9633 53.0803 64.9541C53.0898 64.9449 53.0898 64.9357 53.0898 64.9265V64.8714C53.0898 64.853 53.0709 64.8346 53.052 64.8346C52.6358 64.7703 52.4845 64.7428 52.4845 63.8148V61.1779H53.2127C53.3451 61.1779 53.5154 61.1595 53.7045 61.132C53.9126 61.3249 54.1585 61.7751 54.3098 62.0508C54.3382 62.1059 54.3666 62.161 54.3949 62.1978C55.8136 64.7795 55.9649 64.9357 57.2417 64.9816C57.3835 64.9816 57.4403 64.9816 57.5443 64.9724C57.5632 64.9724 57.5821 64.9541 57.5821 64.9357V64.8622C57.6011 64.8438 57.5916 64.8254 57.5727 64.8163Z" fill="#990000"/>
<path d="M41.6083 56.4091C41.5988 56.3999 41.5894 56.3907 41.5704 56.3907C41.003 56.3999 38.0144 56.4459 35.3379 56.3907C35.319 56.3907 35.3001 56.3999 35.3001 56.4183C35.2433 56.6296 35.196 56.8134 35.1393 56.9879C35.0731 57.2085 35.0163 57.4106 34.9691 57.6219C34.9691 57.6311 34.9691 57.6495 34.9785 57.6586C34.988 57.6678 34.9974 57.677 35.0069 57.677H35.0636C35.0825 57.677 35.092 57.6678 35.1015 57.6495C35.4514 56.9328 36.0094 56.9236 37.8442 56.9236V63.796C37.8442 64.724 37.6928 64.7515 37.2767 64.8158C37.2578 64.8158 37.2389 64.8342 37.2389 64.8526V64.9077C37.2389 64.9169 37.2389 64.9261 37.2483 64.9353C37.2578 64.9445 37.2672 64.9445 37.2767 64.9445C37.5131 64.9353 37.8536 64.9169 38.317 64.9169C38.8088 64.9169 39.2061 64.9353 39.3574 64.9445C39.3668 64.9445 39.3763 64.9445 39.3857 64.9353C39.3952 64.9261 39.3952 64.9169 39.3952 64.9077V64.8526C39.3952 64.8342 39.3763 64.8158 39.3574 64.8158C38.9507 64.7515 38.7899 64.724 38.7899 63.796V56.9236C40.899 56.9236 41.1827 57.0063 41.1827 57.3187C41.1827 57.3738 41.1732 57.4473 41.1638 57.4841C41.1638 57.4933 41.1638 57.5116 41.1732 57.5208C41.1827 57.53 41.1921 57.5392 41.2016 57.5392H41.2773C41.2962 57.5392 41.3151 57.5208 41.3151 57.5025C41.3529 57.3187 41.4853 56.7583 41.5894 56.4459C41.6177 56.4367 41.6177 56.4183 41.6083 56.4091Z" fill="#990000"/>
<path d="M29.1715 56.4001C28.9351 56.4093 28.4717 56.4185 28.0745 56.4185C27.6489 56.4185 27.176 56.4093 26.9301 56.4001C26.9206 56.4001 26.9112 56.4001 26.9017 56.4093C26.8923 56.4185 26.8923 56.4277 26.8923 56.4369V56.492C26.8923 56.5104 26.9112 56.5288 26.9301 56.5288C27.3462 56.5931 27.6205 56.639 27.6205 57.5119V62.5927C27.6205 63.5482 27.1476 64.5864 26.391 64.5864C26.2491 64.5864 26.1167 64.5772 25.9938 64.5588C25.4642 64.4302 25.1331 64.0719 24.9345 63.8146C24.9062 63.7779 24.8778 63.7411 24.8589 63.7044C24.6414 63.3828 24.5373 63.1072 24.5373 63.098C24.5279 63.0704 24.4995 63.0612 24.4711 63.0612C24.4427 63.0704 24.4238 63.0888 24.4238 63.1255L24.6035 64.4578C24.6035 64.4761 24.613 64.4945 24.6319 64.5037C25.1331 64.8161 25.7479 64.908 25.8614 64.9171C26.06 64.9447 26.2208 64.9539 26.3153 64.9539C26.391 64.9539 26.4383 64.9539 26.4383 64.9539C27.7056 64.9539 28.5568 63.9524 28.5568 62.464V57.5119C28.5568 56.6574 28.7649 56.6207 29.181 56.5288L29.1999 56.5196C29.2188 56.5196 29.2283 56.5012 29.2283 56.4828V56.4277C29.2283 56.4185 29.2283 56.4093 29.2188 56.4001C29.1904 56.4001 29.181 56.4001 29.1715 56.4001Z" fill="#990000"/>
<path d="M55.2248 34.963C54.941 35.1473 54.6382 35.175 54.6288 35.175C54.6193 35.175 54.6099 35.1842 54.6099 35.1934C54.6099 35.2026 54.6099 35.2118 54.6193 35.2211C54.6288 35.2303 55.3951 35.8754 55.4708 36.751C55.5559 37.645 55.414 38.1427 54.9504 38.5666C54.5815 38.9077 54.0423 38.9537 53.8436 38.9076C53.7963 38.8984 53.7868 38.8892 53.7868 38.88C53.7584 38.7694 53.9287 38.6496 54.1369 38.5113C54.1842 38.4837 54.2315 38.4468 54.2788 38.4192C54.5436 38.2348 54.6855 37.9307 54.6004 37.7648C54.572 37.7095 54.5247 37.7003 54.468 37.7003C54.4207 37.7003 54.3734 37.7187 54.3166 37.7372C54.2125 37.7648 54.099 37.8017 54.0423 37.7372C53.976 37.6726 54.0044 37.6173 54.0612 37.5067C54.1085 37.4146 54.1652 37.304 54.1747 37.1473C54.2031 36.8063 54.1558 35.9123 53.6638 35.8109C53.6449 35.8109 53.626 35.8109 53.6071 35.8201C53.5598 35.857 53.5598 35.9676 53.5598 36.1427C53.5598 36.3731 53.5503 36.6773 53.4179 36.88C53.2097 37.1934 52.8786 37.433 52.7273 37.433C52.6894 37.433 52.6705 37.4238 52.6516 37.4054C52.6327 37.3777 52.6421 37.304 52.6705 37.1934C52.7273 36.9353 52.8219 36.4561 52.68 35.5621C52.6327 35.2487 52.434 34.9077 52.2543 34.5851C52.0745 34.2718 51.9042 33.9676 51.8664 33.7095C51.8002 33.2303 51.8569 33.0275 52.1313 32.8248C52.2921 32.7049 52.3205 32.5944 52.3205 32.5206C52.3205 32.4469 52.2826 32.3086 52.1502 32.2626C52.1407 32.2626 52.1407 32.2626 52.1313 32.2533C52.0651 32.2349 51.9515 32.2257 51.8286 32.2257C51.3082 32.2349 50.0879 32.2441 49.227 31.1013C48.5269 30.1796 48.4796 29.3133 48.6121 28.2902V28.281C48.6121 28.2626 48.5364 27.8847 48.2053 27.5898C48.0445 27.4515 47.8836 27.3686 47.7701 27.3133C47.7039 27.2764 47.6282 27.2488 47.6282 27.2211C47.6282 27.2211 47.6282 27.2027 47.6471 27.1935C47.7323 27.1105 48.0255 26.9907 48.4323 27.046C48.735 27.0921 48.9526 27.2119 48.9526 27.2119C48.9621 27.2211 48.9716 27.2119 48.981 27.2027C48.9905 27.1935 49.7851 26.2811 51.1096 26.3824C51.9042 26.4377 52.6611 27.1935 52.68 28.0138C52.6989 28.834 52.311 29.2672 51.9705 29.3778C51.6961 29.47 51.4407 29.4607 51.2893 29.3594C51.2231 29.3133 51.1758 29.2488 51.1758 29.175C51.1758 29.1105 51.2326 29.0736 51.3461 29.0184C51.5353 28.9262 51.8286 28.7787 51.8664 28.2626C51.8853 27.9953 51.7907 27.728 51.611 27.5437C51.488 27.4147 51.2704 27.258 50.9109 27.2764C50.4474 27.2949 50.0689 27.47 49.8135 27.7926C49.4919 28.1981 49.3783 28.834 49.5013 29.5621C49.6811 30.622 50.7312 31.3593 51.8853 31.2395C52.5665 31.175 53.2003 30.7971 53.6828 30.1888C54.1369 29.6174 54.4017 28.8801 54.4112 28.1704C54.4301 26.4009 53.38 24.576 50.9771 24.4838C48.6783 24.4009 47.2498 25.7926 46.597 26.6221C46.1902 27.1382 45.7645 28.1244 45.4523 28.9262C45.5942 28.8985 46.0389 28.8432 46.4362 29.0368C46.843 29.2303 47.316 29.7096 47.2309 29.9124C47.2119 29.9676 47.089 29.94 46.9092 29.8939C46.6727 29.8294 46.3416 29.8478 45.9727 29.9031C45.3388 29.9861 45.0834 30.1059 45.0077 30.1704L45.0456 30.0598C45.0266 30.1243 45.0077 30.1704 45.0077 30.1704L44.1468 29.6543C44.2698 29.1289 44.8185 26.9262 46.1902 25.4792C47.5998 23.9954 49.2932 23.5069 50.7879 23.4977C51.6015 23.4885 52.3489 23.6083 52.9638 23.7465C53.0395 23.7649 53.1057 23.7742 53.1719 23.7926C53.7584 23.9216 54.3734 24.0414 54.8085 23.9308C55.045 23.8755 55.2437 23.7834 55.3951 23.7096C55.4897 23.6636 55.5843 23.6175 55.6032 23.6267C55.6032 23.6267 55.6127 23.6359 55.6127 23.6451C55.6316 23.7373 55.5464 24.0322 55.2721 24.3917C55.1018 24.6221 54.8842 24.7511 54.7329 24.8525C54.5909 24.9354 54.4963 25 54.4963 25.0921C54.4963 25.1382 54.5436 25.2212 54.6288 25.3686C54.8937 25.8294 55.4424 26.7972 55.3761 28.1612C55.2721 30.2534 54.2504 31.1474 53.5692 31.7464L53.4841 31.8202H53.4746C53.0205 32.3271 53.0773 32.7971 53.2097 33.092C53.4084 33.5436 53.8436 33.9215 54.4017 34.1151C54.7234 34.2257 55.0734 34.2625 55.3288 34.2902C55.5181 34.3086 55.7073 34.3271 55.7262 34.3731C55.7924 34.5206 55.6127 34.7234 55.2248 34.963ZM55.3099 42.1979C55.1018 43.3869 54.4112 43.8938 53.8247 43.9675C53.7774 43.9767 53.7301 43.9767 53.6922 43.9767C53.5219 43.9767 53.3895 43.9306 53.3517 43.8569C53.3422 43.8293 53.3327 43.8016 53.3422 43.774C53.3611 43.7279 53.4273 43.7002 53.5219 43.6726C53.6355 43.6357 53.7963 43.5712 53.9666 43.4422C54.468 43.0551 54.4396 42.8892 54.4207 42.7601C54.4207 42.7417 54.4112 42.7325 54.4017 42.7325C54.3734 42.7141 54.2977 42.7509 54.2125 42.797L54.1747 42.8154C54.0612 42.8707 53.9571 42.88 53.872 42.8431C53.8247 42.8154 53.7963 42.7786 53.7868 42.7325C53.7774 42.6772 53.8436 42.6219 53.9193 42.5482C53.9855 42.4929 54.0612 42.4284 54.1085 42.3546C54.3639 41.9675 54.4112 41.4975 54.2125 41.1288C54.0706 40.8523 53.8625 40.5943 53.2476 40.539C53.2381 40.539 53.2192 40.539 53.2097 40.539H53.1908C53.1151 40.539 53.03 40.5482 52.9354 40.5666C52.2543 40.6956 51.8002 41.138 51.4974 41.6081C51.4974 41.6173 51.488 41.6265 51.488 41.6265C51.0717 42.2256 50.9677 43.1472 50.9393 43.3224V43.3316C50.8068 44.1703 50.523 45.4145 48.7161 47.5988C48.508 47.8477 48.3472 48.2071 48.4512 48.6126C48.6404 49.3131 49.331 49.3776 49.3216 49.4513C49.3121 49.5527 49.1702 49.5527 48.9148 49.5343C48.6594 49.5158 48.5648 49.4329 48.5648 49.4329C48.5648 49.4329 48.4985 49.5896 48.9243 49.8937C49.2459 50.1241 49.6149 50.1149 49.6243 50.2163C49.6338 50.3361 47.6282 50.7877 47.5052 48.8154C47.5052 48.7693 47.4958 48.7232 47.4958 48.6771C45.3294 50.6126 44.6955 50.7048 44.5347 50.502C44.459 50.4006 44.6671 50.4283 45.0834 49.9674C45.5091 49.4974 45.5186 49.2854 45.5186 49.2854C45.5186 49.2854 44.6766 49.7278 43.6927 49.6449C42.6899 49.5527 41.848 48.8707 41.9237 48.6034C41.9804 48.373 42.5764 48.7693 43.2954 48.6587C43.9576 48.5573 44.0144 48.2993 44.0144 48.2993C44.0144 48.2993 43.8819 48.2993 43.6644 48.0781C43.4468 47.8569 43.1251 47.6725 43.3049 47.4882C43.4089 47.3776 43.9103 47.5988 44.4023 47.608C45.0266 47.608 45.424 47.4698 45.424 47.4698C45.424 47.4698 45.1685 47.3776 44.9036 47.1288C44.6388 46.8707 44.582 46.6126 44.6577 46.5481C44.705 46.5113 44.809 46.714 45.1591 46.714C45.5659 46.7048 45.6132 46.6126 45.6132 46.6126C45.6132 46.6126 45.4429 46.456 45.3577 46.3085C45.2821 46.1518 45.0361 45.7094 45.1875 45.5435C45.2348 45.4882 45.6983 46.0412 46.3794 46.1057C47.5525 46.2071 48.8391 45.3039 48.8391 45.3039C48.8391 45.3039 48.2053 46.0597 46.8619 47.1933C46.001 47.9122 44.9131 48.502 44.9793 48.6403C45.055 48.8062 45.9064 48.6126 47.3822 47.4145C47.8552 47.0274 48.158 46.7785 48.8013 46.0043C49.9365 44.6403 50.1919 43.1472 49.9649 41.9491C49.8703 41.4791 49.7473 41.0551 49.5959 40.6956C48.9621 39.3685 48.281 38.7141 47.1457 38.2901C46.1335 37.9123 45.3577 38.2533 44.8847 38.4653C44.6482 38.5759 44.4874 38.6404 44.4212 38.5482C44.213 38.2625 44.6293 37.8754 44.9982 37.5344C45.4713 37.1012 45.7835 36.9261 45.8686 36.8892C45.7835 36.8524 45.4807 36.7049 45.1875 36.6865C45.0361 36.6773 44.8658 36.7049 44.7144 36.7233C44.4779 36.7602 44.2887 36.7879 44.2603 36.668C44.213 36.4376 45.178 36.0229 45.6983 35.857C46.2281 35.6911 46.6538 35.6634 46.7295 35.6634C46.72 35.5528 46.6349 34.6865 46.7295 33.4238C46.7768 32.7602 46.9092 32.2994 47.0038 32.0321C47.1268 31.6911 47.2687 31.4607 47.3917 31.387C47.439 31.3593 47.4958 31.3593 47.5336 31.3778C47.6187 31.4239 47.6187 31.599 47.6187 31.857C47.6187 32.0137 47.6187 32.2165 47.6377 32.4285C47.6944 33.0644 47.9025 33.4146 48.0255 33.4884C48.0445 33.4976 48.0634 33.5068 48.0728 33.4976C48.1201 33.4791 48.1296 33.3962 48.1485 33.2856C48.1769 33.1381 48.2053 32.9261 48.3377 32.6681C48.5458 32.2349 48.9621 31.728 49.104 31.7649C49.1418 31.7741 49.1513 31.8202 49.1513 31.8847C49.1418 32.0874 49.104 32.2626 49.0756 32.4469C49.0094 32.834 48.9337 33.2672 48.981 34.0782C49.0378 35.2671 49.6054 35.4238 49.6811 35.4422C49.7189 35.3777 49.9933 34.9169 50.3906 34.5022C50.4757 34.4192 50.5514 34.3271 50.6366 34.2441C50.8825 33.9676 51.0812 33.7556 51.2231 33.7556H51.2326C51.2704 33.7556 51.3082 33.7833 51.3272 33.8201C51.3745 33.8939 51.2988 34.0874 51.1663 34.4008C50.9866 34.834 50.7122 35.4883 50.5893 36.2902C50.3622 37.8293 50.5893 39.3224 50.5987 39.3316L50.6176 39.4422L50.5798 39.3408C50.5798 39.3408 50.4474 38.9722 49.8892 38.1795C49.6432 37.8201 49.4446 37.6081 49.2554 37.4054C49.0189 37.1473 48.7918 36.9077 48.4796 36.3915C48.1201 35.8017 48.0255 35.3593 47.9688 35.0644C47.9215 34.8155 47.8931 34.6957 47.7512 34.6773C47.7323 34.6773 47.7228 34.6865 47.7039 34.7049C47.5809 34.8985 47.6471 35.9768 47.9877 36.6127C48.1674 36.9538 48.385 37.2302 48.631 37.5436C48.8864 37.8662 49.1702 38.2256 49.5202 38.7786C50.1541 39.7832 50.4663 40.5205 50.6176 40.9629C50.6555 41.0735 50.6839 41.1657 50.7122 41.2486C50.7879 41.1012 50.9109 40.9261 50.9487 40.8892C52.0651 39.6911 53.0395 39.6081 53.7111 39.7648H53.7206C54.2031 39.8662 54.6382 40.1427 54.941 40.5574C55.2532 41.0367 55.4045 41.6449 55.3099 42.1979ZM55.064 48.2347C55.064 48.244 55.0545 48.2532 55.0545 48.2716C54.8085 49.1195 54.2788 49.7002 53.5409 49.9121C53.3138 49.9767 53.0962 50.0135 52.8976 50.0135C52.4056 50.0135 51.9894 49.8292 51.5447 49.5527C51.5164 49.5435 51.2704 49.5066 51.015 49.6449C50.8825 49.7186 50.7974 49.8015 50.7312 49.8661C50.6744 49.9214 50.6366 49.9582 50.5987 49.949C50.5893 49.949 50.5703 49.9306 50.5609 49.9121C50.523 49.82 50.523 49.5711 50.6839 49.2946C50.7785 49.1195 50.892 49.0089 50.9298 48.9813C50.8825 48.8707 50.5609 48.1057 50.9677 47.2578C51.242 46.6864 51.961 46.3822 52.5097 46.6034C53.0584 46.8246 53.2287 47.2394 53.2097 47.5159C53.1908 47.7463 53.1057 47.9398 52.9922 48.0228C52.9354 48.0596 52.8692 48.0688 52.8219 48.0504C52.7557 48.0228 52.7462 47.949 52.7462 47.8569C52.7367 47.7002 52.7273 47.479 52.4245 47.3131C52.2732 47.2301 52.0934 47.2209 51.9421 47.2854C51.8286 47.3315 51.6772 47.4421 51.592 47.6818C51.4785 48.0043 51.488 48.3177 51.6299 48.5758C51.8002 48.8983 52.1597 49.138 52.6421 49.2486C53.3517 49.4145 54.0896 48.8983 54.3261 48.0781C54.3923 47.8292 54.4301 47.5435 54.3355 47.2394C54.1463 46.6311 53.7206 46.0781 52.6894 45.5896C52.3394 45.4237 51.611 45.1104 51.3272 44.9813C51.488 44.5389 51.5069 44.4007 51.5542 44.244C51.6488 44.0965 51.9137 43.8569 52.1691 43.7924C52.4624 43.7279 52.8124 43.8661 52.803 43.9214C52.7935 43.9767 52.4056 44.0689 52.188 44.5574C52.2732 44.5942 53.0016 44.7878 53.626 45.1841C54.6761 45.8477 54.9694 46.5481 55.0545 46.8615C55.2059 47.3776 55.1775 47.8569 55.064 48.2347ZM44.8847 32.0045C44.2509 31.4331 43.74 31.2856 43.74 31.2856V30.2073C44.0428 30.3547 44.7428 30.7142 45.1402 31.0368C45.5375 31.3593 45.8402 31.6727 46.0862 31.94L45.9159 33.0275C45.6226 32.7234 45.2537 32.3363 44.8847 32.0045ZM44.0806 33.9584C43.9009 32.7234 43.9765 32.152 43.9765 32.152C44.2603 32.2441 44.7428 32.7142 44.9036 32.8801C44.9036 32.8801 44.8658 33.046 44.9888 33.8017C45.0739 34.3731 45.2537 34.8985 45.3199 35.1197L44.4306 35.5252C44.3455 35.2487 44.1752 34.622 44.0806 33.9584ZM44.7523 41.3592C44.8563 42.1795 45.5564 42.9537 46.5403 42.8523C46.966 42.8062 47.2687 42.6127 47.4768 42.4007L47.4201 42.3362C47.2876 42.2164 46.8241 41.7924 46.4457 41.3224C46.0767 40.8615 45.897 40.6127 45.8591 40.5666L45.7551 40.4192C45.7645 40.4099 45.8875 40.327 46.2565 40.3362C46.6633 40.3546 47.0511 40.6588 47.1646 40.7509C47.1646 40.7509 47.3539 40.9537 47.9593 41.5712C48.6783 42.2993 49.1986 42.6495 49.2837 42.7048C49.2837 42.9168 49.227 43.3224 49.1418 43.6081C48.8107 43.4329 48.3756 43.0827 48.1674 42.9168C48.1391 42.8892 48.1107 42.8707 48.0918 42.8615C47.8269 43.1749 47.439 43.479 46.8525 43.6357C46.72 43.6726 46.5687 43.691 46.4267 43.6818C45.1402 43.6449 44.2793 42.7141 44.0711 41.8016C43.9955 41.4606 44.0238 41.0274 44.0333 40.7325C44.0428 40.4745 44.0617 40.244 43.9955 40.0781C43.9292 39.8846 43.8346 39.7648 43.7684 39.6818C43.7117 39.5989 43.6644 39.5528 43.7117 39.5067C43.7779 39.4238 44.0049 39.4791 44.213 39.6173C44.3455 39.7003 44.4023 39.8017 44.4212 39.8569C44.5442 39.6726 45.1402 38.88 46.1713 38.8431C46.5213 38.8339 46.8335 38.9076 47.07 39.0551C47.2687 39.1749 47.4012 39.35 47.4579 39.5252C47.4958 39.6634 47.4958 39.774 47.4012 39.8201C47.3539 39.8477 47.2403 39.8016 47.089 39.7279C46.8714 39.6265 46.5308 39.5159 46.1335 39.562C45.8118 39.5989 45.3577 39.8109 45.0456 40.2164C44.7996 40.5298 44.6955 40.9353 44.7523 41.3592ZM40.4668 48.7509C39.2559 49.82 38.3193 50.0873 37.1746 50.2716C35.9069 50.4836 33.4851 50.1518 33.4851 50.1518L32.2364 46.2255C32.2364 46.2255 33.5324 47.4145 34.2136 47.9398C34.8947 48.4652 35.5285 48.7509 36.4935 48.7509C37.4584 48.7509 38.1112 48.5112 38.8207 47.7739C39.5302 47.0366 39.7951 46.0873 39.9749 44.9629C40.0978 44.1518 40.0411 41.9122 40.0411 41.3961L40.2208 29.2303C40.2208 29.2303 40.306 26.6036 40.1168 25.9493C39.9276 25.2857 39.5208 24.8064 39.2748 24.5576C38.7356 24.0046 37.5814 23.8295 37.5814 23.8295C37.2503 23.7742 37.1746 23.6175 37.203 23.4608C37.2408 23.2304 37.449 23.1935 37.449 23.1935L45.6037 23.212C45.6037 23.212 45.8024 23.2304 45.8402 23.47C45.8686 23.6267 45.7929 23.7834 45.4618 23.8387C45.4618 23.8387 44.3171 24.023 43.7684 24.5668C43.5224 24.8156 43.1157 25.2949 42.9265 25.9585C42.7372 26.6221 42.8224 29.2395 42.8224 29.2395V41.433C42.8224 41.433 42.8508 43.7832 42.5386 45.0182C42.3115 45.8753 41.8101 47.5712 40.4668 48.7509ZM31.3376 48.1241C30.893 49.0366 30.1551 49.8476 30.0132 49.7186C29.8997 49.608 30.0416 49.5158 30.1173 49.2486C30.193 48.9721 30.2119 48.9168 30.2119 48.9168C30.2119 48.9168 30.0132 49.1933 29.3037 49.6264C28.5942 50.0596 28.4712 50.0873 28.3482 49.9214C28.2725 49.8108 28.4523 49.6909 28.6225 49.4052C28.7834 49.1287 28.7361 49.138 28.7361 49.138C28.7361 49.138 28.1306 49.0827 27.6387 48.8707C27.1467 48.6587 26.6264 48.161 26.6359 48.0596C26.6548 47.9306 26.8629 47.8569 27.2319 47.6725C27.6292 47.479 27.9036 47.2301 27.9036 47.2301C27.9036 47.2301 27.6387 47.1656 27.4873 47.1011C27.2508 46.9905 27.0143 46.8799 27.1562 46.7325C27.2887 46.6126 27.9225 47.0274 28.8969 46.1334C29.7578 45.3408 29.7578 44.1795 29.7578 44.1795C29.7578 44.1795 30.174 45.5343 29.6253 46.6126C28.9442 47.9398 27.6671 47.949 27.809 48.2255C27.9793 48.5665 29.5402 48.2624 30.2119 46.6679C30.77 45.3408 30.1835 43.6541 29.7578 42.6495C29.6348 42.3638 29.474 41.9767 29.3699 41.6726C29.7578 41.8477 30.0794 41.9307 30.3916 41.9675C30.3916 41.9675 30.3916 41.9675 30.3916 41.9767C30.4011 41.9767 30.4484 42.0597 30.4484 42.0597C30.8268 42.6495 31.4133 42.8523 31.7255 42.9721C32.0188 43.0827 32.3404 43.138 32.6621 43.138C32.9364 43.138 33.2202 43.1012 33.4757 42.9998C33.6459 42.9353 33.8068 42.8523 33.9298 42.7233C34.3082 42.327 34.4028 41.1104 34.573 41.0182C34.6487 40.9721 34.8379 41.2763 34.9136 41.4975C34.9893 41.7279 34.9515 41.9491 35.0934 42.0044C35.1974 42.0413 35.2542 41.9307 35.4718 41.691C35.7745 41.35 35.7272 41.2118 35.8786 41.2671C36.0299 41.3224 35.8691 42.0781 35.7934 42.4837C35.7177 42.8984 35.5191 43.4975 35.5191 43.4975C35.5191 43.4975 36.0205 43.1749 36.4935 42.9721C37.8085 42.4007 38.3193 42.5758 38.3288 42.7325C38.3382 42.8892 38.026 42.9168 37.6855 43.3131C37.4395 43.5988 37.4963 43.6726 37.4963 43.6726C37.4963 43.6726 37.6949 43.6818 38.2436 43.5251C38.6315 43.4145 38.9721 43.2394 39.0761 43.3961C39.1897 43.5528 38.6788 44.2256 37.8936 44.7509C37.1084 45.2762 36.4746 45.479 36.4746 45.479C36.4746 45.479 36.6259 45.6357 37.0138 45.7002C37.4017 45.7647 37.553 45.7094 37.5909 45.82C37.6382 45.9675 37.203 46.0965 36.4746 46.1702C35.4339 46.2716 34.8947 45.8292 34.8947 45.8292C34.8947 45.8292 35.0271 46.1979 34.8758 46.5666C34.715 46.9444 34.6771 47.2947 34.5257 47.267C34.3744 47.2486 34.5541 46.8891 34.2609 46.5389C33.9487 46.161 33.5892 46.0781 33.0594 45.6726C32.5391 45.2855 32.5202 44.9721 32.5202 44.9721C32.5202 44.9721 33.4284 45.3039 34.9136 45.0735C36.3421 44.8523 36.7867 44.4375 36.6827 44.2809C36.5881 44.1426 36.3516 44.3177 35.6799 44.4744C34.8947 44.6495 33.8257 44.6034 32.6432 44.4099C32.2269 44.3454 31.6593 44.1518 31.1484 43.82C31.3471 44.2071 31.6782 44.8984 31.7539 45.3961C31.8958 46.244 31.7823 47.2025 31.3376 48.1241ZM30.42 35.6358C30.4768 35.2579 30.7038 34.8524 30.8362 34.6773C31.3566 34.5851 31.6877 34.8616 31.735 34.9077C31.4512 35.4422 31.2714 36.0321 31.1106 36.622C30.9214 36.5482 30.647 36.2809 30.42 35.6358ZM30.543 39.6265C30.2781 39.5989 29.597 39.1565 29.5591 39.0459C29.5591 38.8155 29.6159 38.2994 29.7105 37.9952C30.051 38.5759 30.6092 38.8247 30.6092 38.8247C30.5146 39.1934 30.543 39.6265 30.543 39.6265ZM27.7522 34.5114C27.8184 34.3271 27.8752 34.198 27.932 34.0874C28.0455 33.8386 28.1117 33.6911 28.1306 33.3501C28.159 32.9538 28.036 32.6496 27.9603 32.5667C28.0644 32.5759 28.386 32.7142 28.509 32.9722C28.6131 33.1842 28.7645 33.7372 28.7455 33.8294C28.7361 33.8478 28.755 33.857 28.755 33.8662C28.7739 33.8754 28.7928 33.8662 28.8685 33.8109C29.0861 33.6542 29.7483 33.1658 30.9214 33.1566H30.9403C33.0972 33.1566 34.0433 35.1012 34.0527 35.1197L34.0622 35.1289H34.0717C34.0811 35.1289 34.3649 35.2118 34.942 34.9722C35.169 34.88 35.3015 34.7602 35.4339 34.6496C35.6515 34.4653 35.8407 34.2994 36.361 34.2902C36.8908 34.2718 37.2881 34.5667 37.3544 34.7694C37.3733 34.8155 37.3733 34.8893 37.3165 34.9261C37.2408 34.9814 37.2219 34.9722 37.1746 34.9538C37.0989 34.9169 36.976 34.8616 36.5881 34.9261C36.257 34.9722 36.1056 35.2764 35.9448 35.5897C35.765 35.9307 35.5853 36.2809 35.169 36.3823C34.7906 36.4837 34.346 36.2256 34.2609 36.0966C34.2419 36.0598 34.2041 36.0137 34.1568 36.0229C34.119 36.0321 34.1 36.0874 34.1 36.1058C34.1 36.1058 34.0906 36.4284 33.8825 36.9906C33.6932 37.5067 32.8229 38.7418 31.1106 38.2901C30.0605 38.0137 29.6537 37.0551 29.701 36.4653C29.7199 36.2717 29.7767 36.1427 29.8713 36.1335C29.947 36.1243 30.0132 36.1796 30.0321 36.2349C30.1078 36.4561 30.193 36.6773 30.3159 36.8616C30.4862 37.1197 30.7984 37.433 31.1768 37.516C32.0282 37.7003 32.5486 37.2763 32.6432 37.1842C32.9648 36.8892 33.1446 36.4008 33.1162 35.8754C33.0783 35.2026 32.7188 34.7787 32.4161 34.539C32.0377 34.2349 31.5458 34.0506 31.0633 34.0413C31.0538 34.0413 31.0349 34.0413 31.0255 34.0413C30.4011 34.0413 29.7672 34.2902 29.2753 34.7141C28.6509 35.2579 28.2914 36.069 28.2158 37.0551C28.1495 37.9031 28.509 38.8431 29.1429 39.5159C29.6348 40.0413 30.2497 40.327 30.8646 40.3362C30.8741 40.3362 30.8836 40.3362 30.9025 40.3362C32.5296 40.3362 33.5797 39.3593 34.6866 38.327C35.7272 37.3593 36.7962 36.3639 38.4801 35.9031C38.6031 35.8662 39.1802 35.8201 39.3032 35.8109L39.2748 36.7049C38.3288 36.88 37.0138 37.4699 37.08 38.1058C37.1462 38.7325 37.5625 39.0735 37.7612 39.2394C37.8085 39.2763 37.8558 39.3132 37.8558 39.3224C37.8558 39.3316 37.8368 39.3408 37.7706 39.3685C37.5909 39.433 37.1746 39.4791 36.853 39.3316C36.4178 39.1381 35.9921 38.4468 35.9826 38.4376L35.9637 38.41L35.9448 38.4376C35.9353 38.4468 34.6487 39.7648 33.9487 40.2625C33.4946 40.5851 32.2931 41.4422 30.8741 41.3777C29.8902 41.3316 28.982 40.8984 28.3198 40.1519C27.6198 39.3685 27.2414 38.2809 27.2508 37.1012C27.2508 36.0229 27.3738 35.5344 27.7522 34.5114ZM30.893 23.212C30.9025 23.212 31.9053 23.129 32.8607 23.4977C33.277 23.6636 33.5797 23.8663 33.8446 24.0507H33.8541C34.2514 24.3179 34.5541 24.5391 34.9988 24.4009C35.5002 24.2534 35.6042 23.8663 35.6704 23.6083C35.6894 23.5438 35.7177 23.4332 35.7367 23.4239C35.7556 23.4147 35.8502 23.4516 35.9259 23.5714C36.0205 23.7096 36.2664 24.2258 35.6042 25.1659C35.2353 25.682 34.6393 25.7926 34.6109 25.7926C34.5825 25.7926 34.5636 25.811 34.5447 25.8294C34.5352 25.8479 34.5257 25.8755 34.5352 25.9032C34.573 26.0322 34.573 26.1336 34.5825 26.2258C34.6109 26.5483 34.573 26.8617 34.3555 27.387C34.0149 28.1889 33.3338 28.6773 32.435 28.7879C31.5647 28.8893 30.8552 28.4101 30.5997 27.8847C30.3727 27.3962 30.3538 26.834 30.5619 26.3271C30.6092 26.1981 30.7038 26.0967 30.7795 26.0783C30.8173 26.0691 30.8457 26.0783 30.8741 26.1059C30.9498 26.1612 30.9498 26.3087 30.9592 26.5022C30.9687 26.6958 30.9782 26.9354 31.0633 27.1843C31.1957 27.5714 31.6404 27.94 32.208 27.8939C33.0783 27.8202 33.5986 27.2211 33.6176 26.2995C33.6365 25.3318 33.0026 24.1889 31.1484 24.1428C31.1201 24.1428 31.1011 24.1428 31.0728 24.1428C30.3727 24.1428 29.7294 24.4101 29.2185 24.9078C28.632 25.4976 28.2536 26.3824 28.2347 27.2304C28.2063 28.8801 29.0861 29.8386 29.824 30.3547C30.5714 30.8709 31.7444 30.9077 33.2108 30.4561C33.7122 30.2994 34.2514 30.0875 34.7717 29.8755H34.7812C35.2258 29.7004 35.6799 29.516 36.1151 29.3594C36.3705 29.2764 36.6448 29.2027 36.9287 29.1566L36.9665 29.1474L36.9381 29.1105C36.8246 28.9631 36.6827 28.7695 36.4935 28.5207C36.1151 28.0045 36.011 27.0552 36.134 26.8617C36.1908 26.7787 36.2475 26.7603 36.2759 26.7603C36.2948 26.7603 36.3137 26.7695 36.3137 26.7695C36.3137 26.7787 36.3137 26.8248 36.3137 26.834C36.3137 26.8801 36.3137 27.1013 36.4178 27.2119C36.5502 27.3594 36.73 27.387 36.8057 27.3502C36.834 27.3317 36.853 27.3133 36.8624 27.2856C36.8908 27.2027 37.0233 26.7972 37.2503 26.4654C37.4395 26.1889 38.0355 25.7649 38.3855 25.7649C38.395 25.7649 38.4045 25.7649 38.4139 25.7649C38.5085 25.7741 38.5747 25.811 38.6126 25.8847C38.6599 25.9769 38.5085 26.1336 38.4612 26.1797C38.1585 26.493 37.799 26.9539 37.7706 27.7188C37.7612 28.0783 37.8652 28.3732 38.0828 28.6036C38.4991 29.0368 39.218 29.0921 39.3599 29.0921V29.8847C39.341 29.8847 39.3126 29.8847 39.2937 29.8847C38.5842 29.8847 38.0166 30.7234 37.8274 31.5805C37.6666 32.281 37.8085 33.2672 37.8652 33.5621C37.922 33.8294 37.8747 33.8939 37.8558 33.9031C37.8463 33.9123 37.8368 33.9123 37.8085 33.9123C37.6571 33.8847 37.3827 33.5713 37.08 33.092C36.853 32.7418 36.9192 32.2994 36.957 32.0598C36.976 31.9308 36.9854 31.8755 36.9381 31.8386L36.9287 31.8294C36.9003 31.8017 36.853 31.7741 36.7962 31.7741C36.7962 31.7741 36.7962 31.7741 36.7867 31.7741C36.7205 31.7741 36.6448 31.8202 36.5597 31.9031C36.4935 31.9768 36.4556 32.0229 36.4367 32.0598C36.3989 32.1151 36.3989 32.1151 36.3043 32.0782C36.3043 32.0782 36.2948 32.0782 36.2854 32.0598C36.2191 31.8847 36.4178 31.2764 36.6732 30.8524C36.8719 30.5114 37.0895 30.2626 37.3922 30.0322L37.4773 29.9676L37.3638 29.9953C36.3327 30.2257 35.3015 30.622 34.6677 31.046C33.8541 31.5805 33.1919 32.2165 32.7094 32.9261C32.6242 32.8708 32.5391 32.834 32.331 32.7418C32.1985 32.6865 31.9999 32.622 31.8485 32.6036C32.0472 32.3363 32.3972 31.9768 32.5391 31.8294L32.5486 31.8202C32.5675 31.7925 32.5675 31.7464 32.5391 31.7188C32.5107 31.6911 32.4729 31.6819 32.435 31.6911C32.3972 31.7096 31.4795 32.0506 29.8618 31.4607C28.5469 30.9815 27.1751 29.5898 27.2508 27.1382C27.3454 24.6313 29.1429 23.3594 30.893 23.212ZM25.2263 52.3176H57.325V21H25.2263V52.3176Z" fill="#990000"/>
<path d="M8 0.5H702C706.142 0.5 709.5 3.85786 709.5 8V20.5H0.5V8C0.5 3.85786 3.85786 0.5 8 0.5Z" fill="white" stroke="#D1CFC7"/>
<circle cx="660.042" cy="11" r="4" fill="#EAE8E1"/>
<circle cx="676.042" cy="11" r="4" fill="#EAE8E1"/>
<circle cx="692.042" cy="11" r="4" fill="#EAE8E1"/>
<rect x="24.5" y="94.5" width="280" height="31" fill="#EAE8E1" stroke="#676765"/>
<rect x="24.5" y="150.5" width="280" height="120" fill="#EAE8E1" stroke="#676765"/>
<rect x="330" y="95" width="355" height="175" fill="#EAE8E1" stroke="#676765" stroke-width="2" stroke-dasharray="4 4"/>
<rect x="319.231" y="190.069" width="355" height="175" rx="1" transform="rotate(-15.4947 319.231 190.069)" fill="white" stroke="#EAE8E1" stroke-width="2"/>
<path d="M365.982 358.709L661.328 95.2308" stroke="#EAE8E1" stroke-width="2"/>
<path d="M319.231 190.069L708.08 263.87" stroke="#EAE8E1" stroke-width="2"/>
<rect width="39" height="40" transform="translate(479 136)" fill="#343332"/>
<path d="M494.488 159.344V162H492.568V159.344H487.4V158.016L492.312 150.88H494.488V157.872H496.232V159.344H494.488ZM492.616 154.208C492.616 153.547 492.627 153.056 492.648 152.736H492.616C492.488 153.067 492.248 153.499 491.896 154.032L490.136 156.656C489.965 156.912 489.805 157.147 489.656 157.36C489.507 157.563 489.363 157.733 489.224 157.872H492.616V154.208ZM499.71 162H497.438V159.776H499.71V162ZM501.278 160.496C502.729 159.547 504.025 158.528 505.166 157.44C505.796 156.853 506.238 156.309 506.494 155.808C506.75 155.307 506.878 154.752 506.878 154.144C506.878 153.536 506.729 153.072 506.43 152.752C506.132 152.421 505.7 152.256 505.134 152.256C504.569 152.256 504.126 152.421 503.806 152.752C503.486 153.072 503.326 153.509 503.326 154.064C503.326 154.373 503.364 154.699 503.438 155.04L501.454 154.848C501.38 154.56 501.342 154.267 501.342 153.968C501.342 152.944 501.689 152.133 502.382 151.536C503.086 150.939 504.036 150.64 505.23 150.64C506.414 150.64 507.332 150.939 507.982 151.536C508.644 152.123 508.974 152.96 508.974 154.048C508.974 154.816 508.788 155.541 508.414 156.224C508.052 156.907 507.481 157.6 506.702 158.304C505.902 159.029 504.985 159.712 503.95 160.352H509.086V162H501.278V160.496Z" fill="white"/>
<rect width="36" height="40" transform="translate(141 136)" fill="#343332"/>
<path d="M156.488 159.344V162H154.568V159.344H149.4V158.016L154.312 150.88H156.488V157.872H158.232V159.344H156.488ZM154.616 154.208C154.616 153.547 154.627 153.056 154.648 152.736H154.616C154.488 153.067 154.248 153.499 153.896 154.032L152.136 156.656C151.965 156.912 151.805 157.147 151.656 157.36C151.507 157.563 151.363 157.733 151.224 157.872H154.616V154.208ZM161.71 162H159.438V159.776H161.71V162ZM164.461 153.776C164.279 153.989 164.013 154.155 163.661 154.272C163.309 154.389 162.951 154.448 162.589 154.448H162.077V152.672H162.397C163.005 152.661 163.511 152.507 163.917 152.208C164.333 151.909 164.626 151.467 164.797 150.88H166.429V162H164.461V153.776Z" fill="white"/>
<path d="M598.376 316.256C616.89 342.937 641.896 372.946 674.739 352.338C665.607 357.197 636.688 353.799 618.099 305.76L636.727 295.848L590.837 276.428L579.748 326.169L598.376 316.256Z" fill="url(#paint0_linear_2182_44279)"/>
<defs>
<linearGradient id="paint0_linear_2182_44279" x1="591.645" y1="269.172" x2="709.697" y2="382.845" gradientUnits="userSpaceOnUse">
<stop stop-color="#FB4848"/>
<stop offset="0.0001" stop-color="#D1CFC7"/>
<stop offset="0.214639" stop-color="#D1CFC7"/>
<stop offset="0.214739" stop-color="#D1CFC7"/>
<stop offset="1" stop-color="#C4C4C4" stop-opacity="0"/>
</linearGradient>
</defs>
</svg>
