<svg width="303" height="307" viewBox="0 0 303 307" fill="none" xmlns="http://www.w3.org/2000/svg">
<mask id="mask0_788_873" style="mask-type:alpha" maskUnits="userSpaceOnUse" x="0" y="0" width="303" height="307">
<rect width="303" height="307" fill="#D9D9D9"/>
</mask>
<g mask="url(#mask0_788_873)">
<rect x="-0.438477" y="0.550903" width="303" height="307" fill="#EAE8E1"/>
<path d="M12.6215 103.385C12.6215 102.685 12.7475 102.074 12.9995 101.551C13.2422 101.028 13.5922 100.627 14.0495 100.347C14.5069 100.058 15.0389 99.9129 15.6455 99.9129C16.5882 99.9129 17.3349 100.226 17.8855 100.851C18.4362 101.476 18.7115 102.326 18.7115 103.399L18.7115 105.513L22.5615 105.513L22.5615 107.319L12.6215 107.319L12.6215 103.385ZM17.3395 103.721C17.3395 103.133 17.1902 102.671 16.8915 102.335C16.5929 101.99 16.1869 101.817 15.6735 101.817C15.1602 101.817 14.7542 101.99 14.4555 102.335C14.1569 102.671 14.0075 103.133 14.0075 103.721L14.0075 105.513L17.3395 105.513L17.3395 103.721ZM18.5715 94.8899L18.5715 96.6399L22.5615 96.6399L22.5615 98.4459L12.6215 98.4459L12.6215 94.4419C12.6215 93.2379 12.8969 92.3652 13.4475 91.8239C13.9889 91.2732 14.7075 90.9979 15.6035 90.9979C16.2382 90.9979 16.8029 91.1705 17.2975 91.5159C17.7922 91.8612 18.1375 92.3839 18.3335 93.0839L22.5615 90.7179L22.5615 92.7059L18.5715 94.8899ZM17.2275 96.6399L17.2275 94.7499C17.2275 94.1059 17.0829 93.6345 16.7935 93.3359C16.5042 93.0372 16.1075 92.8879 15.6035 92.8879C14.5302 92.8879 13.9935 93.5085 13.9935 94.7499L13.9935 96.6399L17.2275 96.6399ZM22.7995 85.2133C22.7995 86.156 22.5895 86.982 22.1695 87.6913C21.7402 88.4007 21.1335 88.9513 20.3495 89.3433C19.5562 89.726 18.6369 89.9173 17.5915 89.9173C16.5275 89.9173 15.6035 89.726 14.8195 89.3433C14.0355 88.9513 13.4335 88.4053 13.0135 87.7053C12.5935 86.996 12.3835 86.1653 12.3835 85.2133C12.3835 84.2613 12.5935 83.4353 13.0135 82.7353C13.4335 82.026 14.0355 81.48 14.8195 81.0973C15.6035 80.7053 16.5275 80.5093 17.5915 80.5093C18.6462 80.5093 19.5655 80.7053 20.3495 81.0973C21.1335 81.48 21.7402 82.026 22.1695 82.7353C22.5895 83.4447 22.7995 84.2707 22.7995 85.2133ZM21.3435 85.2133C21.3435 84.3173 21.0122 83.622 20.3495 83.1273C19.6869 82.6327 18.7675 82.3853 17.5915 82.3853C16.4155 82.3853 15.4962 82.6327 14.8335 83.1273C14.1709 83.622 13.8395 84.3173 13.8395 85.2133C13.8395 86.1 14.1709 86.7953 14.8335 87.2993C15.4962 87.794 16.4155 88.0413 17.5915 88.0413C18.7489 88.0413 19.6635 87.794 20.3355 87.2993C21.0075 86.7953 21.3435 86.1 21.3435 85.2133ZM22.7995 74.9807C22.7995 75.8767 22.5849 76.656 22.1555 77.3187C21.7169 77.9813 21.1055 78.49 20.3215 78.8447C19.5375 79.19 18.6322 79.3627 17.6055 79.3627C16.5789 79.3627 15.6735 79.176 14.8895 78.8027C14.0962 78.42 13.4802 77.874 13.0415 77.1647C12.6029 76.4553 12.3835 75.6107 12.3835 74.6307C12.3835 73.7907 12.5329 73.0813 12.8315 72.5027C13.1302 71.924 13.5082 71.4807 13.9655 71.1727C14.4229 70.8647 14.9035 70.6687 15.4075 70.5847L15.7155 72.3767C15.1929 72.47 14.7449 72.6987 14.3715 73.0627C13.9982 73.4267 13.8115 73.9587 13.8115 74.6587C13.8115 75.5547 14.1569 76.2547 14.8475 76.7587C15.5289 77.2627 16.4435 77.5147 17.5915 77.5147C18.7209 77.5147 19.6309 77.272 20.3215 76.7867C21.0029 76.292 21.3435 75.578 21.3435 74.6447C21.3435 74.0287 21.2035 73.5293 20.9235 73.1467C20.6435 72.764 20.3075 72.498 19.9155 72.3487C19.5235 72.19 19.1455 72.1107 18.7815 72.1107L18.5995 72.1107L18.5995 74.7987L17.2135 74.7987L17.2135 70.4727L22.5615 70.4727L22.5615 71.7607L21.0355 71.9147C21.5769 72.148 22.0062 72.5353 22.3235 73.0767C22.6409 73.618 22.7995 74.2527 22.7995 74.9807ZM18.5715 64.8117L18.5715 66.5617L22.5615 66.5617L22.5615 68.3677L12.6215 68.3677L12.6215 64.3637C12.6215 63.1597 12.8969 62.2871 13.4475 61.7457C13.9889 61.1951 14.7075 60.9197 15.6035 60.9197C16.2382 60.9197 16.8029 61.0924 17.2975 61.4377C17.7922 61.7831 18.1375 62.3057 18.3335 63.0057L22.5615 60.6397L22.5615 62.6277L18.5715 64.8117ZM17.2275 66.5617L17.2275 64.6717C17.2275 64.0277 17.0829 63.5564 16.7935 63.2577C16.5042 62.9591 16.1075 62.8097 15.6035 62.8097C14.5302 62.8097 13.9935 63.4304 13.9935 64.6717L13.9935 66.5617L17.2275 66.5617ZM21.1475 52.3274L22.5615 52.3274L22.5615 58.8794L12.6215 58.8794L12.6215 52.4254L14.0355 52.4254L14.0355 57.0734L16.7655 57.0734L16.7655 52.6634L18.1655 52.6634L18.1655 57.0734L21.1475 57.0734L21.1475 52.3274ZM22.7995 47.2802C22.7995 48.4189 22.5475 49.3476 22.0435 50.0662C21.5395 50.7756 20.8629 51.2376 20.0135 51.4522L19.3415 49.9122C19.9482 49.7256 20.4382 49.4129 20.8115 48.9742C21.1755 48.5356 21.3575 47.9522 21.3575 47.2242C21.3575 46.6642 21.2409 46.1976 21.0075 45.8242C20.7649 45.4416 20.4009 45.2502 19.9155 45.2502C19.4582 45.2502 19.1222 45.3856 18.9075 45.6562C18.6835 45.9176 18.5109 46.3422 18.3895 46.9302L18.0955 48.3162C17.7409 50.0522 16.7889 50.9202 15.2395 50.9202C14.6702 50.9202 14.1709 50.7756 13.7415 50.4862C13.3122 50.1876 12.9809 49.7629 12.7475 49.2122C12.5049 48.6616 12.3835 48.0176 12.3835 47.2802C12.3835 46.3002 12.5889 45.4742 12.9995 44.8022C13.4009 44.1209 14.0029 43.6729 14.8055 43.4582L15.5615 44.9002C14.9829 45.0589 14.5395 45.3482 14.2315 45.7682C13.9142 46.1789 13.7555 46.7109 13.7555 47.3642C13.7555 47.9056 13.8769 48.3442 14.1195 48.6802C14.3529 49.0069 14.6795 49.1702 15.0995 49.1702C15.5009 49.1702 15.8182 49.0536 16.0515 48.8202C16.2755 48.5776 16.4482 48.1809 16.5695 47.6302L16.8775 46.1882C17.0642 45.3016 17.3815 44.6249 17.8295 44.1582C18.2682 43.6916 18.9075 43.4582 19.7475 43.4582C20.3262 43.4582 20.8489 43.6029 21.3155 43.8922C21.7729 44.1816 22.1369 44.6156 22.4075 45.1942C22.6689 45.7636 22.7995 46.4589 22.7995 47.2802ZM22.7995 38.4755C22.7995 39.6142 22.5475 40.5429 22.0435 41.2615C21.5395 41.9709 20.8629 42.4329 20.0135 42.6475L19.3415 41.1075C19.9482 40.9209 20.4382 40.6082 20.8115 40.1695C21.1755 39.7309 21.3575 39.1475 21.3575 38.4195C21.3575 37.8595 21.2409 37.3929 21.0075 37.0195C20.7649 36.6369 20.4009 36.4455 19.9155 36.4455C19.4582 36.4455 19.1222 36.5809 18.9075 36.8515C18.6835 37.1129 18.5109 37.5375 18.3895 38.1255L18.0955 39.5115C17.7409 41.2475 16.7889 42.1155 15.2395 42.1155C14.6702 42.1155 14.1709 41.9709 13.7415 41.6815C13.3122 41.3829 12.9809 40.9582 12.7475 40.4075C12.5049 39.8569 12.3835 39.2129 12.3835 38.4755C12.3835 37.4955 12.5889 36.6695 12.9995 35.9975C13.4009 35.3162 14.0029 34.8682 14.8055 34.6535L15.5615 36.0955C14.9829 36.2542 14.5395 36.5435 14.2315 36.9635C13.9142 37.3742 13.7555 37.9062 13.7555 38.5595C13.7555 39.1009 13.8769 39.5395 14.1195 39.8755C14.3529 40.2022 14.6795 40.3655 15.0995 40.3655C15.5009 40.3655 15.8182 40.2489 16.0515 40.0155C16.2755 39.7729 16.4482 39.3762 16.5695 38.8255L16.8775 37.3835C17.0642 36.4969 17.3815 35.8202 17.8295 35.3535C18.2682 34.8869 18.9075 34.6535 19.7475 34.6535C20.3262 34.6535 20.8489 34.7982 21.3155 35.0875C21.7729 35.3769 22.1369 35.8109 22.4075 36.3895C22.6689 36.9589 22.7995 37.6542 22.7995 38.4755ZM22.5615 32.9576L12.6215 32.9576L12.6215 31.1516L22.5615 31.1516L22.5615 32.9576ZM22.7995 24.6879C22.7995 25.6306 22.5895 26.4566 22.1695 27.1659C21.7402 27.8753 21.1335 28.4259 20.3495 28.8179C19.5562 29.2006 18.6369 29.3919 17.5915 29.3919C16.5275 29.3919 15.6035 29.2006 14.8195 28.8179C14.0355 28.4259 13.4335 27.8799 13.0135 27.1799C12.5935 26.4706 12.3835 25.6399 12.3835 24.6879C12.3835 23.7359 12.5935 22.9099 13.0135 22.2099C13.4335 21.5006 14.0355 20.9546 14.8195 20.5719C15.6035 20.1799 16.5275 19.9839 17.5915 19.9839C18.6462 19.9839 19.5655 20.1799 20.3495 20.5719C21.1335 20.9546 21.7402 21.5006 22.1695 22.2099C22.5895 22.9193 22.7995 23.7453 22.7995 24.6879ZM21.3435 24.6879C21.3435 23.7919 21.0122 23.0966 20.3495 22.6019C19.6869 22.1073 18.7675 21.8599 17.5915 21.8599C16.4155 21.8599 15.4962 22.1073 14.8335 22.6019C14.1709 23.0966 13.8395 23.7919 13.8395 24.6879C13.8395 25.5746 14.1709 26.2699 14.8335 26.7739C15.4962 27.2686 16.4155 27.5159 17.5915 27.5159C18.7489 27.5159 19.6635 27.2686 20.3355 26.7739C21.0075 26.2699 21.3435 25.5746 21.3435 24.6879ZM12.6215 18.2193L12.6215 16.1473L19.1315 12.4093C19.5889 12.1386 20.0135 11.9333 20.4055 11.7933L20.4055 11.7653C19.9202 11.784 19.4909 11.7933 19.1175 11.7933L12.6215 11.7933L12.6215 10.1553L22.5615 10.1553L22.5615 12.1853L16.0235 15.9793C15.5475 16.25 15.1322 16.4506 14.7775 16.5813L14.7775 16.6093C15.0295 16.5906 15.4682 16.5813 16.0935 16.5813L22.5615 16.5813L22.5615 18.2193L12.6215 18.2193Z" fill="#676765"/>
<path d="M268.514 286.081H265.504V294.551H263.698V286.081H260.688V284.611H268.514V286.081ZM269.874 294.551V284.611H271.68V294.551H269.874ZM274.139 284.611H276.659L278.913 291.527C278.979 291.742 279.03 291.928 279.067 292.087C279.114 292.246 279.147 292.414 279.165 292.591H279.193C279.231 292.302 279.315 291.942 279.445 291.513L281.671 284.611H284.205V294.551H282.553V287.299C282.553 286.879 282.572 286.515 282.609 286.207H282.567C282.558 286.328 282.525 286.492 282.469 286.697C282.423 286.902 282.371 287.089 282.315 287.257L279.963 294.551H278.353L275.973 287.257C275.917 287.117 275.866 286.94 275.819 286.725C275.773 286.51 275.74 286.338 275.721 286.207H275.665C275.703 286.506 275.721 286.87 275.721 287.299V294.551H274.139V284.611ZM293.215 293.137V294.551H286.663V284.611H293.117V286.025H288.469V288.755H292.879V290.155H288.469V293.137H293.215Z" fill="#676765"/>
<path d="M296.562 8.05096C111.562 14.5509 121.632 279.157 6.42123 303.163" stroke="#27CAE1" stroke-width="9" stroke-linecap="round"/>
<path d="M226.562 6.05096C91.561 12.5512 43.1283 279.156 5.78916 302.661" stroke="#0D3071" stroke-width="9" stroke-linecap="round"/>
</g>
</svg>
