<svg width="377" height="390" viewBox="0 0 377 390" fill="none" xmlns="http://www.w3.org/2000/svg">
<path d="M286 361.5L246.5 1H255.5L262 10L276.5 138L376.5 130.5V141L278.5 160.5L297.5 336.5H305.5V361.5H286Z" fill="black"/>
<path d="M95.5 239L87.5 164.5C87.5 164.5 94.9911 162.476 99 164.5C103.545 166.795 106 175.5 106 175.5V226.5L153.5 222.5C153.5 222.5 157.456 224.339 159 226.5C161.837 230.472 159 239 159 239H95.5Z" fill="black"/>
<path d="M170.87 191.243C168.432 192.227 167.253 195.002 168.237 197.44C169.221 199.878 171.996 201.057 174.434 200.073L197.039 190.949L232.855 286.221L243.423 282.248L207.511 186.722L228.577 178.22C231.015 177.236 232.194 174.461 231.21 172.023C230.226 169.585 227.451 168.406 225.013 169.39L170.87 191.243Z" fill="black"/>
<path d="M260.5 353.5C260.5 361.508 254.008 368 246 368C237.992 368 231.5 361.508 231.5 353.5C231.5 345.492 237.992 339 246 339C254.008 339 260.5 345.492 260.5 353.5Z" fill="black"/>
<path fill-rule="evenodd" clip-rule="evenodd" d="M246.5 388C265.83 388 281.5 372.33 281.5 353C281.5 333.67 265.83 318 246.5 318C227.17 318 211.5 333.67 211.5 353C211.5 372.33 227.17 388 246.5 388ZM246 373C256.77 373 265.5 364.27 265.5 353.5C265.5 342.73 256.77 334 246 334C235.23 334 226.5 342.73 226.5 353.5C226.5 364.27 235.23 373 246 373Z" fill="black"/>
<path d="M20.8513 369C27.7674 380.956 40.6943 389 55.5 389C70.3056 389 83.2325 380.956 90.1487 369H20.8513Z" fill="black"/>
<path d="M1 364.5V288C1 288 0.999973 282.5 5 278.5C9.00003 274.5 17 275 17 275V244H159.5V291H205L268 275C268 275 270.5 273.5 272 285.5C273.281 295.752 274.928 318.046 275.38 324.325C268.1 316.729 257.852 312 246.5 312C224.409 312 206.5 329.909 206.5 352C206.5 356.365 207.199 360.567 208.492 364.5H1Z" fill="black"/>
<path d="M286 361.5L246.5 1H255.5L262 10L276.5 138L376.5 130.5V141L278.5 160.5L297.5 336.5H305.5V361.5H286Z" stroke="black"/>
<path d="M95.5 239L87.5 164.5C87.5 164.5 94.9911 162.476 99 164.5C103.545 166.795 106 175.5 106 175.5V226.5L153.5 222.5C153.5 222.5 157.456 224.339 159 226.5C161.837 230.472 159 239 159 239H95.5Z" stroke="black"/>
<path d="M170.87 191.243C168.432 192.227 167.253 195.002 168.237 197.44C169.221 199.878 171.996 201.057 174.434 200.073L197.039 190.949L232.855 286.221L243.423 282.248L207.511 186.722L228.577 178.22C231.015 177.236 232.194 174.461 231.21 172.023C230.226 169.585 227.451 168.406 225.013 169.39L170.87 191.243Z" stroke="black"/>
<path d="M260.5 353.5C260.5 361.508 254.008 368 246 368C237.992 368 231.5 361.508 231.5 353.5C231.5 345.492 237.992 339 246 339C254.008 339 260.5 345.492 260.5 353.5Z" stroke="black"/>
<path fill-rule="evenodd" clip-rule="evenodd" d="M246.5 388C265.83 388 281.5 372.33 281.5 353C281.5 333.67 265.83 318 246.5 318C227.17 318 211.5 333.67 211.5 353C211.5 372.33 227.17 388 246.5 388ZM246 373C256.77 373 265.5 364.27 265.5 353.5C265.5 342.73 256.77 334 246 334C235.23 334 226.5 342.73 226.5 353.5C226.5 364.27 235.23 373 246 373Z" stroke="black"/>
<path d="M20.8513 369C27.7674 380.956 40.6943 389 55.5 389C70.3056 389 83.2325 380.956 90.1487 369H20.8513Z" stroke="black"/>
<path d="M1 364.5V288C1 288 0.999973 282.5 5 278.5C9.00003 274.5 17 275 17 275V244H159.5V291H205L268 275C268 275 270.5 273.5 272 285.5C273.281 295.752 274.928 318.046 275.38 324.325C268.1 316.729 257.852 312 246.5 312C224.409 312 206.5 329.909 206.5 352C206.5 356.365 207.199 360.567 208.492 364.5H1Z" stroke="black"/>
</svg>
