<svg width="274" height="260" viewBox="0 0 274 260" fill="none" xmlns="http://www.w3.org/2000/svg">
<path d="M224 65.7533H49V109.78C49 111.437 50.3431 112.78 52 112.78H56.7093V213H216.291V112.78H221C222.657 112.78 224 111.437 224 109.78V65.7533Z" fill="#285BD4"/>
<path d="M143.978 147.047V152.212H154.308V175.456H118.152V152.212H128.482V147.047H112.987V180.621H159.474V147.047H143.978Z" fill="white"/>
<path d="M133.648 138.783V165.125H138.813V138.783L142.945 142.915L146.561 139.299L136.23 128.969L125.9 139.299L129.515 142.915L133.648 138.783Z" fill="white"/>
<path d="M75.9824 38H197.018L220.145 61.1278H52.8546L75.9824 38Z" fill="#285BD4"/>
</svg>
