<svg width="215" height="150" viewBox="0 0 215 150" fill="none" xmlns="http://www.w3.org/2000/svg">
<path d="M4.90909 72.8182V26.0454H29.2882L40.0909 37.1644V72.8182H4.90909Z" stroke="#34659A" stroke-width="3"/>
<path d="M25.0131 22.6364V32.1466C25.0131 33.5273 26.1324 34.6466 27.5131 34.6466H36.6818V69.4091H1.5V22.6364H25.0131ZM28.0131 24.8328L34.6331 31.6466H28.0131V24.8328Z" fill="white" stroke="#34659A" stroke-width="3"/>
<rect width="27.2727" height="20" transform="translate(5.45455 45)" fill="white"/>
<rect x="5.45455" y="45" width="27.2727" height="4" fill="#34659A"/>
<rect x="5.45455" y="53" width="27.2727" height="4" fill="#34659A"/>
<rect x="5.45455" y="61" width="27.2727" height="4" fill="#34659A"/>
<path d="M13.6362 117.264L1.36352 129.562L37.8408 129.23L37.8408 119.591L28.2953 110.284L17.3862 120.92L13.6362 117.264Z" fill="#34659A"/>
<mask id="path-7-inside-1_6_55" fill="white">
<rect y="103.636" width="38.1818" height="26.5909" rx="2"/>
</mask>
<rect y="103.636" width="38.1818" height="26.5909" rx="2" stroke="#34659A" stroke-width="6" mask="url(#path-7-inside-1_6_55)"/>
<ellipse cx="13.9773" cy="110.616" rx="2.38636" ry="2.3267" fill="#34659A"/>
<path d="M36.7759 107.727H39.2273C39.7796 107.727 40.2273 108.175 40.2273 108.727V131.955C40.2273 132.507 39.7796 132.955 39.2273 132.955H5.77273C5.22044 132.955 4.77273 132.507 4.77273 131.955V128.906" stroke="#34659A" stroke-width="3"/>
<path d="M63.9091 14.1364H213.591V146C213.591 147.933 212.024 149.5 210.091 149.5H67.4091C65.4761 149.5 63.9091 147.933 63.9091 146V14.1364Z" fill="white" stroke="#34659A"/>
<path d="M71.4091 0.5H206.091C210.233 0.5 213.591 3.85787 213.591 8V13.8182H63.9091V8C63.9091 3.85787 67.267 0.5 71.4091 0.5Z" fill="white" stroke="#34659A"/>
<circle cx="174.364" cy="6.77274" r="3" fill="#346598"/>
<circle cx="188.364" cy="6.77274" r="3" fill="#346598"/>
<circle cx="202.364" cy="6.77274" r="3" fill="#346598"/>
<path d="M99.6491 71.0386C77.5137 71.6597 51.0507 75.0291 50.489 104.656C51.1413 96.784 63.9093 79.7425 98.2406 88.0419L96.9103 104.1L125.163 82.9481L100.979 54.98L99.6491 71.0386Z" fill="url(#paint0_linear_6_55)"/>
<defs>
<linearGradient id="paint0_linear_6_55" x1="128.995" y1="86.5105" x2="18.9182" y2="108.745" gradientUnits="userSpaceOnUse">
<stop stop-color="#34659A"/>
<stop offset="1" stop-color="#C4C4C4" stop-opacity="0"/>
</linearGradient>
</defs>
</svg>
