<svg width="528" height="197" viewBox="0 0 528 197" fill="none" xmlns="http://www.w3.org/2000/svg">
<rect width="118" height="48" transform="translate(1.04761 43.6279)" fill="#F2F1ED"/>
<path d="M32.5676 64.0599V73.6279H30.7596V64.0599H27.4316V62.4599H35.8956V64.0599H32.5676ZM38.09 63.8199C37.7273 63.8199 37.4606 63.7346 37.29 63.5639C37.13 63.3933 37.05 63.1746 37.05 62.9079V62.6359C37.05 62.3693 37.13 62.1506 37.29 61.9799C37.4606 61.8093 37.7273 61.7239 38.09 61.7239C38.4526 61.7239 38.714 61.8093 38.874 61.9799C39.034 62.1506 39.114 62.3693 39.114 62.6359V62.9079C39.114 63.1746 39.034 63.3933 38.874 63.5639C38.714 63.7346 38.4526 63.8199 38.09 63.8199ZM37.21 65.3079H38.954V73.6279H37.21V65.3079ZM43.4284 73.6279C42.8204 73.6279 42.3617 73.4733 42.0524 73.1639C41.743 72.8439 41.5884 72.3959 41.5884 71.8199V66.7319H40.2924V65.3079H40.9964C41.2844 65.3079 41.4817 65.2439 41.5884 65.1159C41.7057 64.9879 41.7644 64.7799 41.7644 64.4919V63.0359H43.3324V65.3079H45.0764V66.7319H43.3324V72.2039H44.9484V73.6279H43.4284ZM48.4241 73.6279C47.8268 73.6279 47.3788 73.4786 47.0801 73.1799C46.7921 72.8706 46.6481 72.4439 46.6481 71.8999V61.7879H48.3921V72.2039H49.5441V73.6279H48.4241ZM54.1546 73.8199C53.5573 73.8199 53.0239 73.7186 52.5546 73.5159C52.0853 73.3133 51.6853 73.0253 51.3546 72.6519C51.0239 72.2679 50.7679 71.8093 50.5866 71.2759C50.4159 70.7319 50.3306 70.1293 50.3306 69.4679C50.3306 68.8066 50.4159 68.2093 50.5866 67.6759C50.7679 67.1319 51.0239 66.6733 51.3546 66.2999C51.6853 65.9159 52.0853 65.6226 52.5546 65.4199C53.0239 65.2173 53.5573 65.1159 54.1546 65.1159C54.7626 65.1159 55.2959 65.2226 55.7546 65.4359C56.2239 65.6493 56.6133 65.9479 56.9226 66.3319C57.2319 66.7053 57.4613 67.1426 57.6106 67.6439C57.7706 68.1453 57.8506 68.6839 57.8506 69.2599V69.9159H52.1386V70.1879C52.1386 70.8279 52.3253 71.3559 52.6986 71.7719C53.0826 72.1773 53.6266 72.3799 54.3306 72.3799C54.8426 72.3799 55.2746 72.2679 55.6266 72.0439C55.9786 71.8199 56.2773 71.5159 56.5226 71.1319L57.5466 72.1399C57.2373 72.6519 56.7893 73.0626 56.2026 73.3719C55.6159 73.6706 54.9333 73.8199 54.1546 73.8199ZM54.1546 66.4759C53.8559 66.4759 53.5786 66.5293 53.3226 66.6359C53.0773 66.7426 52.8639 66.8919 52.6826 67.0839C52.5119 67.2759 52.3786 67.5053 52.2826 67.7719C52.1866 68.0386 52.1386 68.3319 52.1386 68.6519V68.7639H56.0106V68.6039C56.0106 67.9639 55.8453 67.4519 55.5146 67.0679C55.1839 66.6733 54.7306 66.4759 54.1546 66.4759Z" fill="black"/>
<line x1="1.04761" y1="91.1279" x2="119.048" y2="91.1279" stroke="#D1CFC7"/>
<rect width="118" height="48" transform="translate(1.04761 91.6279)" fill="white"/>
<path d="M35.2396 112.22H35.1596L34.2156 114.092L31.5436 118.956L28.8716 114.092L27.9276 112.22H27.8476V121.628H26.5356V110.46H28.3276L31.5276 116.476H31.6076L34.8236 110.46H36.5516V121.628H35.2396V112.22ZM42.192 121.82C41.6373 121.82 41.1306 121.719 40.672 121.516C40.2133 121.313 39.8186 121.025 39.488 120.652C39.168 120.268 38.9173 119.815 38.736 119.292C38.5546 118.759 38.464 118.161 38.464 117.5C38.464 116.849 38.5546 116.257 38.736 115.724C38.9173 115.191 39.168 114.737 39.488 114.364C39.8186 113.98 40.2133 113.687 40.672 113.484C41.1306 113.281 41.6373 113.18 42.192 113.18C42.7466 113.18 43.248 113.281 43.696 113.484C44.1546 113.687 44.5493 113.98 44.88 114.364C45.2106 114.737 45.4666 115.191 45.648 115.724C45.8293 116.257 45.92 116.849 45.92 117.5C45.92 118.161 45.8293 118.759 45.648 119.292C45.4666 119.815 45.2106 120.268 44.88 120.652C44.5493 121.025 44.1546 121.313 43.696 121.516C43.248 121.719 42.7466 121.82 42.192 121.82ZM42.192 120.684C42.8853 120.684 43.4506 120.471 43.888 120.044C44.3253 119.617 44.544 118.967 44.544 118.092V116.908C44.544 116.033 44.3253 115.383 43.888 114.956C43.4506 114.529 42.8853 114.316 42.192 114.316C41.4986 114.316 40.9333 114.529 40.496 114.956C40.0586 115.383 39.84 116.033 39.84 116.908V118.092C39.84 118.967 40.0586 119.617 40.496 120.044C40.9333 120.471 41.4986 120.684 42.192 120.684ZM47.7051 121.628V113.372H48.9851V114.716H49.0491C49.2518 114.247 49.5344 113.873 49.8971 113.596C50.2704 113.319 50.7664 113.18 51.3851 113.18C52.2384 113.18 52.9104 113.457 53.4011 114.012C53.9024 114.556 54.1531 115.329 54.1531 116.332V121.628H52.8731V116.556C52.8731 115.073 52.2491 114.332 51.0011 114.332C50.7451 114.332 50.4944 114.364 50.2491 114.428C50.0144 114.492 49.8011 114.588 49.6091 114.716C49.4171 114.844 49.2624 115.009 49.1451 115.212C49.0384 115.404 48.9851 115.633 48.9851 115.9V121.628H47.7051ZM62.4789 121.628C61.9989 121.628 61.6522 121.5 61.4389 121.244C61.2362 120.988 61.1082 120.668 61.0549 120.284H60.9749C60.7935 120.796 60.4949 121.18 60.0789 121.436C59.6629 121.692 59.1669 121.82 58.5909 121.82C57.7162 121.82 57.0335 121.596 56.5429 121.148C56.0629 120.7 55.8229 120.092 55.8229 119.324C55.8229 118.545 56.1055 117.948 56.6709 117.532C57.2469 117.116 58.1375 116.908 59.3429 116.908H60.9749V116.092C60.9749 115.505 60.8149 115.057 60.4949 114.748C60.1749 114.439 59.6842 114.284 59.0229 114.284C58.5215 114.284 58.1002 114.396 57.7589 114.62C57.4282 114.844 57.1509 115.143 56.9269 115.516L56.1589 114.796C56.3829 114.348 56.7402 113.969 57.2309 113.66C57.7215 113.34 58.3402 113.18 59.0869 113.18C60.0895 113.18 60.8682 113.425 61.4229 113.916C61.9775 114.407 62.2549 115.089 62.2549 115.964V120.508H63.1989V121.628H62.4789ZM58.7989 120.732C59.1189 120.732 59.4122 120.695 59.6789 120.62C59.9455 120.545 60.1749 120.439 60.3669 120.3C60.5589 120.161 60.7082 120.001 60.8149 119.82C60.9215 119.639 60.9749 119.441 60.9749 119.228V117.868H59.2789C58.5429 117.868 58.0042 117.975 57.6629 118.188C57.3322 118.401 57.1669 118.711 57.1669 119.116V119.452C57.1669 119.857 57.3109 120.172 57.5989 120.396C57.8975 120.62 58.2975 120.732 58.7989 120.732ZM68.295 121.628V110.46H69.639V120.444H74.391V121.628H68.295ZM76.5026 111.436C76.2253 111.436 76.0226 111.372 75.8946 111.244C75.7773 111.105 75.7186 110.929 75.7186 110.716V110.508C75.7186 110.295 75.7773 110.124 75.8946 109.996C76.0226 109.857 76.2253 109.788 76.5026 109.788C76.7799 109.788 76.9773 109.857 77.0946 109.996C77.2226 110.124 77.2866 110.295 77.2866 110.508V110.716C77.2866 110.929 77.2226 111.105 77.0946 111.244C76.9773 111.372 76.7799 111.436 76.5026 111.436ZM75.8626 113.372H77.1426V121.628H75.8626V113.372ZM82.0226 121.82C81.2546 121.82 80.6093 121.676 80.0866 121.388C79.5746 121.089 79.1319 120.695 78.7586 120.204L79.6706 119.468C79.9906 119.873 80.3479 120.188 80.7426 120.412C81.1373 120.625 81.5959 120.732 82.1186 120.732C82.6626 120.732 83.0839 120.615 83.3826 120.38C83.6919 120.145 83.8466 119.815 83.8466 119.388C83.8466 119.068 83.7399 118.796 83.5266 118.572C83.3239 118.337 82.9506 118.177 82.4066 118.092L81.7506 117.996C81.3666 117.943 81.0146 117.863 80.6946 117.756C80.3746 117.639 80.0919 117.489 79.8466 117.308C79.6119 117.116 79.4253 116.881 79.2866 116.604C79.1586 116.327 79.0946 115.996 79.0946 115.612C79.0946 115.207 79.1693 114.855 79.3186 114.556C79.4679 114.247 79.6706 113.991 79.9266 113.788C80.1933 113.585 80.5079 113.436 80.8706 113.34C81.2333 113.233 81.6226 113.18 82.0386 113.18C82.7106 113.18 83.2706 113.297 83.7186 113.532C84.1773 113.767 84.5773 114.092 84.9186 114.508L84.0706 115.276C83.8893 115.02 83.6226 114.791 83.2706 114.588C82.9186 114.375 82.4759 114.268 81.9426 114.268C81.4093 114.268 81.0039 114.385 80.7266 114.62C80.4599 114.844 80.3266 115.153 80.3266 115.548C80.3266 115.953 80.4599 116.247 80.7266 116.428C81.0039 116.609 81.3986 116.743 81.9106 116.828L82.5506 116.924C83.4679 117.063 84.1186 117.329 84.5026 117.724C84.8866 118.108 85.0786 118.615 85.0786 119.244C85.0786 120.044 84.8066 120.673 84.2626 121.132C83.7186 121.591 82.9719 121.82 82.0226 121.82ZM93.0195 121.628C92.5395 121.628 92.1928 121.5 91.9795 121.244C91.7768 120.988 91.6488 120.668 91.5955 120.284H91.5155C91.3341 120.796 91.0355 121.18 90.6195 121.436C90.2035 121.692 89.7075 121.82 89.1315 121.82C88.2568 121.82 87.5741 121.596 87.0835 121.148C86.6035 120.7 86.3635 120.092 86.3635 119.324C86.3635 118.545 86.6461 117.948 87.2115 117.532C87.7875 117.116 88.6781 116.908 89.8835 116.908H91.5155V116.092C91.5155 115.505 91.3555 115.057 91.0355 114.748C90.7155 114.439 90.2248 114.284 89.5635 114.284C89.0621 114.284 88.6408 114.396 88.2995 114.62C87.9688 114.844 87.6915 115.143 87.4675 115.516L86.6995 114.796C86.9235 114.348 87.2808 113.969 87.7715 113.66C88.2621 113.34 88.8808 113.18 89.6275 113.18C90.6301 113.18 91.4088 113.425 91.9635 113.916C92.5181 114.407 92.7955 115.089 92.7955 115.964V120.508H93.7395V121.628H93.0195ZM89.3395 120.732C89.6595 120.732 89.9528 120.695 90.2195 120.62C90.4861 120.545 90.7155 120.439 90.9075 120.3C91.0995 120.161 91.2488 120.001 91.3555 119.82C91.4621 119.639 91.5155 119.441 91.5155 119.228V117.868H89.8195C89.0835 117.868 88.5448 117.975 88.2035 118.188C87.8728 118.401 87.7075 118.711 87.7075 119.116V119.452C87.7075 119.857 87.8515 120.172 88.1395 120.396C88.4381 120.62 88.8381 120.732 89.3395 120.732Z" fill="black"/>
<rect x="119.048" y="43.6279" width="1" height="96" fill="#D1CFC7"/>
<rect width="284" height="48" transform="translate(120.048 43.6279)" fill="#F2F1ED"/>
<path d="M147.424 62.4599H151.376C152.09 62.4599 152.736 62.5773 153.312 62.8119C153.898 63.0466 154.394 63.3986 154.8 63.8679C155.216 64.3266 155.536 64.9079 155.76 65.6119C155.984 66.3053 156.096 67.1159 156.096 68.0439C156.096 68.9719 155.984 69.7879 155.76 70.4919C155.536 71.1853 155.216 71.7666 154.8 72.2359C154.394 72.6946 153.898 73.0413 153.312 73.2759C152.736 73.5106 152.09 73.6279 151.376 73.6279H147.424V62.4599ZM151.376 72.0279C152.208 72.0279 152.88 71.7666 153.392 71.2439C153.904 70.7213 154.16 69.9533 154.16 68.9399V67.1479C154.16 66.1346 153.904 65.3666 153.392 64.8439C152.88 64.3213 152.208 64.0599 151.376 64.0599H149.232V72.0279H151.376ZM161.161 73.8199C160.564 73.8199 160.031 73.7186 159.561 73.5159C159.092 73.3133 158.692 73.0253 158.361 72.6519C158.031 72.2679 157.775 71.8093 157.593 71.2759C157.423 70.7319 157.337 70.1293 157.337 69.4679C157.337 68.8066 157.423 68.2093 157.593 67.6759C157.775 67.1319 158.031 66.6733 158.361 66.2999C158.692 65.9159 159.092 65.6226 159.561 65.4199C160.031 65.2173 160.564 65.1159 161.161 65.1159C161.769 65.1159 162.303 65.2226 162.761 65.4359C163.231 65.6493 163.62 65.9479 163.929 66.3319C164.239 66.7053 164.468 67.1426 164.617 67.6439C164.777 68.1453 164.857 68.6839 164.857 69.2599V69.9159H159.145V70.1879C159.145 70.8279 159.332 71.3559 159.705 71.7719C160.089 72.1773 160.633 72.3799 161.337 72.3799C161.849 72.3799 162.281 72.2679 162.633 72.0439C162.985 71.8199 163.284 71.5159 163.529 71.1319L164.553 72.1399C164.244 72.6519 163.796 73.0626 163.209 73.3719C162.623 73.6706 161.94 73.8199 161.161 73.8199ZM161.161 66.4759C160.863 66.4759 160.585 66.5293 160.329 66.6359C160.084 66.7426 159.871 66.8919 159.689 67.0839C159.519 67.2759 159.385 67.5053 159.289 67.7719C159.193 68.0386 159.145 68.3319 159.145 68.6519V68.7639H163.017V68.6039C163.017 67.9639 162.852 67.4519 162.521 67.0679C162.191 66.6733 161.737 66.4759 161.161 66.4759ZM169.108 73.8199C168.319 73.8199 167.657 73.6813 167.124 73.4039C166.591 73.1266 166.127 72.7426 165.732 72.2519L166.852 71.2279C167.161 71.6013 167.503 71.8946 167.876 72.1079C168.26 72.3106 168.703 72.4119 169.204 72.4119C169.716 72.4119 170.095 72.3159 170.34 72.1239C170.596 71.9213 170.724 71.6439 170.724 71.2919C170.724 71.0253 170.633 70.8013 170.452 70.6199C170.281 70.4279 169.977 70.3053 169.54 70.2519L168.772 70.1559C167.919 70.0493 167.247 69.8039 166.756 69.4199C166.276 69.0253 166.036 68.4439 166.036 67.6759C166.036 67.2706 166.111 66.9133 166.26 66.6039C166.409 66.2839 166.617 66.0173 166.884 65.8039C167.161 65.5799 167.487 65.4093 167.86 65.2919C168.244 65.1746 168.665 65.1159 169.124 65.1159C169.871 65.1159 170.479 65.2333 170.948 65.4679C171.428 65.7026 171.855 66.0279 172.228 66.4439L171.156 67.4679C170.943 67.2119 170.66 66.9933 170.308 66.8119C169.967 66.6199 169.572 66.5239 169.124 66.5239C168.644 66.5239 168.287 66.6199 168.052 66.8119C167.828 67.0039 167.716 67.2546 167.716 67.5639C167.716 67.8839 167.817 68.1239 168.02 68.2839C168.223 68.4439 168.548 68.5613 168.996 68.6359L169.764 68.7319C170.681 68.8706 171.348 69.1426 171.764 69.5479C172.191 69.9426 172.404 70.4759 172.404 71.1479C172.404 71.5533 172.324 71.9213 172.164 72.2519C172.015 72.5719 171.796 72.8493 171.508 73.0839C171.22 73.3186 170.873 73.4999 170.468 73.6279C170.063 73.7559 169.609 73.8199 169.108 73.8199ZM177.27 73.8199C176.673 73.8199 176.14 73.7186 175.67 73.5159C175.201 73.3133 174.806 73.0253 174.486 72.6519C174.166 72.2679 173.921 71.8093 173.75 71.2759C173.58 70.7319 173.494 70.1293 173.494 69.4679C173.494 68.8066 173.58 68.2093 173.75 67.6759C173.921 67.1319 174.166 66.6733 174.486 66.2999C174.806 65.9159 175.201 65.6226 175.67 65.4199C176.14 65.2173 176.673 65.1159 177.27 65.1159C178.102 65.1159 178.785 65.3026 179.318 65.6759C179.852 66.0493 180.241 66.5453 180.486 67.1639L179.046 67.8359C178.929 67.4519 178.721 67.1479 178.422 66.9239C178.134 66.6893 177.75 66.5719 177.27 66.5719C176.63 66.5719 176.145 66.7746 175.814 67.1799C175.494 67.5746 175.334 68.0919 175.334 68.7319V70.2199C175.334 70.8599 175.494 71.3826 175.814 71.7879C176.145 72.1826 176.63 72.3799 177.27 72.3799C177.782 72.3799 178.188 72.2573 178.486 72.0119C178.796 71.7559 179.041 71.4199 179.222 71.0039L180.55 71.7079C180.273 72.3906 179.857 72.9133 179.302 73.2759C178.748 73.6386 178.07 73.8199 177.27 73.8199ZM181.891 73.6279V65.3079H183.635V66.9079H183.715C183.832 66.4813 184.077 66.1079 184.451 65.7879C184.824 65.4679 185.341 65.3079 186.003 65.3079H186.467V66.9879H185.779C185.085 66.9879 184.552 67.0999 184.179 67.3239C183.816 67.5479 183.635 67.8786 183.635 68.3159V73.6279H181.891ZM188.576 63.8199C188.213 63.8199 187.946 63.7346 187.776 63.5639C187.616 63.3933 187.536 63.1746 187.536 62.9079V62.6359C187.536 62.3693 187.616 62.1506 187.776 61.9799C187.946 61.8093 188.213 61.7239 188.576 61.7239C188.938 61.7239 189.2 61.8093 189.36 61.9799C189.52 62.1506 189.6 62.3693 189.6 62.6359V62.9079C189.6 63.1746 189.52 63.3933 189.36 63.5639C189.2 63.7346 188.938 63.8199 188.576 63.8199ZM187.696 65.3079H189.44V73.6279H187.696V65.3079ZM191.61 65.3079H193.354V66.6839H193.434C193.615 66.1826 193.909 65.7986 194.314 65.5319C194.73 65.2546 195.215 65.1159 195.77 65.1159C196.826 65.1159 197.642 65.4999 198.218 66.2679C198.794 67.0253 199.082 68.0919 199.082 69.4679C199.082 70.8439 198.794 71.9159 198.218 72.6839C197.642 73.4413 196.826 73.8199 195.77 73.8199C195.215 73.8199 194.73 73.6813 194.314 73.4039C193.909 73.1266 193.615 72.7426 193.434 72.2519H193.354V76.8279H191.61V65.3079ZM195.242 72.3159C195.85 72.3159 196.335 72.1239 196.698 71.7399C197.061 71.3453 197.242 70.8279 197.242 70.1879V68.7479C197.242 68.1079 197.061 67.5959 196.698 67.2119C196.335 66.8173 195.85 66.6199 195.242 66.6199C194.709 66.6199 194.261 66.7533 193.898 67.0199C193.535 67.2759 193.354 67.6173 193.354 68.0439V70.8919C193.354 71.3186 193.535 71.6653 193.898 71.9319C194.261 72.1879 194.709 72.3159 195.242 72.3159ZM202.969 73.6279C202.361 73.6279 201.902 73.4733 201.593 73.1639C201.284 72.8439 201.129 72.3959 201.129 71.8199V66.7319H199.833V65.3079H200.537C200.825 65.3079 201.022 65.2439 201.129 65.1159C201.246 64.9879 201.305 64.7799 201.305 64.4919V63.0359H202.873V65.3079H204.617V66.7319H202.873V72.2039H204.489V73.6279H202.969ZM207.069 63.8199C206.706 63.8199 206.439 63.7346 206.269 63.5639C206.109 63.3933 206.029 63.1746 206.029 62.9079V62.6359C206.029 62.3693 206.109 62.1506 206.269 61.9799C206.439 61.8093 206.706 61.7239 207.069 61.7239C207.431 61.7239 207.693 61.8093 207.853 61.9799C208.013 62.1506 208.093 62.3693 208.093 62.6359V62.9079C208.093 63.1746 208.013 63.3933 207.853 63.5639C207.693 63.7346 207.431 63.8199 207.069 63.8199ZM206.189 65.3079H207.933V73.6279H206.189V65.3079ZM213.367 73.8199C212.791 73.8199 212.263 73.7186 211.783 73.5159C211.314 73.3133 210.914 73.0253 210.583 72.6519C210.252 72.2679 209.996 71.8093 209.815 71.2759C209.634 70.7319 209.543 70.1293 209.543 69.4679C209.543 68.8066 209.634 68.2093 209.815 67.6759C209.996 67.1319 210.252 66.6733 210.583 66.2999C210.914 65.9159 211.314 65.6226 211.783 65.4199C212.263 65.2173 212.791 65.1159 213.367 65.1159C213.943 65.1159 214.466 65.2173 214.935 65.4199C215.415 65.6226 215.82 65.9159 216.151 66.2999C216.482 66.6733 216.738 67.1319 216.919 67.6759C217.1 68.2093 217.191 68.8066 217.191 69.4679C217.191 70.1293 217.1 70.7319 216.919 71.2759C216.738 71.8093 216.482 72.2679 216.151 72.6519C215.82 73.0253 215.415 73.3133 214.935 73.5159C214.466 73.7186 213.943 73.8199 213.367 73.8199ZM213.367 72.3799C213.964 72.3799 214.444 72.1986 214.807 71.8359C215.17 71.4626 215.351 70.9079 215.351 70.1719V68.7639C215.351 68.0279 215.17 67.4786 214.807 67.1159C214.444 66.7426 213.964 66.5559 213.367 66.5559C212.77 66.5559 212.29 66.7426 211.927 67.1159C211.564 67.4786 211.383 68.0279 211.383 68.7639V70.1719C211.383 70.9079 211.564 71.4626 211.927 71.8359C212.29 72.1986 212.77 72.3799 213.367 72.3799ZM218.814 73.6279V65.3079H220.558V66.6839H220.638C220.82 66.2359 221.092 65.8626 221.454 65.5639C221.828 65.2653 222.334 65.1159 222.974 65.1159C223.828 65.1159 224.489 65.3986 224.958 65.9639C225.438 66.5186 225.678 67.3133 225.678 68.3479V73.6279H223.934V68.5719C223.934 67.2706 223.412 66.6199 222.366 66.6199C222.142 66.6199 221.918 66.6519 221.694 66.7159C221.481 66.7693 221.289 66.8546 221.118 66.9719C220.948 67.0893 220.809 67.2386 220.702 67.4199C220.606 67.6013 220.558 67.8146 220.558 68.0599V73.6279H218.814Z" fill="black"/>
<line x1="120.048" y1="91.1279" x2="404.048" y2="91.1279" stroke="#D1CFC7"/>
<rect width="284" height="48" transform="translate(120.048 91.6279)" fill="white"/>
<path d="M152.528 121.628L151.408 118.332H146.896L145.776 121.628H144.416L148.32 110.46H150.032L153.936 121.628H152.528ZM149.184 111.708H149.104L147.216 117.148H151.072L149.184 111.708ZM158.799 113.372H160.079V114.716H160.143C160.356 114.193 160.666 113.809 161.071 113.564C161.487 113.308 161.983 113.18 162.559 113.18C163.071 113.18 163.535 113.281 163.951 113.484C164.367 113.687 164.719 113.975 165.007 114.348C165.306 114.721 165.53 115.175 165.679 115.708C165.839 116.241 165.919 116.839 165.919 117.5C165.919 118.161 165.839 118.759 165.679 119.292C165.53 119.825 165.306 120.279 165.007 120.652C164.719 121.025 164.367 121.313 163.951 121.516C163.535 121.719 163.071 121.82 162.559 121.82C161.439 121.82 160.634 121.308 160.143 120.284H160.079V124.828H158.799V113.372ZM162.207 120.668C162.932 120.668 163.503 120.444 163.919 119.996C164.335 119.537 164.543 118.94 164.543 118.204V116.796C164.543 116.06 164.335 115.468 163.919 115.02C163.503 114.561 162.932 114.332 162.207 114.332C161.919 114.332 161.642 114.375 161.375 114.46C161.119 114.535 160.895 114.641 160.703 114.78C160.511 114.919 160.356 115.089 160.239 115.292C160.132 115.484 160.079 115.692 160.079 115.916V118.988C160.079 119.255 160.132 119.495 160.239 119.708C160.356 119.911 160.511 120.087 160.703 120.236C160.895 120.375 161.119 120.481 161.375 120.556C161.642 120.631 161.919 120.668 162.207 120.668ZM173.76 121.628C173.28 121.628 172.933 121.5 172.72 121.244C172.517 120.988 172.389 120.668 172.336 120.284H172.256C172.075 120.796 171.776 121.18 171.36 121.436C170.944 121.692 170.448 121.82 169.872 121.82C168.997 121.82 168.315 121.596 167.824 121.148C167.344 120.7 167.104 120.092 167.104 119.324C167.104 118.545 167.387 117.948 167.952 117.532C168.528 117.116 169.419 116.908 170.624 116.908H172.256V116.092C172.256 115.505 172.096 115.057 171.776 114.748C171.456 114.439 170.965 114.284 170.304 114.284C169.803 114.284 169.381 114.396 169.04 114.62C168.709 114.844 168.432 115.143 168.208 115.516L167.44 114.796C167.664 114.348 168.021 113.969 168.512 113.66C169.003 113.34 169.621 113.18 170.368 113.18C171.371 113.18 172.149 113.425 172.704 113.916C173.259 114.407 173.536 115.089 173.536 115.964V120.508H174.48V121.628H173.76ZM170.08 120.732C170.4 120.732 170.693 120.695 170.96 120.62C171.227 120.545 171.456 120.439 171.648 120.3C171.84 120.161 171.989 120.001 172.096 119.82C172.203 119.639 172.256 119.441 172.256 119.228V117.868H170.56C169.824 117.868 169.285 117.975 168.944 118.188C168.613 118.401 168.448 118.711 168.448 119.116V119.452C168.448 119.857 168.592 120.172 168.88 120.396C169.179 120.62 169.579 120.732 170.08 120.732ZM176.627 111.436C176.35 111.436 176.147 111.372 176.019 111.244C175.902 111.105 175.843 110.929 175.843 110.716V110.508C175.843 110.295 175.902 110.124 176.019 109.996C176.147 109.857 176.35 109.788 176.627 109.788C176.904 109.788 177.102 109.857 177.219 109.996C177.347 110.124 177.411 110.295 177.411 110.508V110.716C177.411 110.929 177.347 111.105 177.219 111.244C177.102 111.372 176.904 111.436 176.627 111.436ZM175.987 113.372H177.267V121.628H175.987V113.372ZM179.667 121.628V113.372H180.947V114.716H181.011C181.214 114.247 181.496 113.873 181.859 113.596C182.232 113.319 182.728 113.18 183.347 113.18C184.2 113.18 184.872 113.457 185.363 114.012C185.864 114.556 186.115 115.329 186.115 116.332V121.628H184.835V116.556C184.835 115.073 184.211 114.332 182.963 114.332C182.707 114.332 182.456 114.364 182.211 114.428C181.976 114.492 181.763 114.588 181.571 114.716C181.379 114.844 181.224 115.009 181.107 115.212C181 115.404 180.947 115.633 180.947 115.9V121.628H179.667ZM190.265 121.628C189.817 121.628 189.475 121.505 189.241 121.26C189.017 121.004 188.905 120.673 188.905 120.268V114.492H187.545V113.372H188.313C188.59 113.372 188.777 113.319 188.873 113.212C188.979 113.095 189.033 112.897 189.033 112.62V111.084H190.185V113.372H191.993V114.492H190.185V120.508H191.865V121.628H190.265ZM194.37 111.436C194.093 111.436 193.89 111.372 193.762 111.244C193.645 111.105 193.586 110.929 193.586 110.716V110.508C193.586 110.295 193.645 110.124 193.762 109.996C193.89 109.857 194.093 109.788 194.37 109.788C194.647 109.788 194.845 109.857 194.962 109.996C195.09 110.124 195.154 110.295 195.154 110.508V110.716C195.154 110.929 195.09 111.105 194.962 111.244C194.845 111.372 194.647 111.436 194.37 111.436ZM193.73 113.372H195.01V121.628H193.73V113.372ZM197.41 121.628V113.372H198.69V114.716H198.754C198.957 114.247 199.239 113.873 199.602 113.596C199.975 113.319 200.471 113.18 201.09 113.18C201.943 113.18 202.615 113.457 203.106 114.012C203.607 114.556 203.858 115.329 203.858 116.332V121.628H202.578V116.556C202.578 115.073 201.954 114.332 200.706 114.332C200.45 114.332 200.199 114.364 199.954 114.428C199.719 114.492 199.506 114.588 199.314 114.716C199.122 114.844 198.967 115.009 198.85 115.212C198.743 115.404 198.69 115.633 198.69 115.9V121.628H197.41ZM213.144 122.54C213.144 123.393 212.808 124.017 212.136 124.412C211.475 124.817 210.477 125.02 209.144 125.02C207.853 125.02 206.925 124.844 206.36 124.492C205.795 124.14 205.512 123.639 205.512 122.988C205.512 122.54 205.629 122.188 205.864 121.932C206.099 121.687 206.419 121.505 206.824 121.388V121.212C206.333 120.977 206.088 120.593 206.088 120.06C206.088 119.644 206.221 119.329 206.488 119.116C206.755 118.892 207.096 118.727 207.512 118.62V118.556C207.021 118.321 206.637 117.985 206.36 117.548C206.093 117.111 205.96 116.604 205.96 116.028C205.96 115.612 206.035 115.228 206.184 114.876C206.333 114.524 206.541 114.225 206.808 113.98C207.085 113.724 207.411 113.527 207.784 113.388C208.168 113.249 208.595 113.18 209.064 113.18C209.651 113.18 210.173 113.287 210.632 113.5V113.356C210.632 113.036 210.707 112.775 210.856 112.572C211.005 112.359 211.251 112.252 211.592 112.252H212.824V113.372H211.256V113.9C211.555 114.156 211.784 114.465 211.944 114.828C212.115 115.18 212.2 115.58 212.2 116.028C212.2 116.444 212.125 116.828 211.976 117.18C211.827 117.532 211.613 117.836 211.336 118.092C211.069 118.337 210.744 118.529 210.36 118.668C209.976 118.807 209.549 118.876 209.08 118.876C208.813 118.876 208.547 118.849 208.28 118.796C208.003 118.871 207.752 118.983 207.528 119.132C207.304 119.271 207.192 119.468 207.192 119.724C207.192 119.969 207.309 120.135 207.544 120.22C207.779 120.305 208.083 120.348 208.456 120.348H210.216C211.24 120.348 211.981 120.545 212.44 120.94C212.909 121.324 213.144 121.857 213.144 122.54ZM211.944 122.636C211.944 122.305 211.816 122.039 211.56 121.836C211.315 121.644 210.872 121.548 210.232 121.548H207.48C206.968 121.783 206.712 122.156 206.712 122.668C206.712 123.031 206.845 123.34 207.112 123.596C207.389 123.852 207.853 123.98 208.504 123.98H209.688C210.403 123.98 210.957 123.868 211.352 123.644C211.747 123.42 211.944 123.084 211.944 122.636ZM209.08 117.852C209.624 117.852 210.056 117.724 210.376 117.468C210.696 117.201 210.856 116.796 210.856 116.252V115.804C210.856 115.26 210.696 114.86 210.376 114.604C210.056 114.337 209.624 114.204 209.08 114.204C208.536 114.204 208.104 114.337 207.784 114.604C207.464 114.86 207.304 115.26 207.304 115.804V116.252C207.304 116.796 207.464 117.201 207.784 117.468C208.104 117.724 208.536 117.852 209.08 117.852ZM217.778 109.788H219.058V114.716H219.122C219.336 114.193 219.645 113.809 220.05 113.564C220.466 113.308 220.962 113.18 221.538 113.18C222.05 113.18 222.514 113.281 222.93 113.484C223.346 113.687 223.698 113.975 223.986 114.348C224.285 114.721 224.509 115.175 224.658 115.708C224.818 116.241 224.898 116.839 224.898 117.5C224.898 118.161 224.818 118.759 224.658 119.292C224.509 119.825 224.285 120.279 223.986 120.652C223.698 121.025 223.346 121.313 222.93 121.516C222.514 121.719 222.05 121.82 221.538 121.82C220.418 121.82 219.613 121.308 219.122 120.284H219.058V121.628H217.778V109.788ZM221.186 120.668C221.912 120.668 222.482 120.444 222.898 119.996C223.314 119.537 223.522 118.94 223.522 118.204V116.796C223.522 116.06 223.314 115.468 222.898 115.02C222.482 114.561 221.912 114.332 221.186 114.332C220.898 114.332 220.621 114.375 220.354 114.46C220.098 114.535 219.874 114.641 219.682 114.78C219.49 114.919 219.336 115.089 219.218 115.292C219.112 115.484 219.058 115.692 219.058 115.916V118.988C219.058 119.255 219.112 119.495 219.218 119.708C219.336 119.911 219.49 120.087 219.682 120.236C219.874 120.375 220.098 120.481 220.354 120.556C220.621 120.631 220.898 120.668 221.186 120.668ZM231.749 113.372H233.013L229.317 123.548C229.221 123.793 229.125 123.996 229.029 124.156C228.933 124.327 228.816 124.46 228.677 124.556C228.539 124.652 228.363 124.721 228.149 124.764C227.947 124.807 227.696 124.828 227.397 124.828H226.741V123.708H228.037L228.661 121.948L225.573 113.372H226.853L228.837 118.988L229.221 120.332H229.301L229.749 118.988L231.749 113.372ZM237.915 121.628V110.46H239.259V120.444H244.011V121.628H237.915ZM248.43 121.82C247.865 121.82 247.353 121.719 246.894 121.516C246.446 121.313 246.057 121.025 245.726 120.652C245.406 120.268 245.156 119.815 244.974 119.292C244.804 118.759 244.718 118.161 244.718 117.5C244.718 116.849 244.804 116.257 244.974 115.724C245.156 115.191 245.406 114.737 245.726 114.364C246.057 113.98 246.446 113.687 246.894 113.484C247.353 113.281 247.865 113.18 248.43 113.18C248.985 113.18 249.481 113.281 249.918 113.484C250.356 113.687 250.729 113.969 251.038 114.332C251.348 114.684 251.582 115.105 251.742 115.596C251.913 116.087 251.998 116.625 251.998 117.212V117.82H246.062V118.204C246.062 118.556 246.116 118.887 246.222 119.196C246.34 119.495 246.5 119.756 246.702 119.98C246.916 120.204 247.172 120.38 247.47 120.508C247.78 120.636 248.126 120.7 248.51 120.7C249.033 120.7 249.486 120.577 249.87 120.332C250.265 120.087 250.569 119.735 250.782 119.276L251.694 119.932C251.428 120.497 251.012 120.956 250.446 121.308C249.881 121.649 249.209 121.82 248.43 121.82ZM248.43 114.252C248.078 114.252 247.758 114.316 247.47 114.444C247.182 114.561 246.932 114.732 246.718 114.956C246.516 115.18 246.356 115.447 246.238 115.756C246.121 116.055 246.062 116.385 246.062 116.748V116.86H250.622V116.684C250.622 115.948 250.42 115.361 250.014 114.924C249.62 114.476 249.092 114.252 248.43 114.252ZM256.908 121.82C256.353 121.82 255.846 121.719 255.388 121.516C254.929 121.313 254.534 121.025 254.204 120.652C253.884 120.268 253.633 119.815 253.452 119.292C253.27 118.759 253.18 118.161 253.18 117.5C253.18 116.849 253.27 116.257 253.452 115.724C253.633 115.191 253.884 114.737 254.204 114.364C254.534 113.98 254.929 113.687 255.388 113.484C255.846 113.281 256.353 113.18 256.908 113.18C257.462 113.18 257.964 113.281 258.412 113.484C258.87 113.687 259.265 113.98 259.596 114.364C259.926 114.737 260.182 115.191 260.364 115.724C260.545 116.257 260.636 116.849 260.636 117.5C260.636 118.161 260.545 118.759 260.364 119.292C260.182 119.815 259.926 120.268 259.596 120.652C259.265 121.025 258.87 121.313 258.412 121.516C257.964 121.719 257.462 121.82 256.908 121.82ZM256.908 120.684C257.601 120.684 258.166 120.471 258.604 120.044C259.041 119.617 259.26 118.967 259.26 118.092V116.908C259.26 116.033 259.041 115.383 258.604 114.956C258.166 114.529 257.601 114.316 256.908 114.316C256.214 114.316 255.649 114.529 255.212 114.956C254.774 115.383 254.556 116.033 254.556 116.908V118.092C254.556 118.967 254.774 119.617 255.212 120.044C255.649 120.471 256.214 120.684 256.908 120.684ZM262.421 121.628V113.372H263.701V114.716H263.765C263.967 114.247 264.25 113.873 264.613 113.596C264.986 113.319 265.482 113.18 266.101 113.18C266.954 113.18 267.626 113.457 268.117 114.012C268.618 114.556 268.869 115.329 268.869 116.332V121.628H267.589V116.556C267.589 115.073 266.965 114.332 265.717 114.332C265.461 114.332 265.21 114.364 264.965 114.428C264.73 114.492 264.517 114.588 264.325 114.716C264.133 114.844 263.978 115.009 263.861 115.212C263.754 115.404 263.701 115.633 263.701 115.9V121.628H262.421ZM277.194 121.628C276.714 121.628 276.368 121.5 276.154 121.244C275.952 120.988 275.824 120.668 275.77 120.284H275.69C275.509 120.796 275.21 121.18 274.794 121.436C274.378 121.692 273.882 121.82 273.306 121.82C272.432 121.82 271.749 121.596 271.258 121.148C270.778 120.7 270.538 120.092 270.538 119.324C270.538 118.545 270.821 117.948 271.386 117.532C271.962 117.116 272.853 116.908 274.058 116.908H275.69V116.092C275.69 115.505 275.53 115.057 275.21 114.748C274.89 114.439 274.4 114.284 273.738 114.284C273.237 114.284 272.816 114.396 272.474 114.62C272.144 114.844 271.866 115.143 271.642 115.516L270.874 114.796C271.098 114.348 271.456 113.969 271.946 113.66C272.437 113.34 273.056 113.18 273.802 113.18C274.805 113.18 275.584 113.425 276.138 113.916C276.693 114.407 276.97 115.089 276.97 115.964V120.508H277.914V121.628H277.194ZM273.514 120.732C273.834 120.732 274.128 120.695 274.394 120.62C274.661 120.545 274.89 120.439 275.082 120.3C275.274 120.161 275.424 120.001 275.53 119.82C275.637 119.639 275.69 119.441 275.69 119.228V117.868H273.994C273.258 117.868 272.72 117.975 272.378 118.188C272.048 118.401 271.882 118.711 271.882 119.116V119.452C271.882 119.857 272.026 120.172 272.314 120.396C272.613 120.62 273.013 120.732 273.514 120.732ZM279.421 121.628V113.372H280.701V114.892H280.781C280.931 114.497 281.197 114.145 281.581 113.836C281.965 113.527 282.493 113.372 283.165 113.372H283.661V114.652H282.909C282.216 114.652 281.672 114.785 281.277 115.052C280.893 115.308 280.701 115.633 280.701 116.028V121.628H279.421ZM290.163 120.284H290.099C289.597 121.308 288.792 121.82 287.683 121.82C287.171 121.82 286.707 121.719 286.291 121.516C285.875 121.313 285.517 121.025 285.219 120.652C284.931 120.279 284.707 119.825 284.547 119.292C284.397 118.759 284.323 118.161 284.323 117.5C284.323 116.839 284.397 116.241 284.547 115.708C284.707 115.175 284.931 114.721 285.219 114.348C285.517 113.975 285.875 113.687 286.291 113.484C286.707 113.281 287.171 113.18 287.683 113.18C288.259 113.18 288.749 113.308 289.155 113.564C289.571 113.809 289.885 114.193 290.099 114.716H290.163V109.788H291.443V121.628H290.163V120.284ZM288.035 120.668C288.323 120.668 288.595 120.631 288.851 120.556C289.117 120.481 289.347 120.375 289.539 120.236C289.731 120.087 289.88 119.911 289.987 119.708C290.104 119.495 290.163 119.255 290.163 118.988V115.916C290.163 115.692 290.104 115.484 289.987 115.292C289.88 115.089 289.731 114.919 289.539 114.78C289.347 114.641 289.117 114.535 288.851 114.46C288.595 114.375 288.323 114.332 288.035 114.332C287.309 114.332 286.739 114.561 286.323 115.02C285.907 115.468 285.699 116.06 285.699 116.796V118.204C285.699 118.94 285.907 119.537 286.323 119.996C286.739 120.444 287.309 120.668 288.035 120.668ZM296.964 121.82C296.409 121.82 295.903 121.719 295.444 121.516C294.985 121.313 294.591 121.025 294.26 120.652C293.94 120.268 293.689 119.815 293.508 119.292C293.327 118.759 293.236 118.161 293.236 117.5C293.236 116.849 293.327 116.257 293.508 115.724C293.689 115.191 293.94 114.737 294.26 114.364C294.591 113.98 294.985 113.687 295.444 113.484C295.903 113.281 296.409 113.18 296.964 113.18C297.519 113.18 298.02 113.281 298.468 113.484C298.927 113.687 299.321 113.98 299.652 114.364C299.983 114.737 300.239 115.191 300.42 115.724C300.601 116.257 300.692 116.849 300.692 117.5C300.692 118.161 300.601 118.759 300.42 119.292C300.239 119.815 299.983 120.268 299.652 120.652C299.321 121.025 298.927 121.313 298.468 121.516C298.02 121.719 297.519 121.82 296.964 121.82ZM296.964 120.684C297.657 120.684 298.223 120.471 298.66 120.044C299.097 119.617 299.316 118.967 299.316 118.092V116.908C299.316 116.033 299.097 115.383 298.66 114.956C298.223 114.529 297.657 114.316 296.964 114.316C296.271 114.316 295.705 114.529 295.268 114.956C294.831 115.383 294.612 116.033 294.612 116.908V118.092C294.612 118.967 294.831 119.617 295.268 120.044C295.705 120.471 296.271 120.684 296.964 120.684ZM306.066 110.46H309.81C310.504 110.46 311.133 110.577 311.698 110.812C312.264 111.047 312.744 111.399 313.138 111.868C313.544 112.327 313.853 112.908 314.066 113.612C314.28 114.305 314.386 115.116 314.386 116.044C314.386 116.972 314.28 117.788 314.066 118.492C313.853 119.185 313.544 119.767 313.138 120.236C312.744 120.695 312.264 121.041 311.698 121.276C311.133 121.511 310.504 121.628 309.81 121.628H306.066V110.46ZM309.81 120.444C310.269 120.444 310.69 120.369 311.074 120.22C311.458 120.06 311.789 119.831 312.066 119.532C312.344 119.233 312.557 118.871 312.706 118.444C312.866 118.007 312.946 117.511 312.946 116.956V115.132C312.946 114.577 312.866 114.087 312.706 113.66C312.557 113.223 312.344 112.855 312.066 112.556C311.789 112.257 311.458 112.033 311.074 111.884C310.69 111.724 310.269 111.644 309.81 111.644H307.41V120.444H309.81ZM316.993 111.436C316.715 111.436 316.513 111.372 316.385 111.244C316.267 111.105 316.209 110.929 316.209 110.716V110.508C316.209 110.295 316.267 110.124 316.385 109.996C316.513 109.857 316.715 109.788 316.993 109.788C317.27 109.788 317.467 109.857 317.585 109.996C317.713 110.124 317.777 110.295 317.777 110.508V110.716C317.777 110.929 317.713 111.105 317.585 111.244C317.467 111.372 317.27 111.436 316.993 111.436ZM316.353 113.372H317.633V121.628H316.353V113.372ZM326.166 121.628L322.454 110.46H323.894L325.734 116.092L326.966 120.284H327.046L328.31 116.092L330.166 110.46H331.558L327.798 121.628H326.166ZM333.564 111.436C333.287 111.436 333.084 111.372 332.956 111.244C332.839 111.105 332.78 110.929 332.78 110.716V110.508C332.78 110.295 332.839 110.124 332.956 109.996C333.084 109.857 333.287 109.788 333.564 109.788C333.841 109.788 334.039 109.857 334.156 109.996C334.284 110.124 334.348 110.295 334.348 110.508V110.716C334.348 110.929 334.284 111.105 334.156 111.244C334.039 111.372 333.841 111.436 333.564 111.436ZM332.924 113.372H334.204V121.628H332.924V113.372ZM336.604 121.628V113.372H337.884V114.716H337.948C338.151 114.247 338.433 113.873 338.796 113.596C339.169 113.319 339.665 113.18 340.284 113.18C341.137 113.18 341.809 113.457 342.3 114.012C342.801 114.556 343.052 115.329 343.052 116.332V121.628H341.772V116.556C341.772 115.073 341.148 114.332 339.9 114.332C339.644 114.332 339.393 114.364 339.148 114.428C338.913 114.492 338.7 114.588 338.508 114.716C338.316 114.844 338.161 115.009 338.044 115.212C337.937 115.404 337.884 115.633 337.884 115.9V121.628H336.604ZM348.45 121.82C347.874 121.82 347.356 121.719 346.898 121.516C346.439 121.313 346.05 121.025 345.73 120.652C345.42 120.279 345.18 119.825 345.01 119.292C344.85 118.759 344.77 118.161 344.77 117.5C344.77 116.839 344.85 116.241 345.01 115.708C345.18 115.175 345.42 114.721 345.73 114.348C346.05 113.975 346.439 113.687 346.898 113.484C347.356 113.281 347.874 113.18 348.45 113.18C349.271 113.18 349.927 113.361 350.418 113.724C350.919 114.076 351.292 114.54 351.538 115.116L350.466 115.66C350.316 115.233 350.071 114.903 349.73 114.668C349.388 114.433 348.962 114.316 348.45 114.316C348.066 114.316 347.73 114.38 347.442 114.508C347.154 114.625 346.914 114.796 346.722 115.02C346.53 115.233 346.386 115.495 346.29 115.804C346.194 116.103 346.146 116.433 346.146 116.796V118.204C346.146 118.929 346.338 119.527 346.722 119.996C347.116 120.455 347.692 120.684 348.45 120.684C349.484 120.684 350.231 120.204 350.69 119.244L351.618 119.868C351.351 120.465 350.951 120.94 350.418 121.292C349.895 121.644 349.239 121.82 348.45 121.82ZM353.744 111.436C353.467 111.436 353.264 111.372 353.136 111.244C353.019 111.105 352.96 110.929 352.96 110.716V110.508C352.96 110.295 353.019 110.124 353.136 109.996C353.264 109.857 353.467 109.788 353.744 109.788C354.022 109.788 354.219 109.857 354.336 109.996C354.464 110.124 354.528 110.295 354.528 110.508V110.716C354.528 110.929 354.464 111.105 354.336 111.244C354.219 111.372 354.022 111.436 353.744 111.436ZM353.104 113.372H354.384V121.628H353.104V113.372Z" fill="black"/>
<rect x="404.048" y="43.6279" width="1" height="96" fill="#D1CFC7"/>
<rect width="122" height="48" transform="translate(405.048 43.6279)" fill="#F2F1ED"/>
<path d="M432.424 73.6279V62.4599H439.4V64.0599H434.232V67.1639H438.824V68.7639H434.232V73.6279H432.424ZM441.981 63.8199C441.618 63.8199 441.351 63.7346 441.181 63.5639C441.021 63.3933 440.941 63.1746 440.941 62.9079V62.6359C440.941 62.3693 441.021 62.1506 441.181 61.9799C441.351 61.8093 441.618 61.7239 441.981 61.7239C442.343 61.7239 442.605 61.8093 442.765 61.9799C442.925 62.1506 443.005 62.3693 443.005 62.6359V62.9079C443.005 63.1746 442.925 63.3933 442.765 63.5639C442.605 63.7346 442.343 63.8199 441.981 63.8199ZM441.101 65.3079H442.845V73.6279H441.101V65.3079ZM446.791 73.6279C446.194 73.6279 445.746 73.4786 445.447 73.1799C445.159 72.8706 445.015 72.4439 445.015 71.8999V61.7879H446.759V72.2039H447.911V73.6279H446.791ZM452.521 73.8199C451.924 73.8199 451.391 73.7186 450.921 73.5159C450.452 73.3133 450.052 73.0253 449.721 72.6519C449.391 72.2679 449.135 71.8093 448.953 71.2759C448.783 70.7319 448.697 70.1293 448.697 69.4679C448.697 68.8066 448.783 68.2093 448.953 67.6759C449.135 67.1319 449.391 66.6733 449.721 66.2999C450.052 65.9159 450.452 65.6226 450.921 65.4199C451.391 65.2173 451.924 65.1159 452.521 65.1159C453.129 65.1159 453.663 65.2226 454.121 65.4359C454.591 65.6493 454.98 65.9479 455.289 66.3319C455.599 66.7053 455.828 67.1426 455.977 67.6439C456.137 68.1453 456.217 68.6839 456.217 69.2599V69.9159H450.505V70.1879C450.505 70.8279 450.692 71.3559 451.065 71.7719C451.449 72.1773 451.993 72.3799 452.697 72.3799C453.209 72.3799 453.641 72.2679 453.993 72.0439C454.345 71.8199 454.644 71.5159 454.889 71.1319L455.913 72.1399C455.604 72.6519 455.156 73.0626 454.569 73.3719C453.983 73.6706 453.3 73.8199 452.521 73.8199ZM452.521 66.4759C452.223 66.4759 451.945 66.5293 451.689 66.6359C451.444 66.7426 451.231 66.8919 451.049 67.0839C450.879 67.2759 450.745 67.5053 450.649 67.7719C450.553 68.0386 450.505 68.3319 450.505 68.6519V68.7639H454.377V68.6039C454.377 67.9639 454.212 67.4519 453.881 67.0679C453.551 66.6733 453.097 66.4759 452.521 66.4759ZM457.828 73.6279V65.3079H459.572V66.6839H459.652C459.833 66.2359 460.105 65.8626 460.468 65.5639C460.841 65.2653 461.348 65.1159 461.988 65.1159C462.841 65.1159 463.503 65.3986 463.972 65.9639C464.452 66.5186 464.692 67.3133 464.692 68.3479V73.6279H462.948V68.5719C462.948 67.2706 462.425 66.6199 461.38 66.6199C461.156 66.6199 460.932 66.6519 460.708 66.7159C460.495 66.7693 460.303 66.8546 460.132 66.9719C459.961 67.0893 459.823 67.2386 459.716 67.4199C459.62 67.6013 459.572 67.8146 459.572 68.0599V73.6279H457.828ZM472.885 73.6279C472.427 73.6279 472.075 73.4999 471.829 73.2439C471.584 72.9773 471.435 72.6413 471.381 72.2359H471.301C471.141 72.7586 470.848 73.1533 470.421 73.4199C469.995 73.6866 469.477 73.8199 468.869 73.8199C468.005 73.8199 467.339 73.5959 466.869 73.1479C466.411 72.6999 466.181 72.0973 466.181 71.3399C466.181 70.5079 466.48 69.8839 467.077 69.4679C467.685 69.0519 468.571 68.8439 469.733 68.8439H471.237V68.1399C471.237 67.6279 471.099 67.2333 470.821 66.9559C470.544 66.6786 470.112 66.5399 469.525 66.5399C469.035 66.5399 468.635 66.6466 468.325 66.8599C468.016 67.0733 467.755 67.3453 467.541 67.6759L466.501 66.7319C466.779 66.2626 467.168 65.8786 467.669 65.5799C468.171 65.2706 468.827 65.1159 469.637 65.1159C470.715 65.1159 471.541 65.3666 472.117 65.8679C472.693 66.3693 472.981 67.0893 472.981 68.0279V72.2039H473.861V73.6279H472.885ZM469.365 72.4919C469.909 72.4919 470.357 72.3746 470.709 72.1399C471.061 71.8946 471.237 71.5693 471.237 71.1639V69.9639H469.765C468.56 69.9639 467.957 70.3373 467.957 71.0839V71.3719C467.957 71.7453 468.08 72.0279 468.325 72.2199C468.581 72.4013 468.928 72.4919 469.365 72.4919ZM475.251 73.6279V65.3079H476.995V66.6839H477.075C477.16 66.4706 477.261 66.2679 477.379 66.0759C477.507 65.8839 477.656 65.7186 477.827 65.5799C478.008 65.4306 478.216 65.3186 478.451 65.2439C478.696 65.1586 478.979 65.1159 479.299 65.1159C479.864 65.1159 480.365 65.2546 480.803 65.5319C481.24 65.8093 481.56 66.2359 481.763 66.8119H481.811C481.96 66.3426 482.248 65.9426 482.675 65.6119C483.101 65.2813 483.651 65.1159 484.323 65.1159C485.155 65.1159 485.8 65.3986 486.259 65.9639C486.717 66.5186 486.947 67.3133 486.947 68.3479V73.6279H485.203V68.5559C485.203 67.9159 485.08 67.4359 484.835 67.1159C484.589 66.7853 484.2 66.6199 483.667 66.6199C483.443 66.6199 483.229 66.6519 483.027 66.7159C482.824 66.7693 482.643 66.8546 482.483 66.9719C482.333 67.0893 482.211 67.2386 482.115 67.4199C482.019 67.6013 481.971 67.8093 481.971 68.0439V73.6279H480.227V68.5559C480.227 67.2653 479.72 66.6199 478.707 66.6199C478.493 66.6199 478.28 66.6519 478.067 66.7159C477.864 66.7693 477.683 66.8546 477.523 66.9719C477.363 67.0893 477.235 67.2386 477.139 67.4199C477.043 67.6013 476.995 67.8093 476.995 68.0439V73.6279H475.251ZM492.304 73.8199C491.707 73.8199 491.173 73.7186 490.704 73.5159C490.235 73.3133 489.835 73.0253 489.504 72.6519C489.173 72.2679 488.917 71.8093 488.736 71.2759C488.565 70.7319 488.48 70.1293 488.48 69.4679C488.48 68.8066 488.565 68.2093 488.736 67.6759C488.917 67.1319 489.173 66.6733 489.504 66.2999C489.835 65.9159 490.235 65.6226 490.704 65.4199C491.173 65.2173 491.707 65.1159 492.304 65.1159C492.912 65.1159 493.445 65.2226 493.904 65.4359C494.373 65.6493 494.763 65.9479 495.072 66.3319C495.381 66.7053 495.611 67.1426 495.76 67.6439C495.92 68.1453 496 68.6839 496 69.2599V69.9159H490.288V70.1879C490.288 70.8279 490.475 71.3559 490.848 71.7719C491.232 72.1773 491.776 72.3799 492.48 72.3799C492.992 72.3799 493.424 72.2679 493.776 72.0439C494.128 71.8199 494.427 71.5159 494.672 71.1319L495.696 72.1399C495.387 72.6519 494.939 73.0626 494.352 73.3719C493.765 73.6706 493.083 73.8199 492.304 73.8199ZM492.304 66.4759C492.005 66.4759 491.728 66.5293 491.472 66.6359C491.227 66.7426 491.013 66.8919 490.832 67.0839C490.661 67.2759 490.528 67.5053 490.432 67.7719C490.336 68.0386 490.288 68.3319 490.288 68.6519V68.7639H494.16V68.6039C494.16 67.9639 493.995 67.4519 493.664 67.0679C493.333 66.6733 492.88 66.4759 492.304 66.4759Z" fill="black"/>
<line x1="405.048" y1="91.1279" x2="527.048" y2="91.1279" stroke="#D1CFC7"/>
<rect width="122" height="48" transform="translate(405.048 91.6279)" fill="white"/>
<path d="M430.408 121.628V113.372H431.688V114.716H431.752C431.848 114.503 431.954 114.305 432.072 114.124C432.2 113.932 432.349 113.767 432.52 113.628C432.701 113.489 432.909 113.383 433.144 113.308C433.378 113.223 433.656 113.18 433.976 113.18C434.52 113.18 435.021 113.313 435.48 113.58C435.938 113.836 436.28 114.263 436.504 114.86H436.536C436.685 114.412 436.962 114.023 437.368 113.692C437.784 113.351 438.344 113.18 439.048 113.18C439.89 113.18 440.546 113.457 441.016 114.012C441.496 114.556 441.736 115.329 441.736 116.332V121.628H440.456V116.556C440.456 115.82 440.312 115.265 440.024 114.892C439.736 114.519 439.277 114.332 438.648 114.332C438.392 114.332 438.146 114.364 437.912 114.428C437.688 114.492 437.485 114.588 437.304 114.716C437.122 114.844 436.978 115.009 436.872 115.212C436.765 115.404 436.712 115.633 436.712 115.9V121.628H435.432V116.556C435.432 115.82 435.288 115.265 435 114.892C434.712 114.519 434.264 114.332 433.656 114.332C433.4 114.332 433.154 114.364 432.92 114.428C432.685 114.492 432.477 114.588 432.296 114.716C432.114 114.844 431.965 115.009 431.848 115.212C431.741 115.404 431.688 115.633 431.688 115.9V121.628H430.408ZM447.176 121.82C446.622 121.82 446.115 121.719 445.656 121.516C445.198 121.313 444.803 121.025 444.472 120.652C444.152 120.268 443.902 119.815 443.72 119.292C443.539 118.759 443.448 118.161 443.448 117.5C443.448 116.849 443.539 116.257 443.72 115.724C443.902 115.191 444.152 114.737 444.472 114.364C444.803 113.98 445.198 113.687 445.656 113.484C446.115 113.281 446.622 113.18 447.176 113.18C447.731 113.18 448.232 113.281 448.68 113.484C449.139 113.687 449.534 113.98 449.864 114.364C450.195 114.737 450.451 115.191 450.632 115.724C450.814 116.257 450.904 116.849 450.904 117.5C450.904 118.161 450.814 118.759 450.632 119.292C450.451 119.815 450.195 120.268 449.864 120.652C449.534 121.025 449.139 121.313 448.68 121.516C448.232 121.719 447.731 121.82 447.176 121.82ZM447.176 120.684C447.87 120.684 448.435 120.471 448.872 120.044C449.31 119.617 449.528 118.967 449.528 118.092V116.908C449.528 116.033 449.31 115.383 448.872 114.956C448.435 114.529 447.87 114.316 447.176 114.316C446.483 114.316 445.918 114.529 445.48 114.956C445.043 115.383 444.824 116.033 444.824 116.908V118.092C444.824 118.967 445.043 119.617 445.48 120.044C445.918 120.471 446.483 120.684 447.176 120.684ZM452.689 121.628V113.372H453.969V114.716H454.033C454.236 114.247 454.519 113.873 454.881 113.596C455.255 113.319 455.751 113.18 456.369 113.18C457.223 113.18 457.895 113.457 458.385 114.012C458.887 114.556 459.137 115.329 459.137 116.332V121.628H457.857V116.556C457.857 115.073 457.233 114.332 455.985 114.332C455.729 114.332 455.479 114.364 455.233 114.428C454.999 114.492 454.785 114.588 454.593 114.716C454.401 114.844 454.247 115.009 454.129 115.212C454.023 115.404 453.969 115.633 453.969 115.9V121.628H452.689ZM467.463 121.628C466.983 121.628 466.637 121.5 466.423 121.244C466.221 120.988 466.093 120.668 466.039 120.284H465.959C465.778 120.796 465.479 121.18 465.063 121.436C464.647 121.692 464.151 121.82 463.575 121.82C462.701 121.82 462.018 121.596 461.527 121.148C461.047 120.7 460.807 120.092 460.807 119.324C460.807 118.545 461.09 117.948 461.655 117.532C462.231 117.116 463.122 116.908 464.327 116.908H465.959V116.092C465.959 115.505 465.799 115.057 465.479 114.748C465.159 114.439 464.669 114.284 464.007 114.284C463.506 114.284 463.085 114.396 462.743 114.62C462.413 114.844 462.135 115.143 461.911 115.516L461.143 114.796C461.367 114.348 461.725 113.969 462.215 113.66C462.706 113.34 463.325 113.18 464.071 113.18C465.074 113.18 465.853 113.425 466.407 113.916C466.962 114.407 467.239 115.089 467.239 115.964V120.508H468.183V121.628H467.463ZM463.783 120.732C464.103 120.732 464.397 120.695 464.663 120.62C464.93 120.545 465.159 120.439 465.351 120.3C465.543 120.161 465.693 120.001 465.799 119.82C465.906 119.639 465.959 119.441 465.959 119.228V117.868H464.263C463.527 117.868 462.989 117.975 462.647 118.188C462.317 118.401 462.151 118.711 462.151 119.116V119.452C462.151 119.857 462.295 120.172 462.583 120.396C462.882 120.62 463.282 120.732 463.783 120.732ZM469.738 121.628V120.444H472.858V111.452H472.746L469.93 114.076L469.146 113.228L472.106 110.46H474.202V120.444H477.082V121.628H469.738ZM479.78 121.82C479.439 121.82 479.188 121.735 479.028 121.564C478.879 121.393 478.804 121.169 478.804 120.892V120.684C478.804 120.407 478.879 120.183 479.028 120.012C479.188 119.841 479.439 119.756 479.78 119.756C480.121 119.756 480.367 119.841 480.516 120.012C480.676 120.183 480.756 120.407 480.756 120.684V120.892C480.756 121.169 480.676 121.393 480.516 121.564C480.367 121.735 480.121 121.82 479.78 121.82ZM483.003 113.372H484.283V122.908C484.283 123.484 484.139 123.948 483.851 124.3C483.563 124.652 483.11 124.828 482.491 124.828H481.659V123.708H483.003V113.372ZM483.643 111.436C483.366 111.436 483.163 111.372 483.035 111.244C482.918 111.105 482.859 110.929 482.859 110.716V110.508C482.859 110.295 482.918 110.124 483.035 109.996C483.163 109.857 483.366 109.788 483.643 109.788C483.921 109.788 484.118 109.857 484.235 109.996C484.363 110.124 484.427 110.295 484.427 110.508V110.716C484.427 110.929 484.363 111.105 484.235 111.244C484.118 111.372 483.921 111.436 483.643 111.436ZM486.683 113.372H487.963V114.716H488.027C488.241 114.193 488.55 113.809 488.955 113.564C489.371 113.308 489.867 113.18 490.443 113.18C490.955 113.18 491.419 113.281 491.835 113.484C492.251 113.687 492.603 113.975 492.891 114.348C493.19 114.721 493.414 115.175 493.563 115.708C493.723 116.241 493.803 116.839 493.803 117.5C493.803 118.161 493.723 118.759 493.563 119.292C493.414 119.825 493.19 120.279 492.891 120.652C492.603 121.025 492.251 121.313 491.835 121.516C491.419 121.719 490.955 121.82 490.443 121.82C489.323 121.82 488.518 121.308 488.027 120.284H487.963V124.828H486.683V113.372ZM490.091 120.668C490.817 120.668 491.387 120.444 491.803 119.996C492.219 119.537 492.427 118.94 492.427 118.204V116.796C492.427 116.06 492.219 115.468 491.803 115.02C491.387 114.561 490.817 114.332 490.091 114.332C489.803 114.332 489.526 114.375 489.259 114.46C489.003 114.535 488.779 114.641 488.587 114.78C488.395 114.919 488.241 115.089 488.123 115.292C488.017 115.484 487.963 115.692 487.963 115.916V118.988C487.963 119.255 488.017 119.495 488.123 119.708C488.241 119.911 488.395 120.087 488.587 120.236C488.779 120.375 489.003 120.481 489.259 120.556C489.526 120.631 489.803 120.668 490.091 120.668ZM502.604 122.54C502.604 123.393 502.268 124.017 501.596 124.412C500.935 124.817 499.938 125.02 498.604 125.02C497.314 125.02 496.386 124.844 495.82 124.492C495.255 124.14 494.972 123.639 494.972 122.988C494.972 122.54 495.09 122.188 495.324 121.932C495.559 121.687 495.879 121.505 496.284 121.388V121.212C495.794 120.977 495.548 120.593 495.548 120.06C495.548 119.644 495.682 119.329 495.948 119.116C496.215 118.892 496.556 118.727 496.972 118.62V118.556C496.482 118.321 496.098 117.985 495.82 117.548C495.554 117.111 495.42 116.604 495.42 116.028C495.42 115.612 495.495 115.228 495.644 114.876C495.794 114.524 496.002 114.225 496.268 113.98C496.546 113.724 496.871 113.527 497.244 113.388C497.628 113.249 498.055 113.18 498.524 113.18C499.111 113.18 499.634 113.287 500.092 113.5V113.356C500.092 113.036 500.167 112.775 500.316 112.572C500.466 112.359 500.711 112.252 501.052 112.252H502.284V113.372H500.716V113.9C501.015 114.156 501.244 114.465 501.404 114.828C501.575 115.18 501.66 115.58 501.66 116.028C501.66 116.444 501.586 116.828 501.436 117.18C501.287 117.532 501.074 117.836 500.796 118.092C500.53 118.337 500.204 118.529 499.82 118.668C499.436 118.807 499.01 118.876 498.54 118.876C498.274 118.876 498.007 118.849 497.74 118.796C497.463 118.871 497.212 118.983 496.988 119.132C496.764 119.271 496.652 119.468 496.652 119.724C496.652 119.969 496.77 120.135 497.004 120.22C497.239 120.305 497.543 120.348 497.916 120.348H499.676C500.7 120.348 501.442 120.545 501.9 120.94C502.37 121.324 502.604 121.857 502.604 122.54ZM501.404 122.636C501.404 122.305 501.276 122.039 501.02 121.836C500.775 121.644 500.332 121.548 499.692 121.548H496.94C496.428 121.783 496.172 122.156 496.172 122.668C496.172 123.031 496.306 123.34 496.572 123.596C496.85 123.852 497.314 123.98 497.964 123.98H499.148C499.863 123.98 500.418 123.868 500.812 123.644C501.207 123.42 501.404 123.084 501.404 122.636ZM498.54 117.852C499.084 117.852 499.516 117.724 499.836 117.468C500.156 117.201 500.316 116.796 500.316 116.252V115.804C500.316 115.26 500.156 114.86 499.836 114.604C499.516 114.337 499.084 114.204 498.54 114.204C497.996 114.204 497.564 114.337 497.244 114.604C496.924 114.86 496.764 115.26 496.764 115.804V116.252C496.764 116.796 496.924 117.201 497.244 117.468C497.564 117.724 497.996 117.852 498.54 117.852Z" fill="black"/>
<rect x="0.547607" y="43.1279" width="526.905" height="97" stroke="#D1CFC7"/>
<path d="M74.3809 61.4729C72.9082 61.4729 71.7143 62.6668 71.7143 64.1395C71.7143 65.6123 72.9082 66.8062 74.3809 66.8062C75.8537 66.8062 77.0476 65.6123 77.0476 64.1395C77.0476 62.6668 75.8537 61.4729 74.3809 61.4729ZM73.881 -2.09625e-08L73.8809 64.1395L74.8809 64.1395L74.881 2.09625e-08L73.881 -2.09625e-08Z" fill="#676765"/>
<path d="M250.381 61.4729C248.908 61.4729 247.714 62.6668 247.714 64.1395C247.714 65.6123 248.908 66.8062 250.381 66.8062C251.854 66.8062 253.048 65.6123 253.048 64.1395C253.048 62.6668 251.854 61.4729 250.381 61.4729ZM249.881 -2.09625e-08L249.881 64.1395L250.881 64.1395L250.881 2.09625e-08L249.881 -2.09625e-08Z" fill="#676765"/>
<path d="M416.952 124.074C418.425 124.074 419.619 122.88 419.619 121.407C419.619 119.934 418.425 118.74 416.952 118.74C415.48 118.74 414.286 119.934 414.286 121.407C414.286 122.88 415.48 124.074 416.952 124.074ZM417.452 197L417.452 121.407L416.452 121.407L416.452 197L417.452 197Z" fill="#676765"/>
</svg>
