<svg width="274" height="90" viewBox="0 0 274 90" fill="none" xmlns="http://www.w3.org/2000/svg">
<path d="M274 45C274 69.8528 253.853 90 229 90C204.147 90 184 69.8528 184 45C184 20.1472 204.147 0 229 0C253.853 0 274 20.1472 274 45Z" fill="black"/>
<path d="M228 45C228 69.8528 207.853 90 183 90C158.147 90 138 69.8528 138 45C138 20.1472 158.147 0 183 0C207.853 0 228 20.1472 228 45Z" fill="#7E7E7E"/>
<path d="M182 45C182 69.8528 161.853 90 137 90C112.147 90 92 69.8528 92 45C92 20.1472 112.147 0 137 0C161.853 0 182 20.1472 182 45Z" fill="#CBC9C9"/>
<path d="M136 45C136 69.8528 115.853 90 91 90C66.1472 90 46 69.8528 46 45C46 20.1472 66.1472 0 91 0C115.853 0 136 20.1472 136 45Z" fill="#EBEAEA"/>
<path d="M90 45C90 69.8528 69.8528 90 45 90C20.1472 90 0 69.8528 0 45C0 20.1472 20.1472 0 45 0C69.8528 0 90 20.1472 90 45Z" fill="#F7F7F7"/>
</svg>
