<svg width="274" height="260" viewBox="0 0 274 260" fill="none" xmlns="http://www.w3.org/2000/svg">
<path d="M274 130C274 154.853 253.853 175 229 175C204.147 175 184 154.853 184 130C184 105.147 204.147 85 229 85C253.853 85 274 105.147 274 130Z" fill="black"/>
<path d="M228 130C228 154.853 207.853 175 183 175C158.147 175 138 154.853 138 130C138 105.147 158.147 85 183 85C207.853 85 228 105.147 228 130Z" fill="#7E7E7E"/>
<path d="M182 130C182 154.853 161.853 175 137 175C112.147 175 92 154.853 92 130C92 105.147 112.147 85 137 85C161.853 85 182 105.147 182 130Z" fill="#CBC9C9"/>
<path d="M136 130C136 154.853 115.853 175 91 175C66.1472 175 46 154.853 46 130C46 105.147 66.1472 85 91 85C115.853 85 136 105.147 136 130Z" fill="#EBEAEA"/>
<path d="M90 130C90 154.853 69.8528 175 45 175C20.1472 175 0 154.853 0 130C0 105.147 20.1472 85 45 85C69.8528 85 90 105.147 90 130Z" fill="#F7F7F7"/>
</svg>
