<?xml version="1.0" encoding="UTF-8"?>
<svg id="Layer_1" data-name="Layer 1" xmlns="http://www.w3.org/2000/svg" viewBox="0 0 864 864">
  <defs>
    <style>
      .cls-1, .cls-2 {
        stroke-width: 0px;
      }

      .cls-1, .cls-3 {
        fill: #f80207;
      }

      .cls-4 {
        fill: none;
        stroke: #f80207;
      }

      .cls-4, .cls-3 {
        stroke-miterlimit: 10;
      }

      .cls-5 {
        letter-spacing: -.07em;
      }

      .cls-2 {
        fill: #0384df;
      }

      .cls-6 {
        letter-spacing: 0em;
      }

      .cls-3 {
        font-family: Helvetica-BoldOblique, Helvetica;
        font-size: 88.11px;
        font-style: oblique;
        font-weight: 700;
        stroke: #0384df;
        stroke-width: .75px;
      }
    </style>
  </defs>
  <rect class="cls-2" width="864" height="864"/>
  <g>
    <g>
      <line class="cls-4" x1="430.76" y1="178.85" x2="434.24" y2="688.15"/>
      <path class="cls-1" d="M428.52,178.98c0-1.24.99-2.25,2.23-2.26,1.24,0,2.25.99,2.26,2.22s-.99,2.25-2.23,2.26c-1.24,0-2.25-.99-2.26-2.22Z"/>
      <path class="cls-1" d="M432,688.05c0,1.24,1.02,2.23,2.26,2.22s2.23-1.02,2.23-2.26-1.02-2.23-2.26-2.22-2.23,1.02-2.23,2.26Z"/>
    </g>
    <g>
      <line class="cls-4" x1="461.81" y1="177.98" x2="403.19" y2="689.02"/>
      <path class="cls-1" d="M459.57,177.83c.14-1.24,1.25-2.13,2.48-1.99,1.23.14,2.11,1.27,1.97,2.51s-1.25,2.13-2.48,1.99c-1.23-.14-2.11-1.27-1.97-2.51Z"/>
      <path class="cls-1" d="M400.98,688.65c-.14,1.24.74,2.36,1.97,2.51s2.34-.75,2.48-1.99-.74-2.36-1.97-2.51-2.34.75-2.48,1.99Z"/>
    </g>
    <g>
      <line class="cls-4" x1="492.73" y1="180.93" x2="372.27" y2="686.07"/>
      <path class="cls-1" d="M490.52,180.51c.29-1.23,1.51-1.98,2.71-1.69,1.2.3,1.94,1.53,1.65,2.76s-1.51,1.98-2.71,1.69c-1.2-.3-1.94-1.53-1.65-2.76Z"/>
      <path class="cls-1" d="M370.12,685.42c-.29,1.23.45,2.46,1.65,2.76s2.42-.46,2.71-1.69-.45-2.46-1.65-2.76-2.42.46-2.71,1.69Z"/>
    </g>
    <g>
      <line class="cls-4" x1="523.06" y1="187.7" x2="341.94" y2="679.3"/>
      <path class="cls-1" d="M520.92,187c.44-1.19,1.74-1.8,2.89-1.36,1.16.44,1.74,1.77,1.3,2.97s-1.74,1.8-2.89,1.36c-1.16-.44-1.74-1.77-1.3-2.97Z"/>
      <path class="cls-1" d="M339.88,678.39c-.44,1.19.14,2.52,1.3,2.97s2.45-.16,2.89-1.36-.14-2.52-1.3-2.97-2.45.16-2.89,1.36Z"/>
    </g>
    <g>
      <line class="cls-4" x1="552.34" y1="198.21" x2="312.66" y2="668.79"/>
      <path class="cls-1" d="M550.31,197.25c.58-1.14,1.94-1.59,3.04-1,1.09.59,1.51,1.99.93,3.13s-1.94,1.59-3.04,1c-1.09-.59-1.51-1.99-.93-3.13Z"/>
      <path class="cls-1" d="M310.73,667.62c-.58,1.14-.17,2.55.93,3.13s2.45.14,3.04-1,.17-2.55-.93-3.13-2.45-.14-3.04,1Z"/>
    </g>
    <g>
      <line class="cls-4" x1="580.12" y1="212.36" x2="284.88" y2="654.64"/>
      <path class="cls-1" d="M578.22,211.15c.72-1.07,2.12-1.36,3.14-.63,1.02.72,1.26,2.18.54,3.26s-2.12,1.36-3.14.63c-1.02-.72-1.26-2.18-.54-3.26Z"/>
      <path class="cls-1" d="M283.1,653.23c-.72,1.07-.48,2.53.54,3.26s2.42.44,3.14-.63.48-2.53-.54-3.26-2.42-.44-3.14.63Z"/>
    </g>
    <g>
      <line class="cls-4" x1="605.97" y1="229.96" x2="259.03" y2="637.04"/>
      <path class="cls-1" d="M604.23,228.51c.84-.99,2.27-1.1,3.19-.25.92.85.98,2.34.14,3.33s-2.27,1.1-3.19.25c-.92-.85-.98-2.34-.14-3.33Z"/>
      <path class="cls-1" d="M257.44,635.41c-.84.99-.78,2.48.14,3.33s2.35.74,3.19-.25.78-2.48-.14-3.33-2.35-.74-3.19.25Z"/>
    </g>
    <g>
      <line class="cls-4" x1="629.48" y1="250.79" x2="235.52" y2="616.21"/>
      <path class="cls-1" d="M627.93,249.12c.96-.89,2.39-.82,3.2.14.81.97.69,2.47-.27,3.36s-2.39.82-3.2-.14c-.81-.97-.69-2.47.27-3.36Z"/>
      <path class="cls-1" d="M234.14,614.38c-.96.89-1.08,2.39-.27,3.36s2.24,1.03,3.2.14,1.08-2.39.27-3.36-2.24-1.03-3.2-.14Z"/>
    </g>
    <g>
      <line class="cls-4" x1="650.28" y1="274.57" x2="214.72" y2="592.43"/>
      <path class="cls-1" d="M648.95,272.71c1.06-.77,2.47-.53,3.16.54.68,1.07.38,2.56-.68,3.33s-2.47.53-3.16-.54c-.68-1.07-.38-2.56.68-3.33Z"/>
      <path class="cls-1" d="M213.57,590.42c-1.06.77-1.36,2.26-.68,3.33s2.1,1.31,3.16.54,1.36-2.26.68-3.33-2.1-1.31-3.16-.54Z"/>
    </g>
    <g>
      <line class="cls-4" x1="668.03" y1="300.97" x2="196.97" y2="566.03"/>
      <path class="cls-1" d="M666.93,298.94c1.14-.64,2.52-.23,3.07.93.55,1.16.07,2.61-1.08,3.26s-2.52.23-3.07-.93c-.55-1.16-.07-2.61,1.08-3.26Z"/>
      <path class="cls-1" d="M196.08,563.88c-1.14.64-1.63,2.1-1.08,3.26s1.92,1.57,3.07.93,1.63-2.1,1.08-3.26-1.92-1.57-3.07-.93Z"/>
    </g>
    <g>
      <line class="cls-4" x1="682.42" y1="329.63" x2="182.58" y2="537.37"/>
      <path class="cls-1" d="M681.58,327.45c1.21-.5,2.53.08,2.93,1.31.4,1.23-.25,2.63-1.47,3.13s-2.53-.08-2.93-1.31c-.4-1.23.25-2.63,1.47-3.13Z"/>
      <path class="cls-1" d="M181.95,535.11c-1.21.5-1.87,1.91-1.47,3.13s1.72,1.81,2.93,1.31,1.87-1.91,1.47-3.13-1.72-1.81-2.93-1.31Z"/>
    </g>
    <g>
      <line class="cls-4" x1="693.22" y1="360.12" x2="171.78" y2="506.88"/>
      <path class="cls-1" d="M692.65,357.84c1.27-.36,2.5.39,2.75,1.67.25,1.28-.57,2.61-1.84,2.96s-2.5-.39-2.75-1.67c-.25-1.28.57-2.61,1.84-2.96Z"/>
      <path class="cls-1" d="M171.44,504.53c-1.27.36-2.09,1.68-1.84,2.96s1.48,2.03,2.75,1.67,2.09-1.68,1.84-2.96-1.48-2.03-2.75-1.67Z"/>
    </g>
    <g>
      <line class="cls-4" x1="700.22" y1="392.03" x2="164.78" y2="474.97"/>
      <path class="cls-1" d="M699.93,389.67c1.3-.2,2.43.7,2.53,2.01.09,1.31-.88,2.54-2.18,2.74s-2.43-.7-2.53-2.01c-.09-1.31.88-2.54,2.18-2.74Z"/>
      <path class="cls-1" d="M164.73,472.57c-1.3.2-2.28,1.43-2.18,2.74s1.23,2.22,2.53,2.01,2.28-1.43,2.18-2.74-1.23-2.22-2.53-2.01Z"/>
    </g>
    <g>
      <line class="cls-4" x1="703.28" y1="424.88" x2="161.72" y2="442.12"/>
      <path class="cls-1" d="M703.28,422.48c1.32-.04,2.33,1,2.26,2.33-.07,1.33-1.19,2.44-2.5,2.48-1.32.04-2.33-1-2.26-2.33.07-1.33,1.19-2.44,2.5-2.48Z"/>
      <path class="cls-1" d="M161.96,439.71c-1.32.04-2.44,1.15-2.5,2.48s.95,2.37,2.26,2.33,2.44-1.15,2.5-2.48-.95-2.37-2.26-2.33Z"/>
    </g>
    <g>
      <line class="cls-4" x1="702.31" y1="458.19" x2="162.69" y2="408.81"/>
      <path class="cls-1" d="M702.6,455.78c1.31.12,2.19,1.29,1.96,2.61-.23,1.32-1.48,2.3-2.79,2.18-1.31-.12-2.19-1.29-1.96-2.61.23-1.32,1.48-2.3,2.79-2.18Z"/>
      <path class="cls-1" d="M163.22,406.42c-1.31-.12-2.56.86-2.79,2.18s.65,2.49,1.96,2.61,2.56-.86,2.79-2.18-.65-2.49-1.96-2.61Z"/>
    </g>
    <g>
      <line class="cls-4" x1="697.29" y1="491.47" x2="167.71" y2="375.53"/>
      <path class="cls-1" d="M697.87,489.09c1.29.28,2.02,1.56,1.63,2.86-.39,1.3-1.74,2.12-3.03,1.84-1.29-.28-2.01-1.56-1.63-2.86.39-1.3,1.74-2.12,3.03-1.84Z"/>
      <path class="cls-1" d="M168.53,373.21c-1.29-.28-2.64.54-3.03,1.84s.34,2.58,1.63,2.86,2.64-.54,3.03-1.84-.34-2.58-1.63-2.86Z"/>
    </g>
    <g>
      <line class="cls-4" x1="688.25" y1="524.21" x2="176.75" y2="342.79"/>
      <path class="cls-1" d="M689.12,521.9c1.24.44,1.81,1.82,1.27,3.07-.54,1.25-1.99,1.92-3.23,1.47-1.24-.44-1.81-1.82-1.27-3.07.54-1.25,1.99-1.92,3.23-1.47Z"/>
      <path class="cls-1" d="M177.85,340.56c-1.24-.44-2.69.22-3.23,1.47s.02,2.63,1.27,3.07,2.69-.22,3.23-1.47-.02-2.63-1.27-3.07Z"/>
    </g>
    <g>
      <line class="cls-4" x1="675.29" y1="555.93" x2="189.71" y2="311.07"/>
      <path class="cls-1" d="M676.43,553.72c1.18.59,1.57,2.04.88,3.23-.69,1.19-2.21,1.67-3.39,1.08-1.18-.59-1.57-2.04-.88-3.23.69-1.19,2.21-1.67,3.39-1.08Z"/>
      <path class="cls-1" d="M191.07,308.97c-1.18-.59-2.7-.11-3.39,1.08s-.3,2.64.88,3.23c1.18.59,2.7.11,3.39-1.08s.3-2.64-.88-3.23Z"/>
    </g>
    <g>
      <line class="cls-4" x1="658.56" y1="586.13" x2="206.44" y2="280.87"/>
      <path class="cls-1" d="M659.97,584.05c1.1.74,1.31,2.24.48,3.35-.83,1.11-2.4,1.41-3.49.67-1.1-.74-1.31-2.24-.48-3.35.83-1.11,2.4-1.41,3.49-.67Z"/>
      <path class="cls-1" d="M208.05,278.93c-1.1-.74-2.66-.44-3.49.67s-.62,2.61.48,3.35c1.1.74,2.66.44,3.49-.67s.62-2.61-.48-3.35Z"/>
    </g>
    <g>
      <line class="cls-4" x1="638.27" y1="614.35" x2="226.73" y2="252.65"/>
      <path class="cls-1" d="M639.92,612.44c1,.88,1.03,2.41.07,3.42-.96,1.01-2.55,1.12-3.55.24-1-.88-1.03-2.41-.07-3.42.96-1.01,2.55-1.12,3.55-.24Z"/>
      <path class="cls-1" d="M228.56,250.9c-1-.88-2.59-.77-3.55.24s-.93,2.54.07,3.42c1,.88,2.59.77,3.55-.24s.93-2.54-.07-3.42Z"/>
    </g>
    <g>
      <line class="cls-4" x1="614.7" y1="640.15" x2="250.3" y2="226.85"/>
      <path class="cls-1" d="M616.57,638.44c.89,1,.73,2.54-.35,3.44-1.08.89-2.67.8-3.55-.2-.88-1-.73-2.54.35-3.44,1.08-.89,2.67-.8,3.55.2Z"/>
      <path class="cls-1" d="M252.33,225.33c-.89-1-2.48-1.09-3.55-.2s-1.23,2.43-.35,3.44c.88,1,2.48,1.09,3.55.2s1.23-2.43.35-3.44Z"/>
    </g>
    <g>
      <line class="cls-4" x1="588.16" y1="663.11" x2="276.84" y2="203.89"/>
      <path class="cls-1" d="M590.22,661.62c.76,1.12.41,2.64-.76,3.4-1.18.76-2.75.48-3.5-.64-.76-1.12-.41-2.64.76-3.4,1.18-.76,2.75-.48,3.5.64Z"/>
      <path class="cls-1" d="M279.04,202.61c-.76-1.12-2.32-1.4-3.5-.64s-1.52,2.29-.76,3.4c.76,1.12,2.32,1.4,3.5.64s1.52-2.29.76-3.4Z"/>
    </g>
    <g>
      <line class="cls-4" x1="559.01" y1="682.86" x2="305.99" y2="184.14"/>
      <path class="cls-1" d="M561.24,681.62c.61,1.21.09,2.7-1.17,3.32-1.26.62-2.78.14-3.4-1.07-.61-1.21-.09-2.7,1.17-3.32,1.26-.62,2.78-.14,3.4,1.07Z"/>
      <path class="cls-1" d="M308.33,183.13c-.61-1.21-2.14-1.69-3.4-1.07s-1.79,2.11-1.17,3.32c.61,1.21,2.14,1.69,3.4,1.07s1.79-2.11,1.17-3.32Z"/>
    </g>
    <g>
      <line class="cls-4" x1="527.68" y1="699.07" x2="337.32" y2="167.93"/>
      <path class="cls-1" d="M530.05,698.11c.46,1.29-.24,2.71-1.57,3.18-1.33.47-2.78-.2-3.24-1.49-.46-1.29.24-2.71,1.57-3.18,1.33-.47,2.78.2,3.24,1.49Z"/>
      <path class="cls-1" d="M339.76,167.2c-.46-1.29-1.91-1.96-3.24-1.49s-2.03,1.89-1.57,3.18c.46,1.29,1.91,1.96,3.24,1.49s2.03-1.89,1.57-3.18Z"/>
    </g>
    <g>
      <line class="cls-4" x1="494.61" y1="711.47" x2="370.39" y2="155.53"/>
      <path class="cls-1" d="M497.07,710.8c.3,1.35-.57,2.69-1.94,3-1.38.3-2.73-.54-3.04-1.89-.3-1.35.57-2.69,1.94-3,1.38-.3,2.73.54,3.04,1.89Z"/>
      <path class="cls-1" d="M372.91,155.1c-.3-1.35-1.66-2.2-3.04-1.89s-2.25,1.65-1.94,3c.3,1.35,1.66,2.2,3.04,1.89s2.25-1.65,1.94-3Z"/>
    </g>
    <g>
      <line class="cls-4" x1="460.27" y1="719.83" x2="404.73" y2="147.17"/>
      <path class="cls-1" d="M462.79,719.46c.13,1.39-.89,2.63-2.29,2.77-1.4.14-2.65-.88-2.78-2.27-.13-1.39.89-2.63,2.29-2.77,1.4-.14,2.65.88,2.78,2.27Z"/>
      <path class="cls-1" d="M407.28,147.04c-.13-1.39-1.38-2.41-2.78-2.27s-2.43,1.37-2.29,2.77c.13,1.39,1.38,2.41,2.78,2.27s2.43-1.37,2.29-2.77Z"/>
    </g>
    <g>
      <line class="cls-4" x1="425.17" y1="723.99" x2="439.83" y2="143.01"/>
      <path class="cls-1" d="M427.72,723.93c-.04,1.41-1.21,2.53-2.61,2.49-1.41-.04-2.52-1.21-2.49-2.62.04-1.41,1.21-2.53,2.61-2.49,1.41.04,2.52,1.21,2.49,2.62Z"/>
      <path class="cls-1" d="M442.38,143.2c.04-1.41-1.08-2.58-2.49-2.62s-2.58,1.08-2.61,2.49c-.04,1.41,1.08,2.58,2.49,2.62s2.58-1.08,2.61-2.49Z"/>
    </g>
    <g>
      <line class="cls-4" x1="389.82" y1="723.83" x2="475.18" y2="143.17"/>
      <path class="cls-1" d="M392.36,724.08c-.21,1.41-1.51,2.38-2.9,2.17-1.39-.21-2.35-1.52-2.15-2.93.21-1.41,1.51-2.38,2.9-2.17,1.39.21,2.35,1.52,2.15,2.93Z"/>
      <path class="cls-1" d="M477.69,143.67c.21-1.41-.75-2.72-2.15-2.93s-2.69.76-2.9,2.17c-.21,1.41.75,2.72,2.15,2.93s2.69-.76,2.9-2.17Z"/>
    </g>
    <g>
      <line class="cls-4" x1="354.75" y1="719.33" x2="510.25" y2="147.67"/>
      <path class="cls-1" d="M357.25,719.89c-.38,1.39-1.78,2.2-3.14,1.82-1.36-.38-2.15-1.82-1.77-3.2.38-1.39,1.78-2.2,3.14-1.82,1.36.38,2.15,1.82,1.77,3.2Z"/>
      <path class="cls-1" d="M512.67,148.49c.38-1.39-.42-2.82-1.77-3.21s-2.76.44-3.14,1.82c-.38,1.39.42,2.82,1.77,3.2s2.76-.44,3.14-1.82Z"/>
    </g>
    <g>
      <line class="cls-4" x1="320.5" y1="710.49" x2="544.5" y2="156.51"/>
      <path class="cls-1" d="M322.9,711.36c-.54,1.35-2.04,1.99-3.34,1.44-1.3-.55-1.91-2.09-1.37-3.43.54-1.35,2.04-1.99,3.34-1.44,1.3.55,1.91,2.09,1.37,3.43Z"/>
      <path class="cls-1" d="M546.81,157.63c.54-1.35-.07-2.88-1.37-3.43s-2.8.1-3.34,1.44c-.54,1.35.07,2.88,1.37,3.43s2.8-.1,3.34-1.44Z"/>
    </g>
    <g>
      <line class="cls-4" x1="287.58" y1="697.42" x2="577.42" y2="169.58"/>
      <path class="cls-1" d="M289.86,698.59c-.7,1.28-2.27,1.74-3.49,1.03-1.22-.71-1.65-2.33-.94-3.61.7-1.28,2.27-1.74,3.49-1.03,1.22.71,1.65,2.33.94,3.61Z"/>
      <path class="cls-1" d="M579.57,170.99c.7-1.28.28-2.9-.94-3.61s-2.79-.25-3.49,1.03c-.7,1.28-.28,2.9.94,3.61s2.79.25,3.49-1.03Z"/>
    </g>
    <g>
      <line class="cls-4" x1="256.5" y1="680.25" x2="608.5" y2="186.75"/>
      <path class="cls-1" d="M258.62,681.71c-.85,1.2-2.46,1.47-3.59.61-1.13-.86-1.35-2.54-.49-3.73.85-1.2,2.46-1.47,3.59-.61,1.13.86,1.35,2.54.49,3.73Z"/>
      <path class="cls-1" d="M610.47,188.42c.85-1.2.63-2.87-.49-3.73s-2.74-.59-3.59.61c-.85,1.2-.63,2.87.49,3.73s2.74.59,3.59-.61Z"/>
    </g>
    <g>
      <line class="cls-4" x1="227.74" y1="659.22" x2="637.26" y2="207.78"/>
      <path class="cls-1" d="M229.66,660.94c-.99,1.1-2.62,1.17-3.64.17-1.01-1-1.03-2.71-.04-3.8.99-1.1,2.62-1.17,3.64-.17,1.01,1,1.03,2.71.04,3.8Z"/>
      <path class="cls-1" d="M639.01,209.7c.99-1.1.98-2.8-.04-3.8s-2.64-.93-3.64.17c-.99,1.1-.98,2.8.04,3.8s2.64.93,3.64-.17Z"/>
    </g>
    <g>
      <line class="cls-4" x1="201.75" y1="634.6" x2="663.25" y2="232.4"/>
      <path class="cls-1" d="M203.46,636.56c-1.12.98-2.75.85-3.63-.28-.88-1.13-.69-2.84.43-3.82,1.12-.98,2.75-.85,3.63.28.88,1.13.69,2.84-.43,3.82Z"/>
      <path class="cls-1" d="M664.75,234.54c1.12-.98,1.31-2.69.43-3.82s-2.51-1.26-3.63-.28c-1.12.98-1.31,2.69-.43,3.82s2.51,1.26,3.63.28Z"/>
    </g>
    <g>
      <line class="cls-4" x1="178.97" y1="606.71" x2="686.03" y2="260.29"/>
      <path class="cls-1" d="M180.42,608.89c-1.23.84-2.83.51-3.57-.73-.74-1.24-.34-2.93.89-3.78,1.23-.84,2.83-.51,3.57.73.74,1.24.34,2.93-.89,3.78Z"/>
      <path class="cls-1" d="M687.26,262.62c1.23-.84,1.63-2.53.89-3.78s-2.34-1.57-3.57-.73c-1.23.84-1.63,2.53-.89,3.78s2.34,1.57,3.57.73Z"/>
    </g>
    <g>
      <line class="cls-4" x1="159.75" y1="575.94" x2="705.25" y2="291.06"/>
      <path class="cls-1" d="M160.92,578.31c-1.32.69-2.87.17-3.45-1.17-.58-1.34.02-2.98,1.34-3.68,1.32-.69,2.87-.17,3.45,1.17.58,1.34-.02,2.98-1.34,3.68Z"/>
      <path class="cls-1" d="M706.19,293.54c1.32-.69,1.93-2.34,1.34-3.68s-2.13-1.86-3.45-1.17c-1.32.69-1.93,2.34-1.34,3.68s2.13,1.86,3.45,1.17Z"/>
    </g>
    <g>
      <line class="cls-4" x1="144.42" y1="542.73" x2="720.58" y2="324.27"/>
      <path class="cls-1" d="M145.3,545.25c-1.4.53-2.87-.19-3.29-1.6-.42-1.41.38-2.99,1.78-3.52,1.4-.53,2.87.19,3.29,1.6.42,1.41-.38,2.99-1.78,3.52Z"/>
      <path class="cls-1" d="M721.21,326.87c1.4-.53,2.2-2.11,1.78-3.52s-1.89-2.13-3.29-1.6c-1.4.53-2.2,2.11-1.78,3.52s1.89,2.13,3.29,1.6Z"/>
    </g>
    <g>
      <line class="cls-4" x1="133.25" y1="507.55" x2="731.74" y2="359.45"/>
      <path class="cls-1" d="M133.82,510.18c-1.45.36-2.83-.54-3.07-2.01-.24-1.47.74-2.95,2.2-3.31,1.45-.36,2.83.54,3.07,2.01.24,1.47-.74,2.95-2.2,3.31Z"/>
      <path class="cls-1" d="M732.05,362.14c1.45-.36,2.44-1.84,2.2-3.31s-1.61-2.37-3.07-2.01c-1.45.36-2.44,1.84-2.2,3.31s1.61,2.37,3.07,2.01Z"/>
    </g>
    <g>
      <line class="cls-4" x1="126.46" y1="470.91" x2="738.54" y2="396.09"/>
      <path class="cls-1" d="M126.7,473.61c-1.49.18-2.74-.89-2.8-2.39-.06-1.5,1.1-2.87,2.58-3.05,1.49-.18,2.74.89,2.8,2.39.06,1.5-1.1,2.87-2.58,3.05Z"/>
      <path class="cls-1" d="M738.51,398.83c1.49-.18,2.64-1.55,2.58-3.05s-1.31-2.57-2.8-2.39c-1.49.18-2.64,1.55-2.58,3.05s1.31,2.57,2.8,2.39Z"/>
    </g>
    <g>
      <line class="cls-4" x1="124.18" y1="433.33" x2="740.82" y2="433.67"/>
      <path class="cls-1" d="M124.09,436.07c-1.5,0-2.61-1.23-2.49-2.74.12-1.51,1.44-2.74,2.94-2.74,1.5,0,2.61,1.23,2.49,2.74-.12,1.51-1.44,2.74-2.94,2.74Z"/>
      <path class="cls-1" d="M740.46,436.41c1.5,0,2.81-1.23,2.94-2.74s-.99-2.74-2.49-2.74c-1.5,0-2.81,1.23-2.94,2.74s.99,2.74,2.49,2.74Z"/>
    </g>
    <g>
      <line class="cls-4" x1="126.5" y1="395.37" x2="738.5" y2="471.63"/>
      <path class="cls-1" d="M126.08,398.11c-1.49-.19-2.44-1.55-2.13-3.05.31-1.5,1.76-2.57,3.25-2.38,1.49.19,2.44,1.55,2.13,3.05-.31,1.5-1.76,2.57-3.25,2.38Z"/>
      <path class="cls-1" d="M737.81,474.33c1.49.19,2.94-.88,3.25-2.38s-.65-2.87-2.13-3.05c-1.49-.19-2.94.88-3.25,2.38s.65,2.87,2.13,3.05Z"/>
    </g>
    <g>
      <line class="cls-4" x1="133.43" y1="357.61" x2="731.57" y2="509.39"/>
      <path class="cls-1" d="M132.68,360.3c-1.45-.37-2.23-1.86-1.75-3.32.49-1.47,2.06-2.36,3.51-1.99,1.45.37,2.23,1.86,1.75,3.32-.49,1.47-2.06,2.36-3.51,1.99Z"/>
      <path class="cls-1" d="M730.55,512.02c1.45.37,3.03-.52,3.51-1.99s-.29-2.96-1.75-3.32c-1.45-.37-3.03.52-3.51,1.99s.29,2.96,1.75,3.32Z"/>
    </g>
    <g>
      <line class="cls-4" x1="144.91" y1="320.6" x2="720.09" y2="546.4"/>
      <path class="cls-1" d="M143.83,323.2c-1.4-.55-1.99-2.14-1.33-3.55.66-1.41,2.33-2.11,3.73-1.56,1.4.55,1.99,2.14,1.33,3.55-.66,1.41-2.33,2.11-3.73,1.56Z"/>
      <path class="cls-1" d="M718.76,548.91c1.4.55,3.07-.15,3.73-1.56s.07-3-1.33-3.55c-1.4-.55-3.07.15-3.73,1.56s-.07,3,1.33,3.55Z"/>
    </g>
    <g>
      <line class="cls-4" x1="160.81" y1="284.9" x2="704.19" y2="582.1"/>
      <path class="cls-1" d="M159.43,287.38c-1.32-.72-1.72-2.39-.89-3.72.83-1.33,2.57-1.83,3.89-1.11,1.32.72,1.72,2.39.89,3.72-.83,1.33-2.57,1.83-3.89,1.11Z"/>
      <path class="cls-1" d="M702.57,584.44c1.32.72,3.06.23,3.89-1.11s.43-3-.89-3.72c-1.32-.72-3.06-.23-3.89,1.11s-.43,3,.89,3.72Z"/>
    </g>
    <g>
      <line class="cls-4" x1="180.95" y1="251.08" x2="684.05" y2="615.92"/>
      <path class="cls-1" d="M179.27,253.39c-1.22-.89-1.41-2.61-.43-3.84.99-1.23,2.78-1.52,4-.63,1.22.89,1.41,2.61.43,3.84-.99,1.23-2.78,1.52-4,.63Z"/>
      <path class="cls-1" d="M682.16,618.08c1.22.89,3.01.6,4-.63s.8-2.95-.43-3.84c-1.22-.89-3.01-.6-4,.63s-.8,2.95.43,3.84Z"/>
    </g>
    <g>
      <line class="cls-4" x1="205.05" y1="219.64" x2="659.95" y2="647.36"/>
      <path class="cls-1" d="M203.11,221.76c-1.1-1.04-1.08-2.79.05-3.9,1.13-1.12,2.94-1.18,4.05-.14,1.1,1.04,1.08,2.79-.05,3.9-1.13,1.12-2.94,1.18-4.05.14Z"/>
      <path class="cls-1" d="M657.8,649.29c1.1,1.04,2.92.98,4.05-.14s1.15-2.86.05-3.9c-1.1-1.04-2.92-.98-4.05.14s-1.15,2.86-.05,3.9Z"/>
    </g>
    <g>
      <line class="cls-4" x1="232.81" y1="191.09" x2="632.19" y2="675.91"/>
      <path class="cls-1" d="M230.62,192.97c-.97-1.18-.74-2.93.52-3.91,1.26-.98,3.06-.82,4.03.36.97,1.18.74,2.93-.52,3.91-1.26.98-3.06.82-4.03-.36Z"/>
      <path class="cls-1" d="M629.83,677.58c.97,1.18,2.78,1.34,4.03.36s1.49-2.73.52-3.91c-.97-1.18-2.78-1.34-4.03-.36s-1.49,2.73-.52,3.91Z"/>
    </g>
    <g>
      <line class="cls-4" x1="263.84" y1="165.89" x2="601.16" y2="701.11"/>
      <path class="cls-1" d="M261.44,167.5c-.82-1.3-.37-3.03.99-3.85,1.37-.83,3.14-.44,3.96.86.82,1.3.37,3.03-.99,3.85-1.37.83-3.14.44-3.96-.86Z"/>
      <path class="cls-1" d="M598.61,702.49c.82,1.3,2.59,1.68,3.96.86s1.81-2.55.99-3.85c-.82-1.3-2.59-1.68-3.96-.86s-1.81,2.55-.99,3.85Z"/>
    </g>
    <g>
      <line class="cls-4" x1="297.71" y1="144.44" x2="567.29" y2="722.56"/>
      <path class="cls-1" d="M295.13,145.76c-.65-1.4,0-3.08,1.45-3.74,1.46-.66,3.17-.06,3.83,1.35.65,1.4,0,3.08-1.45,3.74-1.46.66-3.17.06-3.83-1.35Z"/>
      <path class="cls-1" d="M564.59,723.63c.65,1.4,2.37,2.01,3.83,1.35s2.11-2.34,1.45-3.74c-.65-1.4-2.37-2.01-3.83-1.35s-2.11,2.34-1.45,3.74Z"/>
    </g>
    <g>
      <line class="cls-4" x1="333.94" y1="127.1" x2="531.06" y2="739.9"/>
      <path class="cls-1" d="M331.22,128.11c-.48-1.49.37-3.09,1.9-3.57,1.53-.48,3.15.33,3.63,1.82.48,1.49-.37,3.09-1.9,3.57-1.53.48-3.15-.33-3.63-1.82Z"/>
      <path class="cls-1" d="M528.25,740.64c.48,1.49,2.11,2.3,3.63,1.82s2.38-2.08,1.9-3.57c-.48-1.49-2.11-2.3-3.63-1.82s-2.38,2.08-1.9,3.57Z"/>
    </g>
    <g>
      <line class="cls-4" x1="372.02" y1="114.18" x2="492.98" y2="752.82"/>
      <path class="cls-1" d="M369.19,114.86c-.29-1.55.75-3.05,2.32-3.35,1.58-.3,3.09.72,3.38,2.27.29,1.55-.75,3.05-2.32,3.35-1.58.3-3.09-.72-3.38-2.27Z"/>
      <path class="cls-1" d="M490.1,753.22c.29,1.55,1.81,2.57,3.38,2.27s2.61-1.8,2.32-3.35c-.29-1.55-1.81-2.57-3.38-2.27s-2.61,1.8-2.32,3.35Z"/>
    </g>
    <g>
      <line class="cls-4" x1="411.39" y1="105.91" x2="453.61" y2="761.09"/>
      <path class="cls-1" d="M408.5,106.25c-.1-1.59,1.11-2.97,2.71-3.07,1.6-.1,2.98,1.1,3.08,2.69.1,1.59-1.11,2.97-2.71,3.07-1.6.1-2.98-1.1-3.08-2.69Z"/>
      <path class="cls-1" d="M450.71,761.13c.1,1.59,1.48,2.8,3.08,2.69s2.81-1.48,2.71-3.07c-.1-1.59-1.48-2.8-3.08-2.69s-2.81,1.48-2.71,3.07Z"/>
    </g>
    <g>
      <line class="cls-4" x1="451.47" y1="102.47" x2="413.53" y2="764.53"/>
      <path class="cls-1" d="M448.56,102.45c.09-1.61,1.46-2.84,3.06-2.74,1.6.09,2.82,1.47,2.73,3.08-.09,1.61-1.46,2.84-3.06,2.74-1.6-.09-2.82-1.47-2.73-3.08Z"/>
      <path class="cls-1" d="M410.64,764.21c-.09,1.61,1.13,2.99,2.73,3.08,1.6.09,2.97-1.14,3.06-2.74.09-1.61-1.13-2.99-2.73-3.08s-2.97,1.14-3.06,2.74Z"/>
    </g>
    <g>
      <line class="cls-4" x1="491.67" y1="103.96" x2="373.33" y2="763.04"/>
      <path class="cls-1" d="M488.78,103.57c.29-1.6,1.8-2.66,3.38-2.37,1.58.29,2.62,1.82,2.34,3.42-.29,1.6-1.8,2.66-3.38,2.37-1.58-.29-2.62-1.82-2.34-3.42Z"/>
      <path class="cls-1" d="M370.5,762.37c-.29,1.6.76,3.13,2.34,3.42,1.58.29,3.09-.77,3.38-2.37.29-1.6-.76-3.13-2.34-3.42s-3.09.77-3.38,2.37Z"/>
    </g>
    <g>
      <line class="cls-4" x1="531.39" y1="110.39" x2="333.61" y2="756.61"/>
      <path class="cls-1" d="M528.57,109.66c.48-1.57,2.11-2.45,3.64-1.96,1.53.49,2.38,2.15,1.9,3.72-.48,1.57-2.11,2.45-3.64,1.96-1.53-.49-2.38-2.15-1.9-3.72Z"/>
      <path class="cls-1" d="M330.89,755.59c-.48,1.57.37,3.24,1.9,3.72,1.53.49,3.16-.39,3.64-1.96.48-1.57-.37-3.24-1.9-3.72s-3.16.39-3.64,1.96Z"/>
    </g>
    <g>
      <line class="cls-4" x1="570.03" y1="121.73" x2="294.97" y2="745.27"/>
      <path class="cls-1" d="M567.32,120.65c.67-1.51,2.39-2.2,3.85-1.52,1.46.67,2.1,2.45,1.43,3.96-.67,1.51-2.39,2.2-3.85,1.52-1.46-.67-2.1-2.45-1.43-3.96Z"/>
      <path class="cls-1" d="M292.39,743.91c-.67,1.51-.03,3.29,1.43,3.96,1.46.67,3.18,0,3.85-1.52.67-1.51.03-3.29-1.43-3.96s-3.18,0-3.85,1.52Z"/>
    </g>
    <g>
      <line class="cls-4" x1="607" y1="137.86" x2="258" y2="729.14"/>
      <path class="cls-1" d="M604.45,136.44c.85-1.44,2.64-1.91,4.01-1.05,1.37.86,1.79,2.71.94,4.15-.85,1.44-2.64,1.91-4.01,1.05-1.37-.86-1.79-2.71-.94-4.15Z"/>
      <path class="cls-1" d="M255.61,727.46c-.85,1.44-.43,3.29.94,4.15,1.37.86,3.16.39,4.01-1.05.85-1.44.43-3.29-.94-4.15s-3.16-.39-4.01,1.05Z"/>
    </g>
    <g>
      <line class="cls-4" x1="641.73" y1="158.58" x2="223.27" y2="708.42"/>
      <path class="cls-1" d="M639.37,156.84c1.02-1.34,2.86-1.59,4.11-.56,1.25,1.03,1.44,2.94.43,4.28-1.02,1.34-2.86,1.59-4.11.56-1.25-1.03-1.44-2.94-.43-4.28Z"/>
      <path class="cls-1" d="M221.1,706.44c-1.02,1.34-.83,3.25.43,4.28,1.25,1.03,3.09.78,4.11-.56,1.02-1.34.83-3.25-.43-4.28s-3.09-.78-4.11.56Z"/>
    </g>
    <g>
      <line class="cls-4" x1="673.67" y1="183.63" x2="191.33" y2="683.37"/>
      <path class="cls-1" d="M671.54,181.6c1.17-1.21,3.03-1.24,4.14-.06,1.12,1.18,1.07,3.13-.1,4.34s-3.03,1.24-4.14.06c-1.12-1.18-1.07-3.13.1-4.34Z"/>
      <path class="cls-1" d="M189.41,681.12c-1.17,1.21-1.22,3.16-.1,4.34,1.12,1.18,2.97,1.16,4.14-.06,1.17-1.21,1.22-3.16.1-4.34s-2.97-1.16-4.14.06Z"/>
    </g>
    <g>
      <line class="cls-4" x1="702.32" y1="212.68" x2="162.68" y2="654.32"/>
      <path class="cls-1" d="M700.46,210.38c1.31-1.07,3.16-.87,4.12.45.96,1.32.68,3.27-.63,4.34-1.31,1.07-3.16.87-4.12-.46-.96-1.32-.68-3.27.63-4.34Z"/>
      <path class="cls-1" d="M161.05,651.83c-1.31,1.07-1.59,3.02-.63,4.34.96,1.32,2.81,1.53,4.12.45,1.31-1.07,1.59-3.02.63-4.34s-2.81-1.53-4.12-.46Z"/>
    </g>
    <g>
      <line class="cls-4" x1="727.22" y1="245.32" x2="137.78" y2="621.68"/>
      <path class="cls-1" d="M725.65,242.79c1.43-.91,3.24-.48,4.03.96.8,1.45.28,3.36-1.15,4.27-1.43.91-3.24.48-4.03-.96-.8-1.45-.28-3.36,1.15-4.27Z"/>
      <path class="cls-1" d="M136.46,618.98c-1.43.91-1.95,2.83-1.15,4.27.8,1.45,2.6,1.88,4.03.96,1.43-.91,1.95-2.83,1.15-4.27s-2.6-1.88-4.03-.96Z"/>
    </g>
    <g>
      <line class="cls-4" x1="747.96" y1="281.12" x2="117.04" y2="585.88"/>
      <path class="cls-1" d="M746.71,278.38c1.53-.74,3.27-.09,3.89,1.46.61,1.55-.13,3.4-1.66,4.14-1.53.74-3.27.09-3.89-1.46-.61-1.55.13-3.4,1.66-4.14Z"/>
      <path class="cls-1" d="M116.07,583.01c-1.53.74-2.28,2.6-1.66,4.14.61,1.55,2.35,2.2,3.89,1.46,1.53-.74,2.28-2.6,1.66-4.14s-2.35-2.2-3.89-1.46Z"/>
    </g>
    <g>
      <line class="cls-4" x1="764.18" y1="319.56" x2="100.82" y2="547.44"/>
      <path class="cls-1" d="M763.27,316.66c1.61-.55,3.26.32,3.68,1.94.42,1.63-.54,3.4-2.16,3.95-1.61.55-3.26-.32-3.68-1.94-.42-1.63.54-3.4,2.16-3.95Z"/>
      <path class="cls-1" d="M100.2,544.44c-1.61.55-2.58,2.32-2.16,3.95.42,1.63,2.07,2.5,3.68,1.94,1.61-.55,2.58-2.32,2.16-3.95s-2.07-2.5-3.68-1.94Z"/>
    </g>
    <g>
      <line class="cls-4" x1="775.59" y1="360.1" x2="89.41" y2="506.9"/>
      <path class="cls-1" d="M775.04,357.08c1.67-.36,3.2.72,3.42,2.4.22,1.68-.95,3.34-2.62,3.69-1.67.36-3.2-.72-3.42-2.4-.22-1.68.95-3.34,2.62-3.69Z"/>
      <path class="cls-1" d="M89.16,503.82c-1.67.36-2.84,2.01-2.62,3.69.22,1.68,1.75,2.76,3.42,2.4,1.67-.36,2.84-2.01,2.62-3.69s-1.75-2.76-3.42-2.4Z"/>
    </g>
    <g>
      <line class="cls-4" x1="781.98" y1="402.14" x2="83.02" y2="464.86"/>
      <path class="cls-1" d="M781.8,399.05c1.7-.15,3.08,1.11,3.1,2.83.01,1.71-1.35,3.23-3.05,3.38-1.7.15-3.08-1.11-3.1-2.83-.01-1.71,1.35-3.23,3.05-3.38Z"/>
      <path class="cls-1" d="M83.15,461.74c-1.7.15-3.06,1.67-3.05,3.38.01,1.71,1.4,2.98,3.1,2.83,1.7-.15,3.06-1.67,3.05-3.38s-1.4-2.98-3.1-2.83Z"/>
    </g>
    <g>
      <line class="cls-4" x1="783.2" y1="445.08" x2="81.8" y2="421.92"/>
      <path class="cls-1" d="M783.4,441.96c1.7.06,2.93,1.5,2.73,3.22-.2,1.72-1.74,3.07-3.44,3.01-1.7-.06-2.93-1.5-2.73-3.22.2-1.72,1.74-3.07,3.44-3.01Z"/>
      <path class="cls-1" d="M82.31,418.8c-1.7-.06-3.24,1.29-3.44,3.01-.2,1.72,1.03,3.16,2.73,3.22,1.7.06,3.24-1.29,3.44-3.01s-1.03-3.16-2.73-3.22Z"/>
    </g>
    <g>
      <line class="cls-4" x1="779.17" y1="488.29" x2="85.83" y2="378.71"/>
      <path class="cls-1" d="M779.75,485.18c1.68.27,2.72,1.86,2.32,3.56-.4,1.7-2.1,2.86-3.78,2.6s-2.72-1.86-2.32-3.56c.4-1.7,2.1-2.86,3.78-2.6Z"/>
      <path class="cls-1" d="M86.71,375.66c-1.68-.27-3.38.9-3.78,2.6-.4,1.7.63,3.3,2.32,3.56,1.68.27,3.38-.9,3.78-2.6s-.63-3.3-2.32-3.56Z"/>
    </g>
    <g>
      <line class="cls-4" x1="769.91" y1="531.1" x2="95.09" y2="335.9"/>
      <path class="cls-1" d="M770.86,528.06c1.64.47,2.47,2.2,1.87,3.86s-2.43,2.61-4.07,2.14-2.47-2.2-1.87-3.86c.61-1.66,2.43-2.61,4.07-2.14Z"/>
      <path class="cls-1" d="M96.34,332.94c-1.64-.47-3.46.48-4.07,2.14-.61,1.66.23,3.38,1.87,3.86,1.64.47,3.46-.48,4.07-2.14s-.23-3.38-1.87-3.86Z"/>
    </g>
    <g>
      <line class="cls-4" x1="755.5" y1="572.89" x2="109.5" y2="294.11"/>
      <path class="cls-1" d="M756.82,569.96c1.57.68,2.19,2.51,1.38,4.1-.81,1.58-2.73,2.32-4.3,1.64-1.57-.68-2.19-2.51-1.38-4.1.81-1.58,2.73-2.32,4.3-1.64Z"/>
      <path class="cls-1" d="M111.1,291.3c-1.57-.68-3.49.06-4.3,1.64-.81,1.58-.19,3.42,1.38,4.1,1.57.68,3.49-.06,4.3-1.64s.19-3.42-1.38-4.1Z"/>
    </g>
    <g>
      <line class="cls-4" x1="736.11" y1="613.01" x2="128.89" y2="253.99"/>
      <path class="cls-1" d="M737.77,610.23c1.47.87,1.87,2.79.87,4.28s-2.99,1.99-4.47,1.12c-1.47-.87-1.87-2.79-.87-4.28.99-1.49,2.99-1.99,4.47-1.12Z"/>
      <path class="cls-1" d="M130.83,251.37c-1.47-.87-3.48-.37-4.47,1.12-.99,1.49-.6,3.4.87,4.28,1.47.87,3.48.37,4.47-1.12s.6-3.4-.87-4.28Z"/>
    </g>
    <g>
      <line class="cls-4" x1="711.97" y1="650.84" x2="153.03" y2="216.16"/>
      <path class="cls-1" d="M713.96,648.27c1.36,1.06,1.51,3.02.34,4.39s-3.21,1.63-4.57.57-1.51-3.02-.34-4.39c1.17-1.37,3.21-1.63,4.57-.57Z"/>
      <path class="cls-1" d="M155.27,213.77c-1.36-1.06-3.4-.8-4.57.57-1.17,1.37-1.01,3.34.34,4.39,1.36,1.06,3.4.8,4.57-.57s1.01-3.34-.34-4.39Z"/>
    </g>
    <g>
      <line class="cls-4" x1="683.4" y1="685.81" x2="181.6" y2="181.19"/>
      <path class="cls-1" d="M685.69,683.46c1.22,1.23,1.13,3.22-.19,4.45s-3.39,1.24-4.61,0-1.13-3.22.19-4.45c1.33-1.23,3.39-1.24,4.61,0Z"/>
      <path class="cls-1" d="M184.12,179.08c-1.22-1.23-3.28-1.22-4.61,0-1.33,1.23-1.41,3.22-.19,4.45,1.22,1.23,3.28,1.22,4.61,0s1.41-3.22.19-4.45Z"/>
    </g>
    <g>
      <line class="cls-4" x1="650.78" y1="717.34" x2="214.22" y2="149.66"/>
      <path class="cls-1" d="M653.34,715.28c1.06,1.38.73,3.37-.73,4.44s-3.51.82-4.57-.56c-1.06-1.38-.73-3.37.73-4.44,1.47-1.07,3.51-.82,4.57.56Z"/>
      <path class="cls-1" d="M216.97,147.85c-1.06-1.38-3.11-1.63-4.57-.56-1.47,1.07-1.79,3.06-.73,4.44,1.06,1.38,3.11,1.63,4.57.56s1.79-3.06.73-4.44Z"/>
    </g>
    <g>
      <line class="cls-4" x1="614.56" y1="744.94" x2="250.44" y2="122.06"/>
      <path class="cls-1" d="M617.35,743.18c.88,1.51.32,3.46-1.27,4.36s-3.59.39-4.47-1.12c-.88-1.51-.32-3.46,1.27-4.36,1.59-.89,3.59-.39,4.47,1.12Z"/>
      <path class="cls-1" d="M253.39,120.58c-.88-1.51-2.89-2.02-4.47-1.12-1.59.89-2.15,2.84-1.27,4.36.88,1.51,2.89,2.02,4.47,1.12s2.15-2.84,1.27-4.36Z"/>
    </g>
    <g>
      <line class="cls-4" x1="575.25" y1="768.15" x2="289.75" y2="98.85"/>
      <path class="cls-1" d="M578.23,766.74c.69,1.63-.11,3.51-1.79,4.21s-3.61-.05-4.3-1.68c-.69-1.63.11-3.51,1.79-4.21,1.68-.7,3.61.05,4.3,1.68Z"/>
      <path class="cls-1" d="M292.86,97.73c-.69-1.63-2.62-2.38-4.3-1.68-1.68.7-2.48,2.59-1.79,4.21.69,1.63,2.62,2.38,4.3,1.68s2.48-2.59,1.79-4.21Z"/>
    </g>
    <g>
      <line class="cls-4" x1="533.4" y1="786.58" x2="331.6" y2="80.42"/>
      <path class="cls-1" d="M536.53,785.53c.49,1.72-.54,3.51-2.29,4s-3.58-.49-4.07-2.21c-.49-1.72.54-3.51,2.29-4,1.76-.5,3.58.49,4.07,2.21Z"/>
      <path class="cls-1" d="M334.82,79.67c-.49-1.72-2.31-2.7-4.07-2.21-1.76.5-2.78,2.29-2.29,4,.49,1.72,2.31,2.7,4.07,2.21s2.78-2.29,2.29-4Z"/>
    </g>
    <g>
      <line class="cls-4" x1="489.62" y1="799.91" x2="375.38" y2="67.09"/>
      <path class="cls-1" d="M492.86,799.25c.28,1.78-.96,3.45-2.76,3.73s-3.49-.94-3.77-2.72c-.28-1.78.96-3.45,2.76-3.73s3.49.94,3.77,2.72Z"/>
      <path class="cls-1" d="M378.67,66.74c-.28-1.78-1.96-3-3.77-2.72-1.8.28-3.04,1.95-2.76,3.73.28,1.78,1.96,3,3.77,2.72s3.04-1.95,2.76-3.73Z"/>
    </g>
    <g>
      <line class="cls-4" x1="444.54" y1="807.89" x2="420.46" y2="59.11"/>
      <path class="cls-1" d="M447.83,807.62c.06,1.82-1.37,3.34-3.2,3.4s-3.35-1.37-3.41-3.19c-.06-1.82,1.37-3.34,3.2-3.4,1.82-.06,3.35,1.37,3.41,3.19Z"/>
      <path class="cls-1" d="M423.77,59.17c-.06-1.82-1.58-3.25-3.41-3.19-1.82.06-3.25,1.58-3.2,3.4.06,1.82,1.58,3.25,3.41,3.19s3.25-1.58,3.2-3.4Z"/>
    </g>
    <g>
      <line class="cls-4" x1="398.82" y1="810.33" x2="466.18" y2="56.67"/>
      <path class="cls-1" d="M402.13,810.47c-.16,1.83-1.77,3.18-3.59,3.02s-3.16-1.78-2.99-3.61c.16-1.83,1.77-3.18,3.59-3.02s3.16,1.78,2.99,3.61Z"/>
      <path class="cls-1" d="M469.45,57.13c.16-1.83-1.18-3.45-2.99-3.61-1.82-.17-3.42,1.19-3.59,3.02-.16,1.83,1.18,3.45,2.99,3.61s3.42-1.19,3.59-3.02Z"/>
    </g>
    <g>
      <line class="cls-4" x1="353.15" y1="807.16" x2="511.85" y2="59.84"/>
      <path class="cls-1" d="M356.41,807.7c-.39,1.82-2.14,2.97-3.93,2.58s-2.92-2.18-2.53-3.99c.39-1.81,2.14-2.97,3.93-2.58s2.92,2.18,2.53,3.99Z"/>
      <path class="cls-1" d="M515.05,60.71c.39-1.82-.75-3.6-2.53-3.99-1.78-.39-3.54.77-3.93,2.58-.39,1.81.75,3.6,2.53,3.99s3.54-.77,3.93-2.58Z"/>
    </g>
    <g>
      <line class="cls-4" x1="308.2" y1="798.35" x2="556.8" y2="68.65"/>
      <path class="cls-1" d="M311.38,799.29c-.6,1.77-2.49,2.71-4.21,2.1s-2.63-2.54-2.03-4.31c.6-1.77,2.49-2.71,4.21-2.1s2.63,2.54,2.03,4.31Z"/>
      <path class="cls-1" d="M559.86,69.92c.6-1.77-.3-3.7-2.03-4.31-1.72-.61-3.61.33-4.21,2.1-.6,1.77.3,3.7,2.03,4.31s3.61-.33,4.21-2.1Z"/>
    </g>
    <g>
      <line class="cls-4" x1="264.66" y1="783.99" x2="600.34" y2="83.01"/>
      <path class="cls-1" d="M267.7,785.32c-.82,1.7-2.8,2.42-4.44,1.59s-2.3-2.87-1.49-4.57c.82-1.7,2.8-2.42,4.44-1.59s2.3,2.87,1.49,4.57Z"/>
      <path class="cls-1" d="M603.22,84.66c.82-1.7.15-3.75-1.49-4.57-1.64-.82-3.62-.11-4.44,1.59-.82,1.7-.15,3.75,1.49,4.57s3.62.11,4.44-1.59Z"/>
    </g>
    <g>
      <line class="cls-4" x1="223.2" y1="764.23" x2="641.8" y2="102.77"/>
      <path class="cls-1" d="M226.05,765.94c-1.02,1.61-3.08,2.08-4.6,1.05s-1.93-3.16-.92-4.77c1.02-1.61,3.08-2.08,4.6-1.05,1.52,1.03,1.93,3.16.92,4.77Z"/>
      <path class="cls-1" d="M644.46,104.78c1.02-1.61.61-3.74-.92-4.77-1.52-1.03-3.58-.56-4.6,1.05-1.02,1.61-.61,3.74.92,4.77s3.58.56,4.6-1.05Z"/>
    </g>
    <g>
      <line class="cls-4" x1="184.46" y1="739.31" x2="680.54" y2="127.69"/>
      <path class="cls-1" d="M187.08,741.38c-1.2,1.49-3.31,1.7-4.69.49s-1.53-3.41-.33-4.89c1.2-1.49,3.31-1.7,4.69-.49s1.53,3.41.33,4.89Z"/>
      <path class="cls-1" d="M682.94,130.03c1.2-1.49,1.06-3.68-.33-4.89-1.39-1.22-3.49-1-4.69.49-1.2,1.49-1.06,3.68.33,4.89s3.49,1,4.69-.49Z"/>
    </g>
    <g>
      <line class="cls-4" x1="149.04" y1="709.56" x2="715.96" y2="157.44"/>
      <path class="cls-1" d="M151.38,711.96c-1.38,1.34-3.49,1.3-4.72-.09s-1.11-3.61.27-4.95c1.38-1.34,3.49-1.3,4.72.09s1.11,3.61-.27,4.95Z"/>
      <path class="cls-1" d="M718.06,160.08c1.38-1.34,1.5-3.56.27-4.95-1.23-1.39-3.34-1.43-4.72-.09-1.38,1.34-1.5,3.56-.27,4.95s3.34,1.43,4.72.09Z"/>
    </g>
    <g>
      <line class="cls-4" x1="117.51" y1="675.38" x2="747.49" y2="191.62"/>
      <path class="cls-1" d="M119.54,678.07c-1.53,1.17-3.62.87-4.67-.67s-.66-3.75.87-4.93c1.53-1.17,3.62-.87,4.67.67s.66,3.75-.87,4.93Z"/>
      <path class="cls-1" d="M749.26,194.53c1.53-1.17,1.92-3.38.87-4.93-1.05-1.55-3.14-1.85-4.67-.67-1.53,1.17-1.92,3.38-.87,4.93s3.14,1.85,4.67.67Z"/>
    </g>
    <g>
      <line class="cls-4" x1="90.38" y1="637.23" x2="774.62" y2="229.77"/>
      <path class="cls-1" d="M92.07,640.18c-1.66.99-3.7.43-4.55-1.25s-.2-3.84,1.46-4.83,3.7-.43,4.55,1.25.2,3.84-1.46,4.83Z"/>
      <path class="cls-1" d="M776.02,232.9c1.66-.99,2.32-3.15,1.47-4.83-.85-1.68-2.89-2.24-4.55-1.25-1.66.99-2.32,3.15-1.46,4.83s2.89,2.24,4.55,1.25Z"/>
    </g>
    <g>
      <line class="cls-4" x1="68.1" y1="595.63" x2="796.9" y2="271.37"/>
      <path class="cls-1" d="M69.42,598.8c-1.77.79-3.73-.02-4.37-1.81s.27-3.88,2.04-4.66,3.73.02,4.37,1.81-.27,3.88-2.04,4.66Z"/>
      <path class="cls-1" d="M797.9,274.67c1.77-.79,2.68-2.88,2.04-4.66-.64-1.79-2.6-2.6-4.37-1.81-1.77.79-2.68,2.88-2.04,4.66s2.6,2.6,4.37,1.81Z"/>
    </g>
    <g>
      <line class="cls-4" x1="51.06" y1="551.19" x2="813.94" y2="315.81"/>
      <path class="cls-1" d="M51.98,554.53c-1.85.57-3.7-.48-4.11-2.35s.74-3.85,2.6-4.42,3.7.48,4.11,2.35-.74,3.85-2.6,4.42Z"/>
      <path class="cls-1" d="M814.54,319.25c1.85-.57,3.02-2.55,2.6-4.42-.42-1.87-2.26-2.93-4.11-2.35-1.85.57-3.02,2.55-2.6,4.42.42,1.87,2.26,2.93,4.11,2.35Z"/>
    </g>
    <g>
      <line class="cls-4" x1="39.56" y1="504.54" x2="825.44" y2="362.46"/>
      <path class="cls-1" d="M40.07,508c-1.91.35-3.61-.94-3.8-2.87s1.21-3.77,3.12-4.12,3.61.94,3.8,2.87-1.21,3.77-3.12,4.12Z"/>
      <path class="cls-1" d="M825.61,365.98c1.91-.35,3.3-2.19,3.12-4.12-.19-1.93-1.89-3.21-3.8-2.87-1.91.35-3.3,2.19-3.12,4.12.19,1.93,1.89,3.21,3.8,2.87Z"/>
    </g>
    <g>
      <line class="cls-4" x1="33.83" y1="456.35" x2="831.17" y2="410.65"/>
      <path class="cls-1" d="M33.91,459.88c-1.94.11-3.47-1.39-3.42-3.34s1.66-3.63,3.59-3.74,3.47,1.39,3.42,3.34-1.66,3.63-3.59,3.74Z"/>
      <path class="cls-1" d="M830.91,414.2c1.94-.11,3.55-1.79,3.59-3.74.05-1.96-1.48-3.45-3.42-3.34-1.94.11-3.55,1.79-3.59,3.74-.05,1.96,1.48,3.45,3.42,3.34Z"/>
    </g>
    <g>
      <line class="cls-4" x1="34.01" y1="407.33" x2="830.99" y2="459.67"/>
      <path class="cls-1" d="M33.67,410.89c-1.94-.13-3.27-1.82-2.99-3.77s2.09-3.44,4.02-3.31,3.27,1.82,2.99,3.77-2.09,3.44-4.02,3.31Z"/>
      <path class="cls-1" d="M830.29,463.2c1.94.13,3.74-1.36,4.02-3.31s-1.05-3.64-2.99-3.77c-1.94-.13-3.74,1.36-4.02,3.31s1.05,3.64,2.99,3.77Z"/>
    </g>
    <g>
      <line class="cls-4" x1="40.17" y1="358.21" x2="824.83" y2="508.79"/>
      <path class="cls-1" d="M39.4,361.73c-1.91-.37-3.03-2.22-2.5-4.15s2.49-3.19,4.4-2.82,3.03,2.22,2.5,4.15-2.49,3.19-4.4,2.82Z"/>
      <path class="cls-1" d="M823.71,512.24c1.91.37,3.87-.9,4.4-2.82s-.6-3.78-2.5-4.15c-1.91-.37-3.87.9-4.4,2.82s.6,3.78,2.5,4.15Z"/>
    </g>
    <g>
      <line class="cls-4" x1="52.27" y1="309.72" x2="812.73" y2="557.28"/>
      <path class="cls-1" d="M51.08,313.16c-1.85-.6-2.73-2.6-1.98-4.47s2.86-2.89,4.71-2.29,2.73,2.6,1.98,4.47-2.86,2.89-4.71,2.29Z"/>
      <path class="cls-1" d="M811.2,560.6c1.85.6,3.96-.42,4.71-2.29s-.13-3.87-1.98-4.47c-1.85-.6-3.96.42-4.71,2.29s.13,3.87,1.98,4.47Z"/>
    </g>
    <g>
      <line class="cls-4" x1="70.19" y1="262.6" x2="794.81" y2="604.4"/>
      <path class="cls-1" d="M68.59,265.89c-1.76-.83-2.4-2.94-1.42-4.72s3.19-2.55,4.95-1.72,2.4,2.94,1.42,4.72-3.19,2.55-4.95,1.72Z"/>
      <path class="cls-1" d="M792.88,607.55c1.76.83,3.98.06,4.95-1.72s.34-3.89-1.42-4.72c-1.76-.83-3.98-.06-4.95,1.72s-.34,3.89,1.42,4.72Z"/>
    </g>
    <g>
      <line class="cls-4" x1="93.72" y1="217.56" x2="771.28" y2="649.44"/>
      <path class="cls-1" d="M91.72,220.66c-1.65-1.05-2.02-3.25-.84-4.91s3.48-2.16,5.12-1.11,2.02,3.25.84,4.91-3.48,2.16-5.12,1.11Z"/>
      <path class="cls-1" d="M768.99,652.36c1.65,1.05,3.94.55,5.12-1.11s.81-3.86-.84-4.91c-1.65-1.05-3.94-.55-5.12,1.11s-.81,3.86.84,4.91Z"/>
    </g>
    <g>
      <line class="cls-4" x1="122.56" y1="175.3" x2="742.44" y2="691.7"/>
      <path class="cls-1" d="M120.2,178.17c-1.51-1.25-1.61-3.5-.23-5.03s3.72-1.74,5.22-.48,1.61,3.5.23,5.03-3.72,1.74-5.22.48Z"/>
      <path class="cls-1" d="M739.81,694.34c1.51,1.25,3.84,1.04,5.22-.48s1.27-3.77-.23-5.03c-1.51-1.25-3.84-1.04-5.22.48s-1.27,3.77.23,5.03Z"/>
    </g>
    <g>
      <line class="cls-4" x1="156.34" y1="136.48" x2="708.66" y2="730.52"/>
      <path class="cls-1" d="M153.65,139.07c-1.34-1.44-1.17-3.71.38-5.07s3.9-1.28,5.24.16,1.17,3.71-.38,5.07-3.9,1.28-5.24-.16Z"/>
      <path class="cls-1" d="M705.73,732.84c1.34,1.44,3.69,1.51,5.24.16s1.72-3.62.38-5.07-3.69-1.51-5.24-.16-1.72,3.62-.38,5.07Z"/>
    </g>
    <g>
      <line class="cls-4" x1="194.59" y1="101.72" x2="670.41" y2="765.28"/>
      <path class="cls-1" d="M191.61,103.98c-1.16-1.61-.71-3.86,1-5.03s4.03-.81,5.18.8.71,3.86-1,5.03-4.03.81-5.18-.8Z"/>
      <path class="cls-1" d="M667.21,767.25c1.16,1.61,3.48,1.97,5.18.8s2.15-3.42,1-5.03c-1.16-1.61-3.48-1.97-5.18-.8s-2.15,3.42-1,5.03Z"/>
    </g>
    <g>
      <line class="cls-4" x1="236.8" y1="71.58" x2="628.2" y2="795.42"/>
      <path class="cls-1" d="M233.56,73.48c-.95-1.76-.23-3.96,1.6-4.92s4.1-.31,5.05,1.44.23,3.96-1.6,4.92-4.1.31-5.05-1.44Z"/>
      <path class="cls-1" d="M624.79,797c.95,1.76,3.21,2.4,5.05,1.44s2.55-3.16,1.6-4.92-3.21-2.4-5.05-1.44-2.55,3.16-1.6,4.92Z"/>
    </g>
    <g>
      <line class="cls-4" x1="282.37" y1="46.56" x2="582.63" y2="820.44"/>
      <path class="cls-1" d="M278.92,48.07c-.73-1.88.25-4,2.19-4.74s4.1.19,4.83,2.07-.25,4-2.19,4.74-4.1-.19-4.83-2.07Z"/>
      <path class="cls-1" d="M579.06,821.6c.73,1.88,2.89,2.81,4.83,2.07s2.92-2.86,2.19-4.74-2.89-2.81-4.83-2.07-2.92,2.86-2.19,4.74Z"/>
    </g>
    <g>
      <line class="cls-4" x1="330.64" y1="27.08" x2="534.36" y2="839.92"/>
      <path class="cls-1" d="M327.04,28.17c-.49-1.97.74-3.98,2.75-4.48s4.05.7,4.54,2.67-.74,3.98-2.75,4.48-4.05-.7-4.54-2.67Z"/>
      <path class="cls-1" d="M530.66,840.64c.49,1.97,2.53,3.17,4.54,2.67s3.25-2.51,2.75-4.48-2.53-3.17-4.54-2.67-3.25,2.51-2.75,4.48Z"/>
    </g>
    <g>
      <line class="cls-4" x1="380.93" y1="13.5" x2="484.07" y2="853.5"/>
      <path class="cls-1" d="M377.22,14.14c-.25-2.04,1.22-3.9,3.28-4.15s3.93,1.2,4.19,3.24-1.22,3.9-3.28,4.15-3.93-1.2-4.19-3.24Z"/>
      <path class="cls-1" d="M480.32,853.77c.25,2.04,2.12,3.49,4.19,3.24s3.53-2.11,3.28-4.15-2.12-3.49-4.19-3.24-3.53,2.11-3.28,4.15Z"/>
    </g>
    <g>
      <line class="cls-4" x1="432.5" y1="6.07" x2="432.5" y2="860.93"/>
      <path class="cls-1" d="M428.74,6.26c0-2.08,1.68-3.76,3.76-3.76s3.76,1.68,3.76,3.76-1.68,3.76-3.76,3.76-3.76-1.68-3.76-3.76Z"/>
      <path class="cls-1" d="M428.74,860.74c0,2.08,1.68,3.76,3.76,3.76s3.76-1.68,3.76-3.76-1.68-3.76-3.76-3.76-3.76,1.68-3.76,3.76Z"/>
    </g>
  </g>
  <text class="cls-3" transform="translate(58.28 459.62)"><tspan x="0" y="0">TRANS</tspan><tspan class="cls-5" x="303.5" y="0">P</tspan><tspan class="cls-6" x="355.77" y="0">ARENTE</tspan></text>
</svg>