<svg width="24" height="24" viewBox="0 0 24 24" fill="none" xmlns="http://www.w3.org/2000/svg">
<rect width="24" height="24" rx="12" fill="#202B46"/>
<g clip-path="url(#clip0_108_160)">
<path d="M13.5875 6.92999C13.475 6.97249 13.4 7.07999 13.4 7.19999C13.4 7.31999 13.475 7.42749 13.5875 7.46999L15 7.99999L15.53 9.41249C15.5725 9.52499 15.68 9.59999 15.8 9.59999C15.92 9.59999 16.0275 9.52499 16.07 9.41249L16.6 7.99999L18.0125 7.46999C18.125 7.42749 18.2 7.31999 18.2 7.19999C18.2 7.07999 18.125 6.97249 18.0125 6.92999L16.6 6.39999L16.07 4.98749C16.0275 4.87499 15.92 4.79999 15.8 4.79999C15.68 4.79999 15.5725 4.87499 15.53 4.98749L15 6.39999L13.5875 6.92999ZM8.9625 7.43249C8.8975 7.28999 8.755 7.19999 8.6 7.19999C8.445 7.19999 8.3025 7.28999 8.2375 7.43249L6.91 10.3075L4.035 11.635C3.89 11.7025 3.8 11.845 3.8 12C3.8 12.155 3.89 12.2975 4.0325 12.3625L6.9075 13.69L8.235 16.565C8.3 16.7075 8.4425 16.7975 8.5975 16.7975C8.7525 16.7975 8.895 16.7075 8.96 16.565L10.2875 13.69L13.1625 12.3625C13.305 12.2975 13.395 12.155 13.395 12C13.395 11.845 13.305 11.7025 13.1625 11.6375L10.2875 10.31L8.96 7.43499L8.9625 7.43249ZM14.2 16L12.7875 16.53C12.675 16.5725 12.6 16.68 12.6 16.8C12.6 16.92 12.675 17.0275 12.7875 17.07L14.2 17.6L14.73 19.0125C14.7725 19.125 14.88 19.2 15 19.2C15.12 19.2 15.2275 19.125 15.27 19.0125L15.8 17.6L17.2125 17.07C17.325 17.0275 17.4 16.92 17.4 16.8C17.4 16.68 17.325 16.5725 17.2125 16.53L15.8 16L15.27 14.5875C15.2275 14.475 15.12 14.4 15 14.4C14.88 14.4 14.7725 14.475 14.73 14.5875L14.2 16Z" fill="white"/>
</g>
<defs>
<clipPath id="clip0_108_160">
<rect width="16" height="16" fill="white" transform="translate(3 4)"/>
</clipPath>
</defs>
</svg>
