<svg width="426" height="220" viewBox="0 0 426 220" fill="none" xmlns="http://www.w3.org/2000/svg">
<path d="M6.5 107.5V37.5H43.2519L59.5 54.2237V107.5H6.5Z" stroke="#676765" stroke-width="3"/>
<path d="M1.5 102.5V32.5H38.2519L54.5 49.2237V102.5H1.5Z" fill="white" stroke="#676765" stroke-width="3"/>
<rect width="40" height="20" transform="translate(8 66)" fill="white"/>
<rect x="8" y="66" width="40" height="4" fill="#D1CFC7"/>
<rect x="8" y="74" width="40" height="4" fill="#D1CFC7"/>
<rect x="8" y="82" width="40" height="4" fill="#D1CFC7"/>
<path d="M19.9998 171.987L1.99982 190.025L55.4998 189.537L55.4998 175.4L41.4998 161.75L25.4998 177.35L19.9998 171.987Z" fill="#D1CFC7"/>
<mask id="path-7-inside-1_859_39051" fill="white">
<rect y="152" width="56" height="39" rx="2"/>
</mask>
<rect y="152" width="56" height="39" rx="2" stroke="#676765" stroke-width="6" mask="url(#path-7-inside-1_859_39051)"/>
<ellipse cx="20.5" cy="162.238" rx="3.5" ry="3.4125" fill="#D1CFC7"/>
<path d="M53.9381 158H58C58.5523 158 59 158.448 59 159V194C59 194.552 58.5523 195 58 195H8C7.44772 195 7 194.552 7 194V189.062" stroke="#676765" stroke-width="3"/>
<path d="M205.5 20.5H425.5V216C425.5 217.933 423.933 219.5 422 219.5H209C207.067 219.5 205.5 217.933 205.5 216V20.5Z" fill="white" stroke="#D1CFC7"/>
<path d="M228.007 60.02C227.211 59.478 226.461 58.9635 226.461 57.9528C226.461 57.3556 226.808 56.7216 227.788 56.7216C228.63 56.7216 229.16 57.1627 229.325 57.9896C229.325 58.0079 229.343 58.0263 229.362 58.0263H229.426C229.435 58.0263 229.444 58.0263 229.453 58.0171C229.462 58.0079 229.462 57.9987 229.462 57.9896C229.453 57.8242 229.453 57.5394 229.453 57.374C229.453 57.0892 229.462 56.887 229.49 56.6298C229.49 56.6206 229.49 56.6022 229.481 56.593C229.471 56.5838 229.462 56.5838 229.444 56.5838C229.38 56.593 229.325 56.593 229.261 56.593C229.069 56.593 228.877 56.5563 228.675 56.5195C228.419 56.4736 228.135 56.4185 227.769 56.4185C226.525 56.4185 225.646 57.2637 225.646 58.4765C225.646 59.7536 226.543 60.36 227.403 60.9572C228.236 61.5268 229.014 62.0597 229.014 63.1439C229.014 64.1637 228.264 64.6231 227.522 64.6231C226.662 64.6231 225.802 64.1453 225.802 63.2449C225.802 63.1714 225.811 63.0887 225.82 63.006V62.9693C225.82 62.9601 225.82 62.9417 225.811 62.9417C225.802 62.9325 225.793 62.9325 225.784 62.9325H225.747C225.729 62.9325 225.719 62.9417 225.71 62.9601C225.582 63.2449 225.573 63.5849 225.573 63.6859C225.573 63.8329 225.591 63.9707 225.601 64.0994C225.619 64.228 225.628 64.3383 225.628 64.4669C225.628 64.5679 225.628 64.6966 225.619 64.7517C225.619 64.7609 225.619 64.7793 225.628 64.7885C225.637 64.7976 225.646 64.7976 225.665 64.7976C225.729 64.7885 225.756 64.7885 225.829 64.7885C226.076 64.7885 226.278 64.8344 226.488 64.8803C226.744 64.9355 227.037 64.9998 227.449 64.9998C228.849 64.9998 229.828 64.0442 229.828 62.6661C229.819 61.2604 228.895 60.6356 228.007 60.02Z" fill="#990000"/>
<path d="M243.702 60.7825C243.702 63.1529 242.53 64.623 240.645 64.623C238.778 64.623 237.671 63.1621 237.671 60.709C237.671 58.8807 238.449 56.7399 240.645 56.7399C242.064 56.7399 243.702 57.7965 243.702 60.7825ZM240.746 56.4092C238.11 56.4092 236.545 58.6142 236.545 60.7458C236.545 62.8222 238.083 64.9629 240.654 64.9629C242.997 64.9629 244.836 63.0978 244.836 60.709C244.827 58.3018 243.034 56.4092 240.746 56.4092Z" fill="#990000"/>
<path d="M249.769 58.9359C249.769 59.7536 249.549 60.8469 247.682 60.8469H247.161V56.8778C247.49 56.786 247.71 56.7676 247.966 56.7676C249.055 56.7768 249.769 57.622 249.769 58.9359ZM252.075 64.816C251.398 64.5863 250.611 63.1714 250.034 62.1424C249.705 61.5544 249.449 61.0858 249.256 60.9021C250.236 60.5162 250.821 59.7352 250.821 58.7889C250.821 57.3556 249.723 56.4276 248.021 56.4276C247.902 56.4276 247.71 56.4368 247.499 56.4368C247.261 56.446 246.996 56.446 246.804 56.446C246.291 56.446 246.081 56.446 245.687 56.4185C245.678 56.4185 245.669 56.4185 245.66 56.4276C245.651 56.4368 245.651 56.446 245.651 56.4552V56.5103C245.651 56.5287 245.669 56.5471 245.687 56.5471C246.081 56.6114 246.218 56.7676 246.218 57.5669V63.8145C246.218 64.7425 246.072 64.7701 245.669 64.8344C245.651 64.8344 245.633 64.8528 245.633 64.8711V64.9263C245.633 64.9354 245.633 64.9446 245.642 64.9538C245.651 64.963 245.66 64.963 245.669 64.963C245.907 64.9538 246.237 64.9354 246.685 64.9354C247.161 64.9354 247.554 64.9538 247.701 64.963C247.71 64.963 247.719 64.963 247.728 64.9538C247.737 64.9446 247.737 64.9354 247.737 64.9263V64.8711C247.737 64.8528 247.719 64.8344 247.701 64.8344C247.298 64.7701 247.152 64.7425 247.152 63.8145V61.1777H247.856C247.984 61.1777 248.149 61.1593 248.332 61.1317C248.533 61.3247 248.771 61.7749 248.918 62.0505C248.945 62.1056 248.973 62.1608 249 62.1975C250.373 64.7793 250.519 64.9354 251.755 64.9814C251.892 64.9814 251.947 64.9814 252.048 64.9722C252.066 64.9722 252.084 64.9538 252.084 64.9354V64.8619C252.102 64.8436 252.093 64.8252 252.075 64.816Z" fill="#990000"/>
<path d="M236.628 56.409C236.619 56.3998 236.609 56.3906 236.591 56.3906C236.042 56.3998 233.15 56.4458 230.561 56.3906C230.542 56.3906 230.524 56.3998 230.524 56.4182C230.469 56.6295 230.423 56.8133 230.368 56.9878C230.304 57.2083 230.249 57.4105 230.204 57.6218C230.204 57.631 230.204 57.6493 230.213 57.6585C230.222 57.6677 230.231 57.6769 230.24 57.6769H230.295C230.313 57.6769 230.323 57.6677 230.332 57.6493C230.67 56.9327 231.21 56.9235 232.986 56.9235V63.7959C232.986 64.7239 232.839 64.7514 232.437 64.8157C232.418 64.8157 232.4 64.8341 232.4 64.8525V64.9076C232.4 64.9168 232.4 64.926 232.409 64.9352C232.418 64.9444 232.427 64.9444 232.437 64.9444C232.665 64.9352 232.995 64.9168 233.443 64.9168C233.919 64.9168 234.303 64.9352 234.45 64.9444C234.459 64.9444 234.468 64.9444 234.477 64.9352C234.486 64.926 234.486 64.9168 234.486 64.9076V64.8525C234.486 64.8341 234.468 64.8157 234.45 64.8157C234.056 64.7514 233.901 64.7239 233.901 63.7959V56.9235C235.941 56.9235 236.216 57.0062 236.216 57.3186C236.216 57.3737 236.207 57.4472 236.198 57.484C236.198 57.4931 236.198 57.5115 236.207 57.5207C236.216 57.5299 236.225 57.5391 236.234 57.5391H236.307C236.326 57.5391 236.344 57.5207 236.344 57.5023C236.381 57.3186 236.509 56.7581 236.609 56.4457C236.637 56.4366 236.637 56.4182 236.628 56.409Z" fill="#990000"/>
<path d="M224.594 56.4004C224.365 56.4096 223.917 56.4188 223.532 56.4188C223.121 56.4188 222.663 56.4096 222.425 56.4004C222.416 56.4004 222.407 56.4004 222.398 56.4096C222.388 56.4188 222.388 56.428 222.388 56.4371V56.4923C222.388 56.5106 222.407 56.529 222.425 56.529C222.828 56.5933 223.093 56.6393 223.093 57.5121V62.5929C223.093 63.5484 222.636 64.5866 221.903 64.5866C221.766 64.5866 221.638 64.5774 221.519 64.5591C221.007 64.4304 220.686 64.0721 220.494 63.8149C220.467 63.7781 220.439 63.7414 220.421 63.7046C220.21 63.383 220.11 63.1074 220.11 63.0982C220.101 63.0707 220.073 63.0615 220.046 63.0615C220.018 63.0707 220 63.089 220 63.1258L220.174 64.458C220.174 64.4764 220.183 64.4947 220.201 64.5039C220.686 64.8163 221.281 64.9082 221.391 64.9174C221.583 64.9449 221.739 64.9541 221.83 64.9541C221.903 64.9541 221.949 64.9541 221.949 64.9541C223.175 64.9541 223.999 63.9527 223.999 62.4643V57.5121C223.999 56.6576 224.2 56.6209 224.603 56.529L224.621 56.5198C224.64 56.5198 224.649 56.5015 224.649 56.4831V56.428C224.649 56.4188 224.649 56.4096 224.64 56.4004C224.612 56.4004 224.603 56.4004 224.594 56.4004Z" fill="#990000"/>
<path d="M249.803 34.963C249.529 35.1473 249.236 35.175 249.226 35.175C249.217 35.175 249.208 35.1842 249.208 35.1934C249.208 35.2026 249.208 35.2118 249.217 35.2211C249.226 35.2303 249.968 35.8754 250.041 36.751C250.124 37.645 249.986 38.1427 249.538 38.5666C249.181 38.9076 248.659 38.9537 248.467 38.9076C248.421 38.8984 248.412 38.8892 248.412 38.88C248.384 38.7694 248.549 38.6496 248.75 38.5113C248.796 38.4837 248.842 38.4468 248.888 38.4192C249.144 38.2348 249.281 37.9307 249.199 37.7648C249.172 37.7095 249.126 37.7003 249.071 37.7003C249.025 37.7003 248.979 37.7187 248.924 37.7372C248.824 37.7648 248.714 37.8017 248.659 37.7372C248.595 37.6726 248.622 37.6173 248.677 37.5067C248.723 37.4146 248.778 37.304 248.787 37.1473C248.815 36.8063 248.769 35.9123 248.293 35.8109C248.274 35.8109 248.256 35.8109 248.238 35.8201C248.192 35.857 248.192 35.9676 248.192 36.1427C248.192 36.3731 248.183 36.6773 248.055 36.88C247.853 37.1934 247.533 37.433 247.387 37.433C247.35 37.433 247.332 37.4238 247.313 37.4054C247.295 37.3777 247.304 37.304 247.332 37.1934C247.387 36.9353 247.478 36.4561 247.341 35.5621C247.295 35.2487 247.103 34.9077 246.929 34.5851C246.755 34.2718 246.59 33.9676 246.554 33.7095C246.489 33.2303 246.544 33.0275 246.81 32.8248C246.965 32.7049 246.993 32.5944 246.993 32.5206C246.993 32.4469 246.956 32.3086 246.828 32.2626C246.819 32.2626 246.819 32.2626 246.81 32.2533C246.746 32.2349 246.636 32.2257 246.517 32.2257C246.014 32.2349 244.833 32.2441 244 31.1013C243.322 30.1796 243.277 29.3133 243.405 28.2902V28.281C243.405 28.2626 243.331 27.8847 243.011 27.5898C242.855 27.4515 242.7 27.3686 242.59 27.3133C242.526 27.2764 242.453 27.2488 242.453 27.2211C242.453 27.2211 242.453 27.2027 242.471 27.1935C242.553 27.1105 242.837 26.9907 243.231 27.046C243.524 27.0921 243.734 27.2119 243.734 27.2119C243.743 27.2211 243.753 27.2119 243.762 27.2027C243.771 27.1935 244.54 26.2811 245.821 26.3824C246.59 26.4377 247.322 27.1935 247.341 28.0138C247.359 28.834 246.984 29.2672 246.654 29.3778C246.389 29.47 246.142 29.4607 245.995 29.3594C245.931 29.3133 245.885 29.2488 245.885 29.175C245.885 29.1105 245.94 29.0736 246.05 29.0184C246.233 28.9262 246.517 28.7787 246.554 28.2626C246.572 27.9953 246.48 27.728 246.306 27.5437C246.187 27.4147 245.977 27.258 245.629 27.2764C245.181 27.2949 244.814 27.47 244.567 27.7926C244.256 28.1981 244.146 28.834 244.265 29.5621C244.439 30.622 245.455 31.3593 246.572 31.2395C247.231 31.175 247.844 30.7971 248.311 30.1888C248.75 29.6174 249.007 28.8801 249.016 28.1704C249.034 26.4009 248.018 24.576 245.693 24.4838C243.469 24.4009 242.087 25.7926 241.455 26.6221C241.061 27.1382 240.649 28.1244 240.347 28.9262C240.485 28.8985 240.915 28.8432 241.299 29.0368C241.693 29.2303 242.151 29.7096 242.068 29.9124C242.05 29.9676 241.931 29.94 241.757 29.8939C241.528 29.8294 241.208 29.8478 240.851 29.9031C240.237 29.9861 239.99 30.1059 239.917 30.1704L239.954 30.0598C239.935 30.1243 239.917 30.1704 239.917 30.1704L239.084 29.6543C239.203 29.1289 239.734 26.9262 241.061 25.4792C242.425 23.9954 244.064 23.5069 245.51 23.4977C246.297 23.4885 247.02 23.6083 247.615 23.7465C247.689 23.7649 247.753 23.7742 247.817 23.7926C248.384 23.9216 248.979 24.0414 249.4 23.9308C249.629 23.8755 249.821 23.7834 249.968 23.7096C250.059 23.6636 250.151 23.6175 250.169 23.6267C250.169 23.6267 250.178 23.6359 250.178 23.6451C250.197 23.7373 250.114 24.0322 249.849 24.3917C249.684 24.6221 249.474 24.7511 249.327 24.8525C249.19 24.9354 249.098 25 249.098 25.0921C249.098 25.1382 249.144 25.2212 249.226 25.3686C249.483 25.8294 250.014 26.7972 249.95 28.1612C249.849 30.2534 248.86 31.1474 248.201 31.7464L248.119 31.8202H248.11C247.67 32.3271 247.725 32.7971 247.853 33.092C248.046 33.5436 248.467 33.9215 249.007 34.1151C249.318 34.2257 249.657 34.2625 249.904 34.2902C250.087 34.3086 250.27 34.3271 250.288 34.3731C250.352 34.5206 250.178 34.7234 249.803 34.963ZM249.886 42.1979C249.684 43.3869 249.016 43.8938 248.448 43.9675C248.403 43.9767 248.357 43.9767 248.32 43.9767C248.155 43.9767 248.027 43.9306 247.991 43.8569C247.982 43.8293 247.972 43.8016 247.982 43.774C248 43.7279 248.064 43.7002 248.155 43.6726C248.265 43.6357 248.421 43.5712 248.586 43.4422C249.071 43.0551 249.043 42.8892 249.025 42.7601C249.025 42.7417 249.016 42.7325 249.007 42.7325C248.979 42.7141 248.906 42.7509 248.824 42.797L248.787 42.8154C248.677 42.8707 248.577 42.88 248.494 42.8431C248.448 42.8154 248.421 42.7786 248.412 42.7325C248.403 42.6772 248.467 42.6219 248.54 42.5482C248.604 42.4929 248.677 42.4284 248.723 42.3546C248.97 41.9675 249.016 41.4975 248.824 41.1288C248.686 40.8523 248.485 40.5943 247.89 40.539C247.881 40.539 247.863 40.539 247.853 40.539H247.835C247.762 40.539 247.679 40.5482 247.588 40.5666C246.929 40.6957 246.49 41.138 246.197 41.6081C246.197 41.6173 246.187 41.6265 246.187 41.6265C245.785 42.2256 245.684 43.1472 245.657 43.3223V43.3316C245.528 44.1703 245.254 45.4145 243.505 47.5988C243.304 47.8477 243.148 48.2071 243.249 48.6126C243.432 49.3131 244.1 49.3776 244.091 49.4513C244.082 49.5527 243.945 49.5527 243.698 49.5343C243.45 49.5158 243.359 49.4329 243.359 49.4329C243.359 49.4329 243.295 49.5896 243.707 49.8937C244.018 50.1241 244.375 50.1149 244.384 50.2163C244.393 50.3361 242.453 50.7877 242.334 48.8154C242.334 48.7693 242.325 48.7232 242.325 48.6771C240.228 50.6126 239.615 50.7048 239.459 50.502C239.386 50.4006 239.588 50.4283 239.99 49.9674C240.402 49.4974 240.411 49.2854 240.411 49.2854C240.411 49.2854 239.597 49.7278 238.645 49.6449C237.674 49.5527 236.86 48.8707 236.933 48.6034C236.988 48.373 237.565 48.7693 238.26 48.6587C238.901 48.5573 238.956 48.2993 238.956 48.2993C238.956 48.2993 238.828 48.2993 238.617 48.0781C238.407 47.8569 238.095 47.6725 238.269 47.4882C238.37 47.3776 238.855 47.5988 239.331 47.608C239.935 47.608 240.32 47.4698 240.32 47.4698C240.32 47.4698 240.073 47.3776 239.816 47.1288C239.56 46.8707 239.505 46.6126 239.578 46.5481C239.624 46.5113 239.725 46.714 240.064 46.714C240.457 46.7048 240.503 46.6126 240.503 46.6126C240.503 46.6126 240.338 46.456 240.256 46.3085C240.183 46.1518 239.945 45.7094 240.091 45.5435C240.137 45.4882 240.585 46.0412 241.244 46.1057C242.379 46.2071 243.624 45.3039 243.624 45.3039C243.624 45.3039 243.011 46.0597 241.711 47.1933C240.878 47.9122 239.826 48.502 239.89 48.6403C239.963 48.8062 240.787 48.6126 242.215 47.4145C242.672 47.0274 242.965 46.7785 243.588 46.0043C244.686 44.6403 244.933 43.1472 244.714 41.9491C244.622 41.4791 244.503 41.0551 244.357 40.6957C243.743 39.3685 243.084 38.7141 241.986 38.2901C241.006 37.9123 240.256 38.2533 239.798 38.4653C239.569 38.5759 239.414 38.6404 239.35 38.5482C239.148 38.2625 239.551 37.8754 239.908 37.5344C240.366 37.1012 240.668 36.9261 240.75 36.8892C240.668 36.8524 240.375 36.7049 240.091 36.6865C239.945 36.6773 239.78 36.7049 239.633 36.7233C239.404 36.7602 239.221 36.7879 239.194 36.668C239.148 36.4376 240.082 36.0229 240.585 35.857C241.098 35.6911 241.51 35.6634 241.583 35.6634C241.574 35.5528 241.492 34.6865 241.583 33.4238C241.629 32.7602 241.757 32.2994 241.849 32.0321C241.968 31.6911 242.105 31.4607 242.224 31.387C242.27 31.3593 242.325 31.3593 242.361 31.3778C242.444 31.4239 242.444 31.599 242.444 31.857C242.444 32.0137 242.444 32.2165 242.462 32.4285C242.517 33.0644 242.718 33.4146 242.837 33.4884C242.855 33.4976 242.874 33.5068 242.883 33.4976C242.929 33.4791 242.938 33.3962 242.956 33.2856C242.984 33.1381 243.011 32.9261 243.139 32.6681C243.341 32.2349 243.743 31.728 243.881 31.7649C243.917 31.7741 243.926 31.8202 243.926 31.8847C243.917 32.0874 243.881 32.2626 243.853 32.4469C243.789 32.834 243.716 33.2672 243.762 34.0782C243.817 35.2671 244.366 35.4238 244.439 35.4422C244.476 35.3777 244.741 34.9169 245.126 34.5022C245.208 34.4192 245.281 34.3271 245.364 34.2441C245.602 33.9676 245.794 33.7556 245.931 33.7556H245.94C245.977 33.7556 246.014 33.7833 246.032 33.8201C246.078 33.8939 246.004 34.0874 245.876 34.4008C245.702 34.834 245.437 35.4883 245.318 36.2902C245.098 37.8293 245.318 39.3224 245.327 39.3316L245.345 39.4422L245.309 39.3408C245.309 39.3408 245.181 38.9722 244.64 38.1795C244.402 37.8201 244.21 37.6081 244.027 37.4054C243.798 37.1473 243.579 36.9077 243.277 36.3915C242.929 35.8017 242.837 35.3593 242.782 35.0644C242.736 34.8155 242.709 34.6957 242.572 34.6773C242.553 34.6773 242.544 34.6865 242.526 34.7049C242.407 34.8985 242.471 35.9768 242.801 36.6127C242.974 36.9538 243.185 37.2302 243.423 37.5436C243.67 37.8662 243.945 38.2256 244.283 38.7786C244.897 39.7832 245.199 40.5205 245.345 40.9629C245.382 41.0735 245.409 41.1657 245.437 41.2486C245.51 41.1012 245.629 40.9261 245.666 40.8892C246.746 39.6911 247.689 39.6081 248.339 39.7648H248.348C248.815 39.8662 249.236 40.1427 249.529 40.5574C249.831 41.0367 249.977 41.6449 249.886 42.1979ZM249.648 48.2347C249.648 48.244 249.638 48.2532 249.638 48.2716C249.4 49.1195 248.888 49.7002 248.174 49.9121C247.954 49.9767 247.744 50.0135 247.551 50.0135C247.075 50.0135 246.673 49.8292 246.242 49.5527C246.215 49.5435 245.977 49.5066 245.73 49.6449C245.602 49.7186 245.519 49.8015 245.455 49.8661C245.4 49.9214 245.364 49.9582 245.327 49.949C245.318 49.949 245.3 49.9306 245.29 49.9121C245.254 49.82 245.254 49.5711 245.409 49.2946C245.501 49.1195 245.611 49.0089 245.647 48.9813C245.602 48.8707 245.29 48.1057 245.684 47.2578C245.949 46.6864 246.645 46.3822 247.176 46.6034C247.707 46.8246 247.872 47.2394 247.853 47.5159C247.835 47.7463 247.753 47.9398 247.643 48.0228C247.588 48.0596 247.524 48.0688 247.478 48.0504C247.414 48.0228 247.405 47.949 247.405 47.8569C247.396 47.7002 247.387 47.479 247.094 47.3131C246.947 47.2301 246.773 47.2209 246.627 47.2854C246.517 47.3315 246.371 47.4421 246.288 47.6818C246.178 48.0043 246.187 48.3177 246.325 48.5758C246.489 48.8983 246.837 49.138 247.304 49.2486C247.991 49.4145 248.705 48.8983 248.934 48.0781C248.998 47.8292 249.034 47.5435 248.943 47.2394C248.76 46.6311 248.348 46.0781 247.35 45.5896C247.011 45.4237 246.306 45.1104 246.032 44.9813C246.187 44.5389 246.206 44.4007 246.251 44.244C246.343 44.0965 246.599 43.8569 246.846 43.7924C247.13 43.7279 247.469 43.8661 247.46 43.9214C247.451 43.9767 247.075 44.0689 246.865 44.5574C246.947 44.5942 247.652 44.7878 248.256 45.1841C249.272 45.8477 249.556 46.5481 249.638 46.8615C249.785 47.3776 249.757 47.8569 249.648 48.2347ZM239.798 32.0045C239.185 31.4331 238.69 31.2856 238.69 31.2856V30.2073C238.983 30.3547 239.661 30.7142 240.045 31.0368C240.43 31.3593 240.723 31.6727 240.961 31.94L240.796 33.0275C240.512 32.7234 240.155 32.3363 239.798 32.0045ZM239.02 33.9584C238.846 32.7234 238.919 32.152 238.919 32.152C239.194 32.2441 239.661 32.7142 239.816 32.8801C239.816 32.8801 239.78 33.046 239.899 33.8017C239.981 34.3731 240.155 34.8985 240.219 35.1197L239.359 35.5252C239.276 35.2487 239.112 34.622 239.02 33.9584ZM239.67 41.3592C239.771 42.1795 240.448 42.9537 241.4 42.8523C241.812 42.8062 242.105 42.6127 242.306 42.4007L242.251 42.3362C242.123 42.2164 241.675 41.7924 241.308 41.3224C240.951 40.8615 240.778 40.6127 240.741 40.5666L240.64 40.4192C240.649 40.4099 240.768 40.327 241.125 40.3362C241.519 40.3546 241.894 40.6588 242.004 40.7509C242.004 40.7509 242.187 40.9537 242.773 41.5712C243.469 42.2993 243.972 42.6495 244.055 42.7048C244.055 42.9168 244 43.3224 243.917 43.6081C243.597 43.4329 243.176 43.0827 242.974 42.9168C242.947 42.8892 242.92 42.8707 242.901 42.8615C242.645 43.1749 242.27 43.479 241.702 43.6357C241.574 43.6726 241.427 43.691 241.29 43.6818C240.045 43.6449 239.212 42.7141 239.011 41.8016C238.938 41.4606 238.965 41.0274 238.974 40.7325C238.983 40.4745 239.002 40.244 238.938 40.0781C238.874 39.8846 238.782 39.7648 238.718 39.6818C238.663 39.5989 238.617 39.5528 238.663 39.5067C238.727 39.4238 238.947 39.4791 239.148 39.6173C239.276 39.7003 239.331 39.8017 239.35 39.8569C239.469 39.6726 240.045 38.88 241.043 38.8431C241.382 38.8339 241.684 38.9076 241.913 39.0551C242.105 39.1749 242.233 39.35 242.288 39.5252C242.325 39.6634 242.325 39.774 242.233 39.8201C242.187 39.8477 242.077 39.8016 241.931 39.7279C241.72 39.6265 241.391 39.5159 241.006 39.562C240.695 39.5989 240.256 39.8109 239.954 40.2164C239.716 40.5298 239.615 40.9353 239.67 41.3592ZM235.523 48.7509C234.352 49.82 233.445 50.0873 232.338 50.2716C231.111 50.4836 228.768 50.1518 228.768 50.1518L227.559 46.2255C227.559 46.2255 228.814 47.4145 229.473 47.9398C230.132 48.4652 230.745 48.7509 231.679 48.7509C232.612 48.7509 233.244 48.5112 233.93 47.7739C234.617 47.0366 234.873 46.0873 235.047 44.9629C235.166 44.1518 235.111 41.9122 235.111 41.3961L235.285 29.2303C235.285 29.2303 235.368 26.6036 235.185 25.9493C235.001 25.2857 234.608 24.8064 234.37 24.5576C233.848 24.0046 232.731 23.8295 232.731 23.8295C232.411 23.7742 232.338 23.6175 232.365 23.4608C232.402 23.2304 232.603 23.1935 232.603 23.1935L240.494 23.212C240.494 23.212 240.686 23.2304 240.723 23.47C240.75 23.6267 240.677 23.7834 240.356 23.8387C240.356 23.8387 239.249 24.023 238.718 24.5668C238.48 24.8156 238.086 25.2949 237.903 25.9585C237.72 26.6221 237.803 29.2395 237.803 29.2395V41.433C237.803 41.433 237.83 43.7832 237.528 45.0182C237.308 45.8753 236.823 47.5712 235.523 48.7509ZM226.69 48.1241C226.26 49.0366 225.546 49.8476 225.408 49.7186C225.298 49.608 225.436 49.5158 225.509 49.2486C225.582 48.9721 225.601 48.9168 225.601 48.9168C225.601 48.9168 225.408 49.1933 224.722 49.6264C224.035 50.0596 223.916 50.0873 223.797 49.9214C223.724 49.8108 223.898 49.691 224.063 49.4052C224.218 49.1287 224.173 49.138 224.173 49.138C224.173 49.138 223.587 49.0827 223.111 48.8707C222.635 48.6587 222.131 48.161 222.14 48.0596C222.159 47.9306 222.36 47.8569 222.717 47.6725C223.102 47.479 223.367 47.2301 223.367 47.2301C223.367 47.2301 223.111 47.1656 222.964 47.1011C222.735 46.9905 222.507 46.8799 222.644 46.7325C222.772 46.6126 223.385 47.0274 224.328 46.1334C225.161 45.3408 225.161 44.1795 225.161 44.1795C225.161 44.1795 225.564 45.5343 225.033 46.6126C224.374 47.9398 223.138 47.949 223.275 48.2255C223.44 48.5665 224.951 48.2624 225.601 46.6679C226.141 45.3408 225.573 43.6541 225.161 42.6495C225.042 42.3638 224.887 41.9767 224.786 41.6726C225.161 41.8477 225.472 41.9307 225.774 41.9675C225.774 41.9675 225.774 41.9675 225.774 41.9767C225.784 41.9767 225.829 42.0597 225.829 42.0597C226.196 42.6495 226.763 42.8523 227.065 42.9721C227.349 43.0827 227.66 43.138 227.971 43.138C228.237 43.138 228.511 43.1012 228.759 42.9998C228.923 42.9353 229.079 42.8523 229.198 42.7233C229.564 42.327 229.656 41.1104 229.82 41.0182C229.894 40.9721 230.077 41.2763 230.15 41.4975C230.223 41.7279 230.187 41.9491 230.324 42.0044C230.425 42.0413 230.48 41.9307 230.69 41.691C230.983 41.35 230.937 41.2118 231.084 41.2671C231.23 41.3224 231.075 42.0781 231.001 42.4837C230.928 42.8984 230.736 43.4975 230.736 43.4975C230.736 43.4975 231.221 43.1749 231.679 42.9721C232.951 42.4007 233.445 42.5758 233.454 42.7325C233.464 42.8892 233.162 42.9168 232.832 43.3131C232.594 43.5988 232.649 43.6726 232.649 43.6726C232.649 43.6726 232.841 43.6818 233.372 43.5251C233.747 43.4145 234.077 43.2394 234.178 43.3961C234.287 43.5528 233.793 44.2256 233.033 44.7509C232.274 45.2762 231.66 45.479 231.66 45.479C231.66 45.479 231.807 45.6357 232.182 45.7002C232.557 45.7647 232.704 45.7094 232.74 45.82C232.786 45.9675 232.365 46.0965 231.66 46.1702C230.653 46.2716 230.132 45.8292 230.132 45.8292C230.132 45.8292 230.26 46.1979 230.113 46.5666C229.958 46.9444 229.921 47.2947 229.775 47.267C229.628 47.2486 229.802 46.8891 229.518 46.5389C229.216 46.161 228.868 46.0781 228.356 45.6726C227.852 45.2855 227.834 44.9721 227.834 44.9721C227.834 44.9721 228.713 45.3039 230.15 45.0735C231.532 44.8523 231.962 44.4375 231.862 44.2809C231.77 44.1426 231.541 44.3177 230.891 44.4744C230.132 44.6495 229.097 44.6034 227.953 44.4099C227.55 44.3454 227.001 44.1518 226.507 43.82C226.699 44.2071 227.019 44.8984 227.093 45.3961C227.23 46.244 227.12 47.2025 226.69 48.1241ZM225.802 35.6358C225.857 35.2579 226.077 34.8524 226.205 34.6773C226.708 34.5851 227.029 34.8616 227.074 34.9077C226.8 35.4422 226.626 36.0321 226.47 36.622C226.287 36.5482 226.022 36.2809 225.802 35.6358ZM225.921 39.6265C225.665 39.5989 225.006 39.1565 224.969 39.0459C224.969 38.8155 225.024 38.2994 225.115 37.9952C225.445 38.5759 225.985 38.8247 225.985 38.8247C225.893 39.1934 225.921 39.6265 225.921 39.6265ZM223.221 34.5114C223.285 34.3271 223.34 34.198 223.394 34.0874C223.504 33.8386 223.568 33.6911 223.587 33.3501C223.614 32.9538 223.495 32.6496 223.422 32.5667C223.523 32.5759 223.834 32.7142 223.953 32.9722C224.054 33.1842 224.2 33.7372 224.182 33.8294C224.173 33.8478 224.191 33.857 224.191 33.8662C224.209 33.8754 224.227 33.8662 224.301 33.8109C224.511 33.6542 225.152 33.1658 226.287 33.1566H226.305C228.392 33.1566 229.308 35.1012 229.317 35.1197L229.326 35.1289H229.335C229.344 35.1289 229.619 35.2118 230.177 34.9722C230.397 34.88 230.525 34.7602 230.653 34.6496C230.864 34.4653 231.047 34.2994 231.551 34.2902C232.063 34.2718 232.448 34.5667 232.512 34.7694C232.53 34.8155 232.53 34.8893 232.475 34.9261C232.402 34.9814 232.384 34.9722 232.338 34.9538C232.265 34.9169 232.146 34.8616 231.77 34.9261C231.45 34.9722 231.303 35.2764 231.148 35.5897C230.974 35.9307 230.8 36.2809 230.397 36.3823C230.031 36.4837 229.601 36.2256 229.518 36.0966C229.5 36.0598 229.463 36.0137 229.418 36.0229C229.381 36.0321 229.363 36.0874 229.363 36.1058C229.363 36.1058 229.354 36.4284 229.152 36.9906C228.969 37.5067 228.127 38.7418 226.47 38.2901C225.454 38.0137 225.06 37.0551 225.106 36.4653C225.125 36.2717 225.179 36.1427 225.271 36.1335C225.344 36.1243 225.408 36.1796 225.427 36.2349C225.5 36.4561 225.582 36.6773 225.701 36.8616C225.866 37.1196 226.168 37.433 226.534 37.516C227.358 37.7003 227.862 37.2763 227.953 37.1842C228.264 36.8892 228.438 36.4008 228.411 35.8754C228.374 35.2026 228.026 34.7787 227.733 34.539C227.367 34.2349 226.891 34.0506 226.424 34.0413C226.415 34.0413 226.397 34.0413 226.388 34.0413C225.784 34.0413 225.17 34.2902 224.694 34.7141C224.09 35.2579 223.742 36.069 223.669 37.0551C223.605 37.9031 223.953 38.8431 224.566 39.5159C225.042 40.0413 225.637 40.327 226.232 40.3362C226.241 40.3362 226.25 40.3362 226.269 40.3362C227.843 40.3362 228.859 39.3593 229.93 38.327C230.937 37.3593 231.972 36.3639 233.601 35.9031C233.72 35.8662 234.278 35.8201 234.397 35.8109L234.37 36.7049C233.454 36.88 232.182 37.4699 232.246 38.1058C232.31 38.7325 232.713 39.0735 232.905 39.2394C232.951 39.2763 232.997 39.3132 232.997 39.3224C232.997 39.3316 232.978 39.3408 232.914 39.3685C232.74 39.433 232.338 39.4791 232.027 39.3316C231.605 39.1381 231.194 38.4468 231.184 38.4376L231.166 38.41L231.148 38.4376C231.139 38.4468 229.894 39.7648 229.216 40.2625C228.777 40.5851 227.614 41.4422 226.241 41.3777C225.289 41.3316 224.411 40.8984 223.77 40.1519C223.092 39.3685 222.726 38.2809 222.735 37.1012C222.735 36.0229 222.854 35.5344 223.221 34.5114ZM226.26 23.212C226.269 23.212 227.239 23.129 228.164 23.4977C228.566 23.6636 228.859 23.8663 229.116 24.0507H229.125C229.509 24.3179 229.802 24.5391 230.232 24.4009C230.718 24.2534 230.818 23.8663 230.882 23.6083C230.901 23.5438 230.928 23.4332 230.946 23.4239C230.965 23.4147 231.056 23.4516 231.129 23.5714C231.221 23.7096 231.459 24.2258 230.818 25.1659C230.461 25.682 229.885 25.7926 229.857 25.7926C229.83 25.7926 229.811 25.811 229.793 25.8294C229.784 25.8479 229.775 25.8755 229.784 25.9032C229.82 26.0322 229.82 26.1336 229.83 26.2258C229.857 26.5483 229.82 26.8617 229.61 27.387C229.28 28.1889 228.621 28.6773 227.752 28.7879C226.91 28.8893 226.223 28.4101 225.976 27.8847C225.756 27.3962 225.738 26.834 225.939 26.3271C225.985 26.1981 226.077 26.0967 226.15 26.0783C226.186 26.0691 226.214 26.0783 226.241 26.1059C226.315 26.1612 226.315 26.3087 226.324 26.5022C226.333 26.6958 226.342 26.9354 226.424 27.1843C226.553 27.5714 226.983 27.94 227.532 27.8939C228.374 27.8202 228.878 27.2211 228.896 26.2995C228.914 25.3318 228.301 24.1889 226.507 24.1428C226.479 24.1428 226.461 24.1428 226.434 24.1428C225.756 24.1428 225.134 24.4101 224.639 24.9078C224.072 25.4976 223.706 26.3824 223.687 27.2304C223.66 28.8801 224.511 29.8386 225.225 30.3547C225.948 30.8709 227.083 30.9077 228.502 30.4561C228.987 30.2994 229.509 30.0875 230.013 29.8755H230.022C230.452 29.7004 230.891 29.516 231.313 29.3594C231.56 29.2764 231.825 29.2027 232.1 29.1566L232.136 29.1474L232.109 29.1105C231.999 28.9631 231.862 28.7695 231.679 28.5207C231.313 28.0045 231.212 27.0552 231.331 26.8617C231.386 26.7787 231.441 26.7603 231.468 26.7603C231.486 26.7603 231.505 26.7695 231.505 26.7695C231.505 26.7787 231.505 26.8248 231.505 26.834C231.505 26.8801 231.505 27.1013 231.605 27.2119C231.734 27.3594 231.908 27.387 231.981 27.3502C232.008 27.3317 232.027 27.3133 232.036 27.2856C232.063 27.2027 232.191 26.7972 232.411 26.4654C232.594 26.1889 233.171 25.7649 233.509 25.7649C233.519 25.7649 233.528 25.7649 233.537 25.7649C233.628 25.7741 233.692 25.811 233.729 25.8847C233.775 25.9769 233.628 26.1336 233.583 26.1797C233.29 26.493 232.942 26.9539 232.914 27.7188C232.905 28.0783 233.006 28.3732 233.216 28.6036C233.619 29.0368 234.315 29.0921 234.452 29.0921V29.8847C234.434 29.8847 234.406 29.8847 234.388 29.8847C233.702 29.8847 233.152 30.7234 232.969 31.5805C232.814 32.281 232.951 33.2672 233.006 33.5621C233.061 33.8294 233.015 33.8939 232.997 33.9031C232.988 33.9123 232.978 33.9123 232.951 33.9123C232.805 33.8847 232.539 33.5713 232.246 33.092C232.027 32.7418 232.091 32.2994 232.127 32.0598C232.146 31.9308 232.155 31.8755 232.109 31.8386L232.1 31.8294C232.072 31.8017 232.027 31.7741 231.972 31.7741C231.972 31.7741 231.972 31.7741 231.962 31.7741C231.898 31.7741 231.825 31.8202 231.743 31.9031C231.679 31.9768 231.642 32.0229 231.624 32.0598C231.587 32.1151 231.587 32.1151 231.496 32.0782C231.496 32.0782 231.486 32.0782 231.477 32.0598C231.413 31.8847 231.605 31.2764 231.853 30.8524C232.045 30.5114 232.255 30.2626 232.548 30.0322L232.631 29.9676L232.521 29.9953C231.523 30.2257 230.525 30.622 229.912 31.046C229.125 31.5805 228.484 32.2165 228.017 32.9261C227.935 32.8708 227.852 32.834 227.651 32.7418C227.523 32.6865 227.331 32.622 227.184 32.6036C227.376 32.3363 227.715 31.9768 227.852 31.8294L227.862 31.8202C227.88 31.7925 227.88 31.7464 227.852 31.7188C227.825 31.6911 227.788 31.6819 227.752 31.6911C227.715 31.7096 226.827 32.0506 225.262 31.4607C223.989 30.9815 222.662 29.5898 222.735 27.1382C222.827 24.6313 224.566 23.3594 226.26 23.212ZM220.776 52.3176H251.835V21H220.776V52.3176Z" fill="#990000"/>
<rect x="220.5" y="21.5" width="31.0941" height="43" stroke="#D1CFC7"/>
<path d="M205.5 8C205.5 3.85786 208.858 0.5 213 0.5H418C422.142 0.5 425.5 3.85786 425.5 8V20.5H205.5V8Z" fill="white" stroke="#D1CFC7"/>
<circle cx="382" cy="11" r="4" fill="#EAE8E1"/>
<circle cx="398" cy="11" r="4" fill="#EAE8E1"/>
<circle cx="414" cy="11" r="4" fill="#EAE8E1"/>
<path d="M146.152 104.19C113.687 105.101 74.8743 110.043 74.0505 153.496C75.0073 141.95 93.7337 116.956 144.086 129.128L142.135 152.68L183.573 121.657L148.103 80.6373L146.152 104.19Z" fill="url(#paint0_linear_859_39051)"/>
<defs>
<linearGradient id="paint0_linear_859_39051" x1="189.193" y1="126.882" x2="27.7467" y2="159.493" gradientUnits="userSpaceOnUse">
<stop stop-color="#FB4848"/>
<stop offset="0.0001" stop-color="#D1CFC7"/>
<stop offset="0.214639" stop-color="#D1CFC7"/>
<stop offset="0.214739" stop-color="#D1CFC7"/>
<stop offset="1" stop-color="#C4C4C4" stop-opacity="0"/>
</linearGradient>
</defs>
</svg>
